<?xml version="1.0" standalone="no"?>
<!DOCTYPE svg PUBLIC "-//W3C//DTD SVG 20010904//EN"
 "http://www.w3.org/TR/2001/REC-SVG-20010904/DTD/svg10.dtd">
<svg version="1.0" xmlns="http://www.w3.org/2000/svg"
 width="900.000000pt" height="600.000000pt" viewBox="0 0 900.000000 600.000000"
 preserveAspectRatio="xMidYMid meet">
<metadata>
Created by potrace 1.10, written by Peter Selinger 2001-2011
</metadata>
<g transform="translate(0.000000,600.000000) scale(0.100000,-0.100000)"
fill="#8b008b" stroke="none">
<path d="M20 5976 c0 -38 22 -49 81 -41 61 9 142 42 134 56 -4 5 -53 9 -111 9
-103 0 -104 0 -104 -24z"/>
<path d="M1432 5988 c5 -15 28 -18 29 -3 0 6 -7 12 -17 13 -10 3 -15 -1 -12
-10z"/>
<path d="M1490 5984 c0 -11 8 -14 32 -12 46 4 49 28 4 28 -26 0 -36 -4 -36
-16z"/>
<path d="M1795 5978 c4 -13 12 -52 19 -88 7 -36 25 -101 39 -144 19 -57 25
-90 21 -117 -9 -54 2 -88 32 -99 14 -6 23 -14 19 -19 -3 -5 -1 -12 5 -16 5 -3
10 -20 10 -37 0 -39 29 -6 -450 -507 -19 -20 -93 -100 -165 -176 -71 -77 -166
-176 -210 -221 -44 -45 -109 -112 -144 -150 -150 -161 -341 -362 -633 -670
-43 -44 -86 -90 -95 -101 -47 -53 -130 -148 -151 -170 -32 -35 -58 -27 -52 17
7 55 5 108 -10 213 -11 80 -11 110 -1 162 11 56 11 66 -4 89 -10 14 -19 26
-21 26 -2 0 -4 -264 -4 -587 0 -322 3 -584 6 -580 4 3 12 99 20 212 14 218 27
313 49 355 20 38 93 120 244 275 147 152 230 239 361 380 46 50 136 144 199
211 64 66 140 147 170 180 30 32 96 102 145 154 50 52 120 127 156 165 36 39
124 134 195 210 161 173 235 253 306 329 29 33 78 83 107 111 63 64 68 83 32
134 -10 14 -30 73 -45 131 -14 58 -34 132 -45 165 -10 33 -24 88 -31 123 -13
61 -13 62 -47 62 -31 0 -34 -2 -27 -22z"/>
<path d="M2840 5993 c0 -4 9 -34 19 -67 11 -34 25 -88 31 -121 22 -105 31
-135 41 -135 5 0 12 7 15 15 4 8 12 15 20 15 16 0 20 90 5 106 -11 11 -41 135
-41 170 0 22 -4 24 -45 24 -25 0 -45 -3 -45 -7z"/>
<path d="M2990 5957 c0 -24 4 -47 9 -52 4 -6 14 -45 21 -87 8 -49 18 -79 27
-82 39 -15 38 14 -8 212 -10 39 -17 52 -31 52 -15 0 -18 -8 -18 -43z"/>
<path d="M3750 5992 c0 -5 -42 -51 -92 -103 -102 -105 -188 -219 -165 -219 16
0 124 112 215 222 58 71 76 108 52 108 -5 0 -10 -4 -10 -8z"/>
<path d="M4343 5972 c-12 -25 -34 -54 -119 -151 -17 -20 -69 -85 -114 -146
-67 -88 -80 -111 -66 -113 25 -5 60 31 212 219 74 92 141 172 149 179 26 22
18 40 -18 40 -26 0 -35 -6 -44 -28z"/>
<path d="M5120 5979 c0 -30 -18 -59 -37 -59 -34 0 -1 -14 42 -18 40 -3 46 -1
54 21 5 13 23 30 40 37 54 22 39 40 -34 40 -59 0 -65 -2 -65 -21z"/>
<path d="M5780 5974 c0 -15 -7 -35 -15 -44 -12 -14 -13 -21 -2 -43 15 -34 31
-34 45 -1 9 18 9 31 1 45 -5 11 -9 29 -7 41 2 12 -3 23 -9 25 -9 3 -13 -5 -13
-23z"/>
<path d="M4531 5912 c-25 -26 -84 -97 -131 -156 -47 -60 -103 -128 -124 -153
-35 -39 -38 -46 -24 -59 19 -20 61 -2 77 32 6 13 22 26 38 29 47 10 58 20 65
61 8 49 34 110 50 121 7 4 31 13 53 18 38 9 40 12 46 55 3 25 9 57 13 73 12
41 -10 34 -63 -21z"/>
<path d="M4839 5875 c-13 -14 -34 -30 -45 -35 -22 -9 -39 -67 -24 -83 24 -27
146 79 138 120 -5 28 -42 27 -69 -2z"/>
<path d="M800 5881 c0 -6 9 -11 20 -11 11 0 20 -4 20 -10 0 -5 -4 -10 -8 -10
-5 0 -37 -22 -71 -50 -34 -27 -66 -50 -71 -50 -5 0 -16 -3 -24 -6 -12 -5 -15
-2 -10 10 10 26 -25 31 -63 10 -45 -23 -107 -99 -99 -119 6 -17 36 -21 36 -5
0 6 7 10 16 10 13 0 13 -4 -3 -30 -19 -33 -47 -64 -77 -84 -16 -11 -17 -16 -7
-35 12 -22 13 -22 39 -5 81 52 248 209 269 252 8 17 21 32 29 32 7 0 21 8 31
18 36 35 81 42 224 33 100 -6 142 -12 161 -25 16 -10 40 -16 60 -14 29 3 33 7
36 33 3 30 3 30 -50 30 -29 0 -87 4 -128 9 -41 4 -120 9 -175 10 -55 2 -112 6
-127 10 -19 6 -28 4 -28 -3z"/>
<path d="M5015 5880 c3 -5 13 -10 21 -10 8 0 14 5 14 10 0 6 -9 10 -21 10 -11
0 -17 -4 -14 -10z"/>
<path d="M5015 5801 c-8 -15 3 -31 21 -31 9 0 14 7 12 17 -4 20 -24 28 -33 14z"/>
<path d="M1627 5766 c-79 -44 -87 -54 -62 -72 15 -12 39 -15 92 -12 39 2 75 6
78 10 4 4 0 17 -9 30 -9 12 -16 35 -16 50 0 35 -10 34 -83 -6z"/>
<path d="M4691 5685 c-20 -39 -27 -46 -46 -41 -19 5 -23 1 -28 -30 -6 -39 -33
-66 -89 -93 l-38 -18 39 -21 c29 -16 56 -22 104 -22 35 0 81 -7 100 -15 20 -8
51 -15 69 -15 34 0 71 18 53 26 -6 2 -9 33 -8 69 1 36 -1 65 -4 65 -10 0 -32
-35 -33 -52 0 -26 -40 -48 -87 -48 -49 0 -55 7 -59 66 -2 37 0 44 16 44 35 0
70 42 73 85 2 34 -1 40 -19 43 -15 2 -25 -8 -43 -43z"/>
<path d="M60 5686 c0 -8 14 -23 30 -33 17 -9 30 -22 30 -28 0 -15 38 -48 72
-63 35 -14 64 8 48 37 -6 12 -5 22 2 29 8 8 7 18 -5 35 -12 19 -28 26 -69 30
-83 10 -108 9 -108 -7z"/>
<path d="M4923 5678 c-23 -17 -32 -32 -36 -63 -7 -46 -2 -54 21 -37 9 7 27 16
39 22 35 15 46 45 27 75 -9 14 -17 25 -18 25 -1 0 -15 -10 -33 -22z"/>
<path d="M5810 5672 c0 -20 26 -41 39 -33 12 8 12 12 2 25 -14 17 -41 22 -41
8z"/>
<path d="M2975 5646 c-18 -13 -19 -29 -16 -342 1 -181 6 -362 12 -402 5 -40
11 -238 14 -440 4 -202 13 -440 21 -528 8 -89 14 -233 14 -320 1 -196 14 -360
30 -379 7 -8 24 -15 38 -15 13 0 43 -5 66 -11 103 -27 154 -39 191 -44 75 -12
93 -35 55 -70 -31 -28 -25 -45 14 -45 18 0 50 -7 69 -15 20 -8 49 -15 66 -15
16 0 42 -7 57 -15 16 -8 43 -15 60 -15 18 0 45 -7 60 -15 16 -8 43 -15 60 -15
18 0 45 -7 60 -15 16 -8 44 -15 62 -15 18 0 43 -5 55 -12 12 -6 42 -15 67 -19
51 -9 114 -24 180 -45 25 -8 59 -14 75 -14 17 0 36 -5 42 -11 6 -6 35 -14 64
-19 56 -9 119 -24 179 -43 19 -6 53 -14 75 -18 47 -9 116 -26 165 -42 19 -6
53 -14 75 -18 51 -10 117 -27 175 -45 25 -8 57 -14 71 -14 15 0 40 -7 55 -15
16 -8 45 -15 64 -15 19 -1 46 -7 60 -15 14 -8 40 -14 58 -15 18 0 43 -5 55
-12 12 -6 42 -15 67 -19 48 -8 113 -24 170 -42 19 -6 53 -14 75 -18 51 -10
117 -27 175 -45 25 -8 59 -14 75 -14 17 -1 41 -7 55 -15 14 -8 38 -14 53 -15
16 0 42 -8 58 -17 36 -22 59 -10 75 36 17 53 47 59 113 25 14 -8 38 -14 52
-14 15 0 43 -7 62 -15 20 -8 51 -15 69 -15 18 -1 44 -7 58 -15 14 -8 33 -14
44 -15 10 0 35 -13 56 -30 21 -17 42 -30 47 -30 27 0 42 42 57 160 9 69 21
159 27 200 6 41 15 111 19 155 8 81 22 186 42 325 5 41 14 111 18 155 12 116
29 251 41 320 6 34 14 99 19 145 8 87 20 186 45 370 8 58 16 128 19 155 6 64
23 199 43 341 8 62 16 155 17 208 1 95 1 96 -31 127 -34 34 -134 68 -203 69
-19 0 -51 5 -70 10 -19 6 -64 15 -100 19 -36 5 -90 14 -120 19 -129 25 -188
36 -240 43 -94 12 -192 30 -257 45 -34 8 -76 14 -95 14 -18 0 -49 5 -68 10
-19 6 -66 15 -105 20 -38 5 -95 13 -125 19 -30 5 -84 15 -120 22 -36 7 -90 16
-120 20 -73 9 -178 27 -268 45 -40 8 -90 14 -112 14 -21 0 -49 4 -62 10 -13 5
-59 14 -103 19 -89 11 -220 32 -340 55 -44 8 -109 20 -145 26 -36 6 -85 15
-110 21 -25 6 -72 15 -105 19 -85 12 -192 29 -250 42 -27 6 -77 15 -110 19
-157 22 -213 31 -243 40 -18 6 -58 13 -90 16 -31 3 -76 11 -100 19 -23 8 -59
14 -80 14 -20 0 -59 7 -86 15 -64 19 -215 20 -241 1z m181 -151 c16 -8 47 -15
69 -15 22 0 58 -7 80 -15 22 -8 60 -14 85 -15 25 0 63 -7 85 -15 22 -8 58 -14
80 -15 22 0 62 -7 89 -15 27 -8 68 -15 90 -15 23 0 59 -7 81 -15 22 -8 60 -14
85 -15 25 0 67 -7 94 -15 27 -8 66 -15 86 -15 21 0 57 -7 80 -15 23 -8 65 -15
92 -15 27 0 58 -5 70 -11 11 -6 52 -15 92 -19 39 -5 96 -14 126 -20 135 -27
169 -33 225 -40 73 -9 175 -27 235 -42 25 -6 74 -14 110 -19 74 -9 164 -25
230 -40 44 -10 163 -31 285 -49 33 -5 76 -13 95 -19 19 -6 54 -11 78 -11 24 0
52 -5 62 -10 11 -6 47 -13 82 -16 35 -3 74 -10 89 -15 14 -5 56 -14 95 -19 96
-13 191 -29 244 -42 25 -5 72 -14 105 -18 59 -8 111 -17 250 -46 39 -8 91 -14
118 -14 l47 0 0 -40 c0 -21 -6 -59 -14 -82 -8 -24 -17 -72 -19 -108 -5 -70
-19 -204 -42 -395 -9 -66 -15 -140 -15 -165 0 -25 -5 -61 -10 -81 -6 -20 -15
-85 -20 -145 -5 -60 -14 -131 -19 -159 -6 -27 -10 -75 -10 -105 -1 -30 -5 -71
-11 -90 -5 -19 -14 -84 -19 -145 -9 -103 -15 -152 -42 -334 -11 -77 -26 -242
-36 -388 -5 -82 -5 -83 -32 -83 -14 0 -38 6 -53 14 -14 8 -46 17 -70 21 -24 3
-52 10 -63 15 -29 13 -110 30 -182 40 -35 4 -68 12 -75 18 -20 15 -71 23 -87
13 -15 -10 7 -17 104 -39 55 -12 101 -35 95 -47 -3 -6 -39 -9 -82 -8 -76 2
-77 2 -65 -18 6 -11 22 -22 35 -25 12 -4 22 -10 22 -15 0 -12 -67 -12 -74 0
-3 4 -28 11 -56 14 -28 3 -56 10 -63 14 -13 9 -91 28 -177 44 -30 5 -59 14
-64 20 -6 5 -25 9 -43 9 -18 0 -52 6 -75 14 -24 8 -59 17 -78 21 -19 4 -39 10
-45 14 -5 3 -35 11 -65 18 -113 24 -156 34 -175 43 -11 5 -40 12 -65 16 -25 3
-49 10 -55 14 -5 5 -32 13 -60 19 -68 14 -166 39 -171 43 -2 2 20 5 49 5 34 1
58 -4 69 -14 11 -10 28 -13 45 -10 15 3 38 0 52 -5 15 -6 55 -17 91 -24 150
-30 175 -36 193 -46 11 -5 36 -10 55 -10 20 0 45 -6 56 -14 11 -8 34 -14 51
-14 17 0 40 -7 51 -15 11 -8 41 -14 72 -15 35 0 54 -5 58 -14 3 -8 29 -16 67
-20 33 -3 66 -11 71 -16 6 -6 28 -10 50 -10 25 0 36 4 31 9 -16 16 -135 52
-189 58 -28 3 -58 12 -66 19 -9 7 -43 16 -75 20 -33 4 -66 12 -74 18 -7 5 -28
9 -45 8 -20 -2 -38 3 -45 12 -8 9 -26 16 -42 16 -16 0 -52 9 -81 20 -29 11
-63 20 -74 20 -12 0 -27 7 -34 15 -7 8 -19 15 -26 15 -8 0 -14 5 -14 10 0 11
23 14 33 4 6 -7 76 -16 131 -18 16 -1 31 5 33 12 3 8 -7 12 -34 12 -21 0 -51
7 -68 16 -16 9 -48 20 -70 25 -22 4 -76 17 -120 29 -44 13 -100 26 -125 30
-47 9 -112 25 -167 41 -18 6 -54 14 -80 19 -104 18 -169 33 -200 46 -17 8 -42
14 -56 14 -13 0 -44 7 -67 15 -23 8 -62 15 -86 15 -23 0 -45 4 -48 9 -3 5 -32
12 -63 16 -32 4 -63 11 -70 17 -7 5 -34 10 -62 11 -28 1 -56 8 -63 15 -6 6
-28 12 -48 12 -19 0 -48 7 -65 16 -16 8 -49 18 -74 21 -25 3 -56 12 -71 20
-14 7 -39 13 -57 13 -17 0 -34 4 -38 9 -3 5 -36 13 -73 16 -37 4 -72 11 -78
16 -6 5 -33 12 -60 15 -27 4 -54 10 -59 15 -6 4 -35 13 -65 18 -155 30 -170
35 -170 56 1 84 -13 491 -16 497 -2 4 -9 186 -14 405 -6 219 -14 443 -20 498
-5 55 -10 206 -10 335 0 129 -5 268 -10 309 -13 97 -5 108 56 76z m354 -2262
c13 -12 13 -15 0 -23 -8 -5 -23 -10 -34 -10 -25 0 -97 41 -90 52 8 13 107 -2
124 -19z m253 -56 c12 -8 40 -15 62 -16 21 -1 44 -6 50 -10 5 -5 36 -12 67
-15 32 -4 60 -11 63 -16 3 -4 33 -11 67 -15 35 -4 68 -11 73 -15 13 -10 108
-36 162 -45 41 -6 68 -24 41 -26 -39 -4 -123 4 -126 12 -2 5 -14 9 -26 9 -12
0 -55 11 -96 25 -41 13 -85 25 -97 25 -12 0 -25 5 -28 10 -3 6 -18 10 -33 10
-15 0 -39 6 -54 14 -14 8 -46 17 -70 21 -24 3 -52 10 -63 15 -11 4 -36 12 -55
18 l-35 10 38 1 c21 1 48 -5 60 -12z m-96 -41 c38 -8 82 -20 98 -27 17 -6 52
-17 78 -23 26 -6 48 -16 47 -21 -1 -12 -66 -9 -95 3 -29 13 -143 42 -194 50
-49 8 -69 32 -27 32 13 0 55 -6 93 -14z m348 -96 c7 -11 -5 -13 -45 -10 -45 3
-47 20 -3 20 23 0 45 -4 48 -10z m175 -29 c0 -15 150 -26 172 -12 10 6 26 11
35 11 17 -1 16 -2 -1 -15 -18 -14 -19 -16 -2 -34 24 -26 7 -34 -46 -20 -24 6
-66 14 -94 19 -28 4 -61 13 -72 19 -11 6 -45 14 -76 17 -83 10 -78 24 8 24 42
0 76 -4 76 -9z m334 -77 c121 -38 116 -38 137 -15 23 25 52 27 73 5 9 -9 37
-16 69 -18 29 -1 59 -6 66 -10 21 -13 -8 -37 -43 -35 -17 1 -48 -2 -70 -6 -37
-7 -38 -7 -31 15 7 22 6 23 -41 16 -64 -10 -116 -8 -128 4 -6 6 -25 10 -43 10
-17 0 -45 5 -60 12 -37 16 -36 15 -28 27 9 15 39 14 99 -5z m446 -74 c0 -13
-9 -22 -26 -26 -34 -9 -50 8 -29 30 23 23 55 21 55 -4z m-90 -30 c0 -5 -16
-10 -36 -10 -21 0 -33 4 -29 10 3 6 19 10 36 10 16 0 29 -4 29 -10z m1778
-333 c4 -21 -25 -34 -40 -19 -8 8 -8 16 2 27 16 19 34 15 38 -8z"/>
<path d="M3206 5351 c-26 -5 -27 -7 -13 -20 14 -11 20 -11 32 -1 35 29 61 -16
29 -52 -20 -22 -13 -25 66 -32 65 -6 158 -25 180 -36 20 -10 46 9 51 35 3 11
12 21 22 23 13 3 17 -3 17 -27 0 -18 -5 -31 -12 -31 -7 0 -8 -3 -3 -9 6 -5 39
-12 73 -15 62 -7 64 -6 57 14 -9 28 12 55 31 39 18 -15 18 -34 -2 -50 -14 -11
-14 -14 -1 -24 8 -6 17 -22 20 -35 4 -23 4 -23 6 4 1 27 3 28 39 22 20 -3 47
-6 60 -6 17 0 26 -9 34 -32 12 -33 12 -33 18 -8 5 18 12 24 26 22 10 -2 37 -6
59 -9 22 -3 44 -9 50 -14 5 -5 30 -9 56 -9 74 0 90 -44 19 -53 -30 -3 -28 -4
13 -5 44 -2 47 0 47 23 0 32 28 45 45 22 7 -10 25 -17 42 -17 54 0 68 -49 14
-51 -22 -1 -21 -2 9 -9 37 -9 50 -1 50 33 0 18 34 24 45 7 3 -5 21 -10 39 -10
37 0 72 -22 62 -38 -4 -7 -26 -13 -49 -14 l-42 -1 40 -4 c22 -2 45 -11 52 -20
17 -22 30 -9 25 26 -5 33 16 50 40 34 7 -4 36 -12 63 -18 50 -10 50 -10 48
-46 -3 -43 17 -53 82 -41 l40 7 -45 5 c-35 4 -46 9 -48 25 -1 11 2 27 8 35 8
12 13 13 30 2 11 -7 42 -15 68 -19 77 -10 117 -63 47 -63 -19 0 -35 -4 -35
-10 0 -5 23 -10 51 -10 46 0 50 2 44 20 -9 29 12 52 35 40 10 -6 31 -10 47
-10 48 0 108 -26 108 -47 0 -15 -10 -18 -63 -21 -53 -3 -63 -6 -60 -20 2 -9
11 -17 21 -16 9 0 39 1 66 2 l50 2 3 38 c3 32 7 37 31 40 16 2 36 -3 45 -11
10 -8 51 -17 97 -21 44 -4 84 -11 90 -15 5 -5 40 -11 78 -15 37 -4 77 -11 90
-15 12 -5 58 -17 102 -26 44 -9 87 -19 95 -23 8 -3 33 -6 55 -7 35 -2 114 -14
198 -31 27 -6 28 -4 25 28 -3 30 0 33 25 36 22 3 27 -1 27 -19 0 -12 -7 -30
-15 -40 -15 -15 -12 -17 42 -24 32 -4 71 -14 87 -22 18 -9 53 -15 84 -14 30 0
71 -3 91 -8 20 -5 61 -11 91 -13 55 -3 55 -3 52 25 -3 20 1 27 13 27 13 0 16
-6 13 -25 -6 -31 -4 -33 69 -46 32 -6 67 -16 78 -23 23 -15 115 -27 115 -16 0
4 -7 11 -16 14 -16 6 -15 25 2 70 5 12 0 16 -23 16 -16 0 -64 9 -106 20 -42
11 -91 20 -109 19 -18 -1 -53 6 -77 15 -54 21 -128 18 -122 -4 8 -33 5 -44
-13 -48 -29 -6 -42 14 -23 36 35 38 24 45 -88 57 -33 4 -65 11 -72 16 -6 6
-35 12 -65 14 -29 1 -61 6 -70 10 -13 5 -21 -2 -35 -34 -17 -39 -35 -52 -47
-32 -10 15 12 61 29 61 8 0 15 4 15 9 0 5 -26 12 -57 16 -32 3 -83 12 -114 20
-30 8 -69 15 -87 15 -17 0 -57 7 -89 15 -31 8 -74 15 -94 15 -20 0 -53 7 -72
15 -37 15 -108 20 -120 8 -4 -3 0 -15 9 -24 16 -17 16 -19 0 -25 -28 -11 -43
2 -38 34 5 38 -8 46 -85 48 -34 2 -72 8 -84 15 -12 6 -52 14 -88 17 -36 2 -71
9 -78 14 -6 5 -44 12 -85 15 -40 3 -79 10 -86 16 -7 5 -45 12 -85 15 -39 2
-78 9 -85 15 -7 5 -45 12 -85 15 -39 2 -78 9 -85 15 -19 15 -152 22 -152 8 0
-18 45 -31 84 -24 24 4 44 0 60 -11 16 -10 46 -16 79 -16 31 0 61 -6 73 -15
12 -9 43 -14 84 -15 44 0 77 -6 100 -19 23 -12 48 -17 75 -14 45 5 119 -21
112 -40 -5 -16 -38 -22 -46 -8 -4 6 -40 15 -81 22 -41 6 -83 15 -92 20 -10 5
-41 9 -69 9 -27 0 -59 4 -69 10 -10 5 -44 12 -76 15 -33 2 -89 13 -125 24 -38
11 -72 15 -80 11 -14 -9 -49 5 -61 24 -4 6 -5 21 -2 32 5 20 0 23 -45 29 -27
4 -55 4 -61 0 -6 -4 -21 0 -34 8 -13 9 -52 19 -87 22 -35 4 -75 10 -89 15 -14
5 -49 11 -77 15 l-53 6 0 -31 c0 -20 -5 -30 -15 -30 -10 0 -15 10 -15 34 0 38
-3 40 -82 51 -32 4 -49 2 -54 -6 -4 -7 -2 -15 4 -17 7 -2 12 -10 12 -18 0 -11
-8 -14 -27 -12 -23 2 -29 9 -31 33 -5 41 -10 45 -78 49 -33 2 -85 12 -117 21
-70 20 -100 14 -91 -21 5 -21 3 -24 -20 -24 -27 0 -34 18 -16 36 21 21 -49 53
-94 45z m222 -68 c-4 -20 -35 -30 -50 -15 -15 15 0 32 28 32 19 0 25 -5 22
-17z m70 -31 c2 -7 -3 -12 -12 -12 -9 0 -16 7 -16 16 0 17 22 14 28 -4z m417
-67 c0 -22 -22 -30 -44 -16 -21 14 -5 43 21 39 15 -2 23 -10 23 -23z m93 -23
c3 -9 -2 -13 -14 -10 -9 1 -19 9 -22 16 -3 9 2 13 14 10 9 -1 19 -9 22 -16z
m62 -7 c-12 -15 -30 -12 -30 6 0 5 10 9 21 9 18 0 19 -2 9 -15z m118 -23 c2
-7 -6 -12 -17 -12 -21 0 -27 11 -14 24 9 9 26 2 31 -12z m902 -158 c0 -16 -16
-19 -25 -4 -8 13 4 32 16 25 5 -4 9 -13 9 -21z m90 -20 c0 -8 -7 -14 -15 -14
-15 0 -21 21 -9 33 10 9 24 -2 24 -19z m255 -34 c0 -8 -10 -16 -22 -18 -22 -3
-32 16 -16 32 12 11 38 2 38 -14z m100 -20 c11 -17 -5 -32 -21 -19 -7 6 -11
15 -8 20 7 12 21 11 29 -1z m66 -33 c-16 -16 -26 0 -10 19 9 11 15 12 17 4 2
-6 -1 -17 -7 -23z m107 -9 c3 -13 -3 -18 -22 -18 -20 0 -26 5 -26 21 0 15 5
20 22 17 13 -2 24 -11 26 -20z m92 8 c0 -22 -35 -60 -48 -52 -13 8 -16 48 -5
59 12 13 53 7 53 -7z m76 -27 c3 -6 0 -17 -7 -25 -18 -17 -44 -2 -36 20 7 18
33 21 43 5z m291 -55 c8 -21 -13 -42 -28 -27 -13 13 -5 43 11 43 6 0 13 -7 17
-16z m83 -15 c16 -29 5 -51 -22 -47 -18 2 -24 11 -26 36 -3 27 0 32 17 32 11
0 25 -9 31 -21z m185 -28 c0 -7 -10 -20 -22 -28 -20 -14 -23 -14 -29 1 -10 26
4 48 28 44 13 -2 23 -9 23 -17z m301 -52 c10 -17 -13 -36 -27 -22 -12 12 -4
33 11 33 5 0 12 -5 16 -11z"/>
<path d="M3404 5164 c-6 -3 -9 -16 -6 -29 3 -19 12 -26 41 -30 20 -4 46 -8 59
-11 17 -3 22 0 22 16 0 16 -7 20 -36 20 -27 0 -35 4 -31 14 8 19 -22 31 -49
20z"/>
<path d="M3563 5119 c4 -15 0 -23 -14 -26 -29 -8 -23 -23 10 -23 26 0 30 3 28
27 -2 21 4 28 23 34 21 6 19 7 -14 8 -34 1 -38 -1 -33 -20z"/>
<path d="M5460 5044 c0 -17 22 -14 28 4 2 7 -3 12 -12 12 -9 0 -16 -7 -16 -16z"/>
<path d="M3660 5040 c0 -13 20 -13 40 0 12 8 9 10 -12 10 -16 0 -28 -4 -28
-10z"/>
<path d="M3600 4997 c0 -19 16 -31 24 -18 3 5 -1 14 -9 21 -12 10 -15 10 -15
-3z"/>
<path d="M3860 4980 c0 -13 5 -20 13 -17 6 2 12 10 12 17 0 7 -6 15 -12 18 -8
2 -13 -5 -13 -18z"/>
<path d="M3678 4963 c12 -2 30 -2 40 0 9 3 -1 5 -23 4 -22 0 -30 -2 -17 -4z"/>
<path d="M3960 4951 c0 -23 55 -34 71 -15 16 20 1 34 -37 34 -27 0 -34 -4 -34
-19z"/>
<path d="M4557 4964 c-3 -4 -4 -11 -1 -15 7 -12 54 -11 54 1 0 6 -4 10 -9 10
-5 0 -16 2 -23 5 -8 3 -17 3 -21 -1z"/>
<path d="M4073 4930 c4 -18 7 -41 7 -51 0 -11 5 -19 10 -19 6 0 10 12 10 26 0
24 1 25 48 18 26 -3 62 -17 80 -31 l32 -24 10 27 c6 15 9 32 7 38 -2 6 -37 16
-78 23 -41 6 -87 15 -103 19 -28 7 -29 6 -23 -26z"/>
<path d="M4370 4895 c0 -8 7 -15 15 -15 8 0 15 7 15 15 0 8 -7 15 -15 15 -8 0
-15 -7 -15 -15z"/>
<path d="M4500 4885 c0 -3 7 -16 15 -29 22 -33 0 -51 -47 -38 -18 4 -44 5 -58
2 -15 -4 -37 -1 -53 7 -32 16 -79 14 -84 -3 -4 -11 63 -26 123 -28 11 -1 27
-6 35 -12 8 -7 37 -14 64 -17 86 -10 230 -39 233 -48 2 -5 31 -9 65 -9 39 -1
69 -6 81 -15 11 -8 40 -15 65 -15 24 0 70 -6 100 -14 31 -8 68 -17 84 -21 22
-4 27 -11 27 -36 0 -28 -3 -31 -22 -24 -52 16 -113 25 -130 19 -11 -3 -30 1
-43 10 -13 9 -40 16 -59 16 -19 0 -47 5 -63 12 -26 11 -71 19 -253 47 -36 5
-78 14 -93 20 -16 6 -41 11 -57 11 -17 0 -33 7 -39 18 -8 13 -12 14 -19 4 -5
-8 -25 -12 -50 -11 -41 3 -68 -7 -41 -14 70 -20 112 -30 155 -37 28 -4 62 -13
74 -20 13 -7 49 -14 79 -15 31 -2 74 -8 96 -13 22 -6 65 -16 95 -22 30 -6 75
-15 100 -21 25 -5 65 -12 90 -14 93 -7 171 -22 182 -33 7 -7 28 -12 49 -12 20
0 57 -3 83 -6 44 -6 46 -8 46 -40 0 -41 17 -54 22 -17 3 26 6 28 57 31 41 2
57 -1 63 -12 7 -12 26 -16 82 -16 59 0 75 -3 80 -16 5 -13 16 -16 57 -12 36 4
67 0 103 -13 28 -11 69 -19 92 -19 24 0 47 -6 53 -14 14 -17 173 -27 168 -11
-2 6 -26 12 -54 15 -28 3 -57 10 -64 16 -12 10 -53 18 -144 28 -11 2 -27 5
-35 8 -8 4 -46 9 -83 13 -38 3 -79 12 -90 20 -12 7 -43 17 -69 20 -51 8 -74
25 -64 50 4 11 21 15 65 15 61 0 88 13 48 24 -12 3 -38 6 -58 6 -19 0 -44 7
-55 15 -10 8 -37 14 -59 15 -22 0 -69 6 -105 14 -109 25 -172 37 -250 47 -41
5 -84 14 -95 19 -11 4 -40 11 -64 13 -24 3 -47 10 -50 15 -3 5 -44 12 -91 16
-47 4 -89 11 -94 16 -6 6 -24 10 -40 10 -17 0 -48 3 -68 6 -36 6 -37 8 -40 53
-3 39 -6 46 -25 49 -13 2 -23 1 -23 -3z m728 -268 c27 -28 15 -50 -24 -45 -29
3 -41 25 -30 54 8 21 29 17 54 -9z m82 -14 c8 -13 13 -14 16 -5 14 33 104 -4
104 -43 0 -28 0 -28 -95 -12 -53 10 -71 17 -73 30 -9 43 26 64 48 30z"/>
<path d="M4430 4855 c0 -8 4 -15 9 -15 5 0 14 7 21 15 10 13 9 15 -9 15 -12 0
-21 -6 -21 -15z"/>
<path d="M4674 4859 c-3 -6 -1 -16 5 -22 8 -8 11 -5 11 11 0 24 -5 28 -16 11z"/>
<path d="M5125 4830 c-10 -17 22 -23 83 -15 43 6 52 9 37 16 -29 11 -113 11
-120 -1z"/>
<path d="M4827 4824 c-10 -11 3 -24 24 -24 10 0 19 7 19 15 0 15 -31 21 -43 9z"/>
<path d="M5360 4801 c0 -10 51 -22 63 -14 4 2 5 9 2 14 -8 12 -65 12 -65 0z"/>
<path d="M3665 4790 c-8 -13 20 -24 41 -16 20 8 9 26 -16 26 -10 0 -22 -5 -25
-10z"/>
<path d="M3220 4780 c0 -5 10 -12 23 -14 12 -3 52 -12 88 -20 36 -9 75 -16 87
-16 30 0 155 -41 165 -54 4 -6 4 -35 1 -63 -5 -46 -4 -53 11 -53 15 0 17 7 13
44 -3 25 0 57 8 76 17 39 11 50 -25 50 -15 0 -31 4 -37 10 -5 5 -50 14 -99 19
-50 5 -108 14 -130 20 -50 13 -105 14 -105 1z"/>
<path d="M4935 4780 c-18 -8 -17 -9 8 -9 16 -1 26 3 22 9 -3 6 -7 10 -8 9 -1
0 -11 -4 -22 -9z"/>
<path d="M5505 4770 c-4 -6 5 -10 19 -10 14 0 26 5 26 10 0 6 -9 10 -19 10
-11 0 -23 -4 -26 -10z"/>
<path d="M5267 4734 c-16 -17 -4 -24 38 -24 25 0 45 4 45 10 0 5 -10 9 -22 9
-13 -1 -30 1 -39 5 -8 4 -18 3 -22 0z"/>
<path d="M3846 4705 c-11 -8 -28 -15 -37 -15 -10 0 -20 -3 -23 -8 -2 -4 19 -7
47 -6 31 1 52 7 51 13 -3 37 -8 39 -38 16z"/>
<path d="M3702 4680 c-12 -32 0 -47 29 -34 l21 10 -20 24 -21 25 -9 -25z"/>
<path d="M5596 4661 c9 -10 41 -14 84 -12 20 1 22 3 10 11 -19 13 -107 13 -94
1z"/>
<path d="M5740 4631 c0 -14 28 -20 83 -19 29 1 46 5 44 12 -5 14 -127 21 -127
7z"/>
<path d="M5930 4601 c0 -5 9 -12 19 -16 10 -3 21 -15 24 -27 5 -18 8 -19 21
-9 10 9 29 11 53 7 62 -11 102 -12 105 -1 2 6 -25 11 -62 13 -35 2 -71 9 -80
16 -20 18 -80 31 -80 17z"/>
<path d="M4270 4590 c0 -5 6 -10 13 -10 8 0 22 -9 32 -20 10 -11 22 -17 26
-14 5 3 14 2 20 -2 7 -4 2 -11 -13 -18 -13 -7 -24 -22 -26 -36 -2 -22 -1 -23
8 -7 14 22 111 24 129 3 8 -9 42 -15 101 -18 51 -2 95 -9 102 -16 7 -7 31 -12
54 -12 25 0 47 -6 54 -15 9 -11 33 -15 85 -15 58 0 74 -3 79 -16 5 -14 17 -15
79 -9 39 3 119 6 176 5 83 -2 102 1 99 12 -3 9 -28 14 -79 16 -50 2 -78 7 -85
17 -8 10 -33 15 -82 17 -48 1 -73 6 -76 15 -4 9 -25 13 -64 13 -36 0 -66 6
-78 15 -11 8 -41 14 -72 15 -30 0 -63 7 -76 15 -16 11 -49 16 -100 17 -51 0
-79 5 -87 14 -7 9 -32 14 -66 14 -38 0 -55 4 -59 15 -7 17 -94 22 -94 5z"/>
<path d="M3694 4569 c-3 -6 -2 -15 4 -21 13 -13 32 -2 32 18 0 16 -26 19 -36
3z"/>
<path d="M5816 4532 c-8 -13 18 -22 66 -22 27 0 38 4 36 13 -5 14 -94 22 -102
9z"/>
<path d="M6230 4531 c0 -9 70 -21 83 -14 4 2 5 9 2 14 -8 12 -85 12 -85 0z"/>
<path d="M3740 4491 c0 -15 8 -21 33 -23 26 -2 33 -8 35 -29 3 -22 10 -28 35
-32 41 -6 49 2 41 41 -6 28 -11 32 -38 32 -18 0 -41 7 -52 15 -27 21 -54 19
-54 -4z"/>
<path d="M6360 4500 c0 -5 20 -10 45 -10 25 0 48 0 52 -1 4 0 9 4 11 10 2 7
-17 11 -52 11 -31 0 -56 -4 -56 -10z"/>
<path d="M6534 4471 c4 -5 25 -12 49 -16 55 -9 67 -20 67 -61 0 -19 5 -34 10
-34 6 0 10 13 10 29 0 16 6 31 15 35 8 3 15 14 15 24 0 15 -10 21 -46 26 -67
9 -126 7 -120 -3z"/>
<path d="M3565 4439 c-4 -6 -4 -13 -1 -16 3 -3 1 -12 -5 -19 -9 -10 -7 -15 4
-20 31 -11 52 0 48 26 -4 35 -32 52 -46 29z"/>
<path d="M3695 4400 c-9 -27 1 -37 23 -24 22 14 22 38 0 42 -10 2 -19 -5 -23
-18z"/>
<path d="M4302 4380 c15 -11 33 -17 42 -14 9 3 22 1 30 -5 8 -7 37 -14 66 -18
44 -5 51 -9 47 -24 -7 -26 11 -34 32 -15 24 22 109 16 127 -9 12 -16 14 -17
20 -2 8 22 33 22 40 0 19 -59 25 -63 86 -63 43 0 60 -4 64 -15 5 -11 22 -15
65 -15 59 0 69 6 47 28 -9 9 -9 12 3 14 7 0 19 2 24 3 6 2 16 3 23 4 7 0 10 6
7 11 -3 6 -27 10 -53 10 -26 0 -60 7 -76 15 -17 9 -54 16 -84 16 -34 1 -55 6
-58 14 -3 7 -29 16 -57 20 -29 4 -57 12 -64 17 -7 5 -17 7 -22 3 -16 -9 -91
14 -98 31 -4 11 -9 12 -18 4 -13 -10 -68 -9 -179 6 l-40 5 26 -21z"/>
<path d="M5540 4386 c0 -8 -3 -21 -6 -30 -4 -12 0 -16 15 -16 23 0 24 3 15 38
-7 24 -24 30 -24 8z"/>
<path d="M5305 4381 c3 -5 31 -13 62 -17 31 -3 66 -12 79 -19 26 -13 77 -9 68
6 -3 5 -22 9 -44 9 -24 0 -40 5 -44 15 -4 11 -21 15 -66 15 -35 0 -59 -4 -55
-9z"/>
<path d="M6130 4370 c0 -5 12 -10 26 -10 14 0 23 4 19 10 -3 6 -15 10 -26 10
-10 0 -19 -4 -19 -10z"/>
<path d="M5720 4335 c0 -28 15 -34 24 -9 10 25 7 34 -9 34 -9 0 -15 -9 -15
-25z"/>
<path d="M6328 4333 c12 -2 30 -2 40 0 9 3 -1 5 -23 4 -22 0 -30 -2 -17 -4z"/>
<path d="M4313 4314 c-4 -11 1 -22 12 -30 28 -21 41 0 16 25 -19 19 -22 20
-28 5z"/>
<path d="M5622 4321 c-10 -6 -4 -10 18 -15 35 -6 54 0 45 15 -8 11 -45 12 -63
0z"/>
<path d="M6696 4321 c-3 -5 1 -15 10 -22 13 -10 17 -10 25 2 5 8 9 17 9 22 0
10 -38 9 -44 -2z"/>
<path d="M4420 4300 c0 -5 9 -10 20 -10 11 0 20 5 20 10 0 6 -9 10 -20 10 -11
0 -20 -4 -20 -10z"/>
<path d="M5997 4290 c-4 -16 -14 -20 -51 -20 -32 0 -48 5 -52 15 -5 11 -23 15
-77 15 -42 0 -67 -4 -61 -9 12 -12 114 -32 192 -38 l62 -5 0 31 c0 36 -5 40
-13 11z"/>
<path d="M3857 4294 c-5 -6 -4 -11 9 -51 5 -16 6 -16 14 -2 16 27 -4 72 -23
53z"/>
<path d="M6150 4267 c0 -22 -5 -27 -25 -27 -14 0 -25 -4 -25 -10 0 -13 33 -13
46 0 6 6 38 11 72 12 86 2 79 28 -7 28 -20 0 -42 5 -49 12 -9 9 -12 6 -12 -15z"/>
<path d="M4575 4270 c-3 -5 3 -10 14 -10 12 0 21 5 21 10 0 6 -6 10 -14 10 -8
0 -18 -4 -21 -10z"/>
<path d="M4080 4205 c0 -19 5 -35 10 -35 6 0 10 16 10 35 0 19 -4 35 -10 35
-5 0 -10 -16 -10 -35z"/>
<path d="M5071 4186 c10 -9 79 -14 79 -5 0 5 -19 9 -42 9 -23 0 -39 -2 -37 -4z"/>
<path d="M3720 4166 c6 -8 18 -12 26 -9 19 7 7 23 -18 23 -17 0 -18 -3 -8 -14z"/>
<path d="M4464 4165 c-4 -9 -19 -15 -35 -15 -16 0 -29 -4 -29 -10 0 -5 6 -10
14 -10 8 0 21 -3 29 -6 17 -6 47 21 47 42 0 19 -19 18 -26 -1z"/>
<path d="M5162 4159 c3 -10 25 -15 74 -17 89 -4 75 17 -16 25 -51 5 -62 3 -58
-8z"/>
<path d="M3520 4135 c-13 -15 -14 -14 35 -30 11 -3 15 3 15 20 0 29 -30 35
-50 10z"/>
<path d="M4617 4143 c-12 -11 -8 -22 15 -34 18 -10 24 -8 35 7 7 10 13 21 13
26 0 10 -54 11 -63 1z"/>
<path d="M5310 4131 c0 -11 25 -21 56 -21 27 0 32 15 8 24 -24 9 -64 7 -64 -3z"/>
<path d="M3860 4100 c0 -11 5 -20 10 -20 6 0 10 9 10 20 0 11 -4 20 -10 20 -5
0 -10 -9 -10 -20z"/>
<path d="M4520 4110 c0 -5 14 -10 30 -10 17 0 30 5 30 10 0 6 -13 10 -30 10
-16 0 -30 -4 -30 -10z"/>
<path d="M4720 4111 c0 -12 19 -18 84 -27 47 -6 48 -6 37 15 -10 17 -21 21
-66 21 -30 0 -55 -4 -55 -9z"/>
<path d="M3636 4101 c-5 -7 -19 -16 -32 -21 -39 -15 -28 -27 34 -33 31 -4 67
-10 80 -13 13 -4 22 -2 22 4 0 6 -18 16 -41 22 -25 7 -43 19 -48 32 -5 15 -10
18 -15 9z"/>
<path d="M5434 4101 c-2 -2 -4 -11 -4 -19 0 -10 4 -12 13 -4 6 5 38 8 69 6 32
-2 60 1 63 6 5 8 -133 19 -141 11z"/>
<path d="M4875 4080 c-4 -6 11 -10 37 -10 31 0 39 3 28 10 -20 13 -57 13 -65
0z"/>
<path d="M5622 4068 c3 -8 24 -14 52 -16 36 -2 47 0 44 10 -3 8 -24 14 -52 16
-36 2 -47 0 -44 -10z"/>
<path d="M3513 4000 c0 -30 2 -43 4 -27 2 15 2 39 0 55 -2 15 -4 2 -4 -28z"/>
<path d="M4460 4030 c0 -5 6 -10 14 -10 8 0 18 5 21 10 3 6 -3 10 -14 10 -12
0 -21 -4 -21 -10z"/>
<path d="M5763 4034 c11 -11 76 -14 82 -3 4 5 -14 9 -41 9 -26 0 -44 -3 -41
-6z"/>
<path d="M5865 4030 c3 -5 17 -10 31 -10 13 0 24 5 24 10 0 6 -14 10 -31 10
-17 0 -28 -4 -24 -10z"/>
<path d="M3862 3995 c0 -19 4 -38 9 -41 5 -3 9 13 9 35 0 23 -4 41 -9 41 -5 0
-9 -16 -9 -35z"/>
<path d="M3760 3996 c0 -14 5 -26 10 -26 6 0 10 9 10 19 0 11 -4 23 -10 26 -6
4 -10 -5 -10 -19z"/>
<path d="M4523 4006 c2 -7 34 -12 83 -13 71 -3 77 -2 60 12 -24 18 -149 19
-143 1z"/>
<path d="M5932 4008 c5 -15 88 -24 88 -10 0 11 -34 22 -68 22 -15 0 -22 -5
-20 -12z"/>
<path d="M4200 3982 c0 -26 11 -34 27 -21 20 17 16 39 -7 39 -13 0 -20 -7 -20
-18z"/>
<path d="M4707 3984 c-35 -10 -5 -24 53 -24 42 0 59 -4 64 -15 4 -11 21 -15
66 -15 45 0 62 -4 66 -15 5 -11 22 -15 65 -15 32 0 59 4 59 9 0 12 -125 44
-195 49 -33 2 -65 8 -70 13 -14 11 -85 19 -108 13z"/>
<path d="M6086 3970 c7 -7 19 -7 35 -1 23 9 22 10 -10 10 -24 1 -32 -2 -25 -9z"/>
<path d="M6190 3970 c19 -13 30 -13 30 0 0 6 -10 10 -22 10 -19 0 -20 -2 -8
-10z"/>
<path d="M6250 3940 c0 -11 31 -11 75 0 26 7 22 8 -22 9 -30 0 -53 -3 -53 -9z"/>
<path d="M4270 3930 c0 -5 8 -14 18 -19 14 -8 10 -10 -21 -11 -64 0 -40 -25
28 -28 32 -2 67 -10 79 -18 11 -7 41 -14 66 -14 25 0 54 -7 64 -15 12 -9 42
-15 77 -15 38 0 61 -5 69 -15 9 -10 32 -15 75 -15 47 0 64 -4 69 -15 4 -11 21
-15 64 -15 41 0 64 -5 72 -15 15 -18 135 -21 146 -4 4 7 24 9 56 6 36 -5 48
-3 45 6 -2 7 -25 15 -52 18 -27 3 -51 11 -53 17 -2 7 -24 12 -53 12 -27 0 -60
6 -72 14 -12 8 -59 17 -104 21 -53 5 -83 12 -87 20 -3 9 -17 12 -43 8 -28 -4
-42 -1 -52 11 -10 11 -31 16 -73 16 -43 0 -60 4 -64 15 -5 11 -23 15 -75 15
-53 0 -71 4 -75 15 -7 17 -104 22 -104 5z"/>
<path d="M3684 3918 c-6 -9 -3 -10 79 -33 61 -18 81 -14 56 9 -17 17 -127 37
-135 24z"/>
<path d="M6370 3921 c0 -11 60 -20 80 -13 11 4 8 8 -10 13 -37 10 -70 10 -70
0z"/>
<path d="M3861 3898 c-11 -17 -11 -22 1 -29 9 -6 15 -1 21 13 11 30 -6 42 -22
16z"/>
<path d="M3530 3901 c0 -6 5 -13 10 -16 6 -3 10 -25 10 -48 0 -52 14 -79 23
-45 4 12 7 44 7 71 0 44 -2 47 -25 47 -14 0 -25 -4 -25 -9z"/>
<path d="M4085 3880 c-4 -6 -3 -16 3 -22 6 -6 12 -6 17 2 4 6 3 16 -3 22 -6 6
-12 6 -17 -2z"/>
<path d="M4126 3853 c10 -40 14 -41 14 -5 0 18 -5 32 -10 32 -6 0 -8 -11 -4
-27z"/>
<path d="M5220 3825 c0 -9 5 -15 11 -13 6 2 11 8 11 13 0 5 -5 11 -11 13 -6 2
-11 -4 -11 -13z"/>
<path d="M4304 3801 c21 -23 26 -26 26 -11 0 5 -10 15 -22 21 -23 12 -23 12
-4 -10z"/>
<path d="M4190 3780 c-13 -9 -13 -10 0 -10 8 0 26 -16 39 -35 14 -20 35 -37
50 -40 14 -3 40 -10 56 -16 17 -6 56 -15 88 -20 32 -5 68 -14 79 -20 12 -6 47
-15 77 -19 98 -14 186 -32 195 -41 6 -5 25 -9 43 -9 37 0 53 -21 33 -45 -10
-12 -9 -15 9 -15 16 0 21 6 21 25 0 24 18 33 34 18 4 -4 37 -9 74 -11 45 -2
69 -8 75 -18 6 -10 26 -14 66 -14 40 0 63 -5 71 -15 8 -10 31 -15 66 -15 63 0
72 17 14 26 -46 8 -52 21 -12 27 19 3 15 4 -15 6 -23 0 -49 8 -58 17 -10 10
-37 18 -71 20 -32 2 -61 9 -70 18 -10 10 -33 16 -63 16 -31 0 -53 5 -61 15
-16 19 -76 20 -83 1 -4 -10 -19 -12 -59 -8 -29 2 -57 8 -63 12 -5 4 -32 11
-60 15 -27 4 -56 12 -63 17 -7 6 -37 12 -66 13 -30 1 -62 7 -71 15 -8 7 -46
15 -83 17 -36 2 -71 8 -76 13 -6 6 -22 10 -37 10 -23 0 -28 5 -31 27 -3 30
-23 39 -48 23z m935 -230 c-3 -5 -13 -10 -21 -10 -8 0 -12 5 -9 10 3 6 13 10
21 10 8 0 12 -4 9 -10z"/>
<path d="M4430 3775 c0 -8 4 -15 9 -15 5 0 14 7 21 15 10 13 9 15 -9 15 -12 0
-21 -6 -21 -15z"/>
<path d="M3850 3751 c0 -5 7 -11 15 -15 9 -3 15 0 15 9 0 8 -7 15 -15 15 -8 0
-15 -4 -15 -9z"/>
<path d="M3559 3739 c-10 -6 -5 -11 16 -19 17 -6 41 -15 55 -20 14 -5 39 -8
55 -8 17 0 40 -3 53 -7 14 -5 22 -3 22 4 0 6 -10 11 -23 11 -13 0 -27 3 -31 7
-13 14 -135 40 -147 32z"/>
<path d="M5605 3740 c-4 -6 6 -10 22 -10 22 0 25 2 13 10 -19 12 -27 12 -35 0z"/>
<path d="M5070 3685 c0 -20 4 -26 18 -23 9 2 17 12 17 23 0 11 -8 21 -17 23
-14 3 -18 -3 -18 -23z"/>
<path d="M4212 3659 c1 -12 9 -24 16 -27 9 -3 13 3 10 19 -1 12 -9 24 -16 27
-9 3 -13 -3 -10 -19z"/>
<path d="M5140 3650 c-8 -5 -13 -10 -10 -10 53 -8 104 -9 118 -1 14 8 10 10
-18 11 -19 0 -44 3 -55 5 -11 3 -27 1 -35 -5z"/>
<path d="M6031 3651 c-22 -14 33 -26 56 -12 16 9 16 10 1 11 -9 0 -22 2 -30 5
-7 3 -20 1 -27 -4z"/>
<path d="M3505 3640 c3 -5 18 -10 33 -9 24 0 25 1 7 9 -28 12 -47 12 -40 0z"/>
<path d="M6200 3610 c20 -13 47 -13 55 0 4 6 -9 10 -32 10 -28 0 -34 -3 -23
-10z"/>
<path d="M4550 3575 c0 -9 5 -15 11 -13 6 2 11 8 11 13 0 5 -5 11 -11 13 -6 2
-11 -4 -11 -13z"/>
<path d="M6333 3583 c15 -2 39 -2 55 0 15 2 2 4 -28 4 -30 0 -43 -2 -27 -4z"/>
<path d="M3402 3547 c-23 -27 8 -46 95 -59 45 -7 85 -9 89 -5 12 12 -18 37
-45 37 -15 0 -35 6 -46 14 -32 22 -80 29 -93 13z"/>
<path d="M6478 3553 c12 -2 32 -2 45 0 12 2 2 4 -23 4 -25 0 -35 -2 -22 -4z"/>
<path d="M6557 3553 c-4 -6 0 -18 7 -28 8 -11 16 -14 19 -8 4 6 0 18 -7 28 -8
11 -16 14 -19 8z"/>
<path d="M6155 3540 c-18 -8 -17 -9 8 -9 16 -1 26 3 22 9 -3 6 -7 10 -8 9 -1
0 -11 -4 -22 -9z"/>
<path d="M4510 3500 c0 -5 9 -10 20 -10 11 0 20 5 20 10 0 6 -9 10 -20 10 -11
0 -20 -4 -20 -10z"/>
<path d="M4600 3492 c0 -15 69 -35 105 -30 l30 4 -30 13 c-43 19 -105 26 -105
13z"/>
<path d="M3620 3481 c0 -10 35 -21 70 -21 l25 1 -25 14 c-28 16 -70 20 -70 6z"/>
<path d="M5332 3469 c6 -17 67 -24 81 -10 8 8 6 11 -5 11 -8 0 -30 3 -48 7
-25 5 -32 3 -28 -8z"/>
<path d="M3765 3451 c-6 -11 26 -31 49 -31 19 0 21 11 4 28 -14 14 -44 16 -53
3z"/>
<path d="M6510 3453 c0 -11 70 -26 79 -18 8 9 -6 16 -43 22 -21 3 -36 2 -36
-4z"/>
<path d="M5467 3443 c-21 -20 -3 -28 58 -25 52 3 66 1 71 -12 5 -12 21 -16 65
-16 71 0 78 16 12 25 -27 3 -68 12 -93 20 -47 16 -102 20 -113 8z"/>
<path d="M3865 3432 c-11 -11 30 -42 55 -42 15 0 41 -7 56 -15 16 -8 46 -15
66 -15 20 0 49 -5 65 -11 15 -6 64 -20 108 -30 44 -11 107 -26 140 -34 33 -8
83 -19 110 -24 28 -5 68 -15 90 -21 22 -6 76 -20 120 -31 44 -11 109 -26 145
-35 36 -9 101 -24 145 -33 72 -16 80 -20 83 -42 4 -45 -8 -52 -77 -38 -34 6
-64 16 -67 20 -3 5 -29 9 -57 9 -30 0 -60 7 -71 15 -11 8 -35 15 -54 15 -18 0
-42 5 -53 11 -33 17 -44 5 -14 -15 15 -10 51 -22 79 -26 28 -4 65 -13 81 -18
55 -20 151 -42 181 -42 46 0 83 21 90 53 6 27 29 37 36 15 2 -6 24 -12 48 -12
25 -1 45 -6 48 -13 2 -8 22 -13 49 -13 25 0 59 -7 76 -15 18 -8 50 -15 72 -17
37 -3 40 -5 38 -30 -1 -19 3 -28 13 -28 8 0 14 10 14 25 0 22 4 25 33 25 18 0
37 -4 43 -10 5 -5 39 -14 74 -20 67 -10 140 -27 175 -40 37 -15 260 -70 305
-76 47 -7 123 -25 175 -43 43 -14 170 -41 226 -48 41 -5 48 -3 54 16 9 30 -1
41 -43 41 -20 0 -46 7 -56 15 -11 8 -36 15 -55 15 -20 0 -49 7 -65 15 -15 8
-47 15 -70 15 -22 1 -52 7 -66 15 -14 8 -39 14 -56 15 -17 0 -48 7 -67 15 -20
8 -50 15 -68 15 -17 0 -45 6 -62 14 -18 8 -57 17 -87 19 -60 5 -169 34 -184
48 -6 5 -24 9 -40 9 -31 0 -157 25 -276 55 -36 9 -92 22 -125 28 -33 7 -65 15
-71 19 -6 4 -31 10 -55 13 -43 6 -107 22 -200 51 -26 8 -58 14 -72 14 -14 0
-78 13 -143 30 -66 16 -135 30 -155 30 -19 0 -39 4 -45 9 -5 5 -34 14 -64 19
-30 6 -86 18 -125 27 -38 9 -97 21 -130 26 -33 5 -68 14 -77 19 -10 6 -30 10
-45 10 -16 0 -44 5 -63 11 -45 14 -129 27 -135 21z"/>
<path d="M5743 3393 c-7 -2 -13 -11 -13 -19 0 -10 14 -14 50 -14 52 0 67 14
26 24 -13 3 -30 8 -38 10 -7 3 -19 2 -25 -1z"/>
<path d="M5946 3312 c-3 -3 -6 -14 -6 -24 0 -14 8 -18 35 -18 19 0 35 3 35 8
0 10 -57 41 -64 34z"/>
<path d="M6032 3256 c1 -10 8 -17 13 -17 15 1 12 24 -3 29 -9 3 -13 -2 -10
-12z"/>
<path d="M6130 3220 c0 -5 7 -10 15 -10 8 0 15 5 15 10 0 6 -7 10 -15 10 -8 0
-15 -4 -15 -10z"/>
<path d="M6518 3200 c-16 -28 -21 -30 -73 -30 -31 0 -55 -4 -55 -10 0 -6 10
-8 24 -4 16 4 34 -1 53 -14 35 -25 138 -41 131 -21 -3 8 -19 15 -36 17 -31 3
-43 24 -22 37 12 7 14 55 3 55 -5 0 -16 -14 -25 -30z"/>
<path d="M6270 3190 c0 -5 9 -10 20 -10 11 0 20 5 20 10 0 6 -9 10 -20 10 -11
0 -20 -4 -20 -10z"/>
<path d="M4335 3163 l-30 -5 34 -14 c44 -19 51 -18 51 6 0 11 -6 19 -12 19 -7
-1 -26 -4 -43 -6z"/>
<path d="M4585 3140 c-3 -5 3 -10 15 -10 12 0 18 5 15 10 -3 6 -10 10 -15 10
-5 0 -12 -4 -15 -10z"/>
<path d="M4605 3071 c-3 -5 -1 -12 5 -16 12 -7 30 2 30 16 0 12 -27 12 -35 0z"/>
<path d="M5252 2938 c2 -19 12 -24 53 -31 53 -8 87 -16 200 -46 39 -10 113
-28 165 -40 52 -12 124 -31 160 -41 36 -11 108 -29 160 -40 52 -12 113 -26
135 -31 285 -73 385 -92 385 -71 0 5 -17 13 -37 17 -21 3 -58 13 -83 20 -98
31 -153 45 -169 45 -21 0 -152 30 -172 40 -9 5 -38 12 -65 15 -27 4 -53 11
-59 15 -5 5 -36 11 -68 15 -31 4 -60 11 -63 16 -3 5 -20 9 -39 9 -19 0 -46 5
-62 11 -27 11 -103 29 -213 51 -30 6 -60 14 -66 19 -6 5 -32 12 -57 15 -26 4
-52 13 -58 20 -6 8 -20 14 -31 14 -14 0 -19 -6 -16 -22z"/>
<path d="M5436 2790 c10 -10 59 -22 164 -41 30 -5 62 -14 70 -18 27 -14 79
-23 100 -16 32 10 13 25 -34 25 -23 0 -51 7 -62 15 -11 8 -42 14 -75 15 -41 0
-58 4 -63 15 -4 11 -20 15 -58 15 -34 0 -49 -3 -42 -10z"/>
<path d="M5806 2701 c15 -15 96 -18 101 -3 3 9 -11 12 -53 12 -36 0 -54 -4
-48 -9z"/>
<path d="M5956 2670 c6 -6 28 -13 49 -17 30 -5 37 -3 33 8 -3 8 -22 15 -49 17
-32 2 -41 0 -33 -8z"/>
<path d="M6017 2583 c-18 -17 -5 -33 28 -33 41 0 45 12 10 28 -30 14 -30 14
-38 5z"/>
<path d="M5910 5650 c0 -5 9 -10 21 -10 11 0 17 5 14 10 -3 6 -13 10 -21 10
-8 0 -14 -4 -14 -10z"/>
<path d="M6055 5651 c-3 -6 1 -13 8 -18 7 -4 16 -16 20 -25 7 -21 37 -24 37
-5 0 17 -57 59 -65 48z"/>
<path d="M341 5563 c-16 -16 -40 -35 -53 -45 -18 -12 -20 -19 -11 -28 9 -10
19 -6 47 15 20 15 43 25 51 21 21 -8 65 11 65 27 0 13 -39 37 -60 37 -5 0 -23
-12 -39 -27z"/>
<path d="M6443 5554 c-40 -17 -41 -26 -6 -49 25 -17 27 -17 39 0 7 9 17 14 23
10 24 -14 31 8 9 31 -26 27 -23 27 -65 8z"/>
<path d="M5567 5470 c-14 -16 -29 -20 -86 -20 -55 0 -70 -3 -75 -16 -4 -9 -4
-19 -2 -22 22 -21 523 -28 519 -7 -2 15 -182 75 -189 64 -19 -32 -94 -27 -135
7 -13 11 -18 10 -32 -6z"/>
<path d="M6726 5471 c-9 -10 -14 -25 -10 -35 7 -17 24 -22 24 -7 0 6 17 10 38
9 20 0 50 4 66 11 42 17 20 34 -47 38 -42 2 -57 -1 -71 -16z"/>
<path d="M8420 5450 c0 -11 5 -20 10 -20 6 0 10 9 10 20 0 11 -4 20 -10 20 -5
0 -10 -9 -10 -20z"/>
<path d="M5265 5445 c-106 -28 -107 -32 -13 -40 100 -8 127 -3 107 21 -23 28
-43 32 -94 19z"/>
<path d="M1607 5414 c-4 -4 -7 -13 -7 -20 0 -15 48 -5 52 11 3 12 -35 19 -45
9z"/>
<path d="M7041 5380 c11 -31 23 -38 34 -20 8 14 -13 50 -30 50 -11 0 -12 -6
-4 -30z"/>
<path d="M6060 5381 c0 -6 20 -11 45 -12 25 0 61 -1 80 -1 19 -1 36 3 38 8 1
5 -35 10 -80 12 -54 2 -83 0 -83 -7z"/>
<path d="M6328 5363 c-10 -2 -18 -8 -18 -12 0 -12 56 -22 76 -14 15 6 15 7 -2
20 -18 13 -26 14 -56 6z"/>
<path d="M6495 5320 c3 -5 17 -10 31 -10 13 0 24 5 24 10 0 6 -14 10 -31 10
-17 0 -28 -4 -24 -10z"/>
<path d="M7525 5289 c-4 -6 -4 -14 1 -18 5 -3 18 -19 27 -34 14 -21 25 -27 45
-25 22 2 26 7 24 28 -1 14 -8 30 -15 36 -19 18 -74 27 -82 13z"/>
<path d="M6740 5266 c0 -9 8 -19 18 -22 9 -3 25 -10 34 -15 10 -5 40 -9 67 -9
31 0 53 -5 58 -13 4 -8 40 -24 78 -37 39 -13 77 -26 85 -30 9 -4 30 -11 48
-14 17 -4 34 -12 37 -17 4 -5 14 -9 23 -9 9 0 30 -7 46 -15 15 -8 34 -15 42
-15 16 0 92 -38 99 -50 3 -5 20 -12 38 -16 17 -3 41 -13 52 -20 11 -8 27 -14
37 -14 10 0 18 -4 18 -10 0 -5 9 -10 19 -10 11 0 26 -6 33 -14 8 -7 39 -25 69
-39 71 -34 167 -88 313 -177 116 -69 161 -102 255 -182 46 -39 71 -48 71 -24
0 15 -64 76 -80 76 -4 0 -14 16 -20 35 -11 33 -61 75 -90 75 -6 0 -25 14 -40
30 -17 18 -38 30 -54 30 -16 0 -37 12 -57 35 -26 28 -40 35 -69 35 -47 0 -90
37 -90 77 0 40 -32 59 -56 32 -29 -32 -65 -24 -98 22 -20 29 -31 38 -39 30
-22 -22 -64 -10 -127 34 -38 27 -75 45 -91 45 -15 0 -31 5 -34 10 -12 19 -139
69 -195 78 -19 2 -51 15 -70 27 -46 29 -103 47 -123 39 -9 -3 -40 6 -69 20
-29 14 -72 28 -95 32 -36 5 -43 4 -43 -10z"/>
<path d="M1457 5242 c-10 -10 -17 -22 -17 -27 0 -5 9 1 21 14 12 12 19 24 17
27 -3 2 -12 -4 -21 -14z"/>
<path d="M7935 5236 c-16 -11 -17 -17 -7 -29 7 -8 10 -22 6 -31 -4 -11 0 -16
14 -16 25 0 28 5 37 53 6 32 5 37 -12 37 -11 0 -28 -6 -38 -14z"/>
<path d="M3 5190 c0 -25 2 -35 4 -22 2 12 2 32 0 45 -2 12 -4 2 -4 -23z"/>
<path d="M7802 5208 c6 -16 36 -34 44 -26 3 4 4 14 1 23 -7 17 -51 21 -45 3z"/>
<path d="M8147 5194 c-3 -3 -3 -12 0 -20 3 -8 0 -14 -6 -14 -6 0 -11 7 -11 15
0 18 -7 18 -49 4 -21 -7 -31 -17 -29 -28 1 -9 -1 -22 -6 -30 -5 -8 -4 -16 4
-21 19 -12 40 -1 40 21 0 24 7 24 60 0 34 -15 47 -17 62 -8 26 17 22 33 -15
61 -36 28 -40 29 -50 20z"/>
<path d="M8597 5133 c-12 -12 -7 -22 29 -60 28 -28 38 -49 42 -81 5 -46 38
-83 70 -77 9 2 20 4 24 4 10 1 -31 81 -42 81 -6 0 -10 7 -10 16 0 10 7 14 23
13 32 -5 47 8 47 41 0 38 -16 47 -31 18 -6 -13 -13 -25 -15 -26 -3 -4 -60 36
-86 61 -19 18 -40 22 -51 10z"/>
<path d="M439 5071 c-32 -30 -35 -49 -5 -38 17 7 51 55 44 63 -3 3 -21 -9 -39
-25z"/>
<path d="M8521 5091 c-12 -8 -13 -12 -2 -25 11 -12 17 -14 27 -5 31 25 9 51
-25 30z"/>
<path d="M858 5063 c-32 -38 -31 -44 17 -86 39 -35 47 -48 48 -78 1 -31 -7
-44 -51 -88 -28 -28 -56 -61 -62 -72 -9 -15 -18 -19 -38 -15 -37 8 -56 -6 -48
-35 16 -62 20 -60 140 66 64 66 116 125 116 130 1 12 82 65 99 65 7 0 18 15
26 34 8 19 19 38 25 41 6 4 8 11 4 16 -9 15 -107 0 -121 -18 -6 -8 -27 -16
-45 -16 -27 -2 -34 2 -36 20 -3 20 -36 53 -53 53 -3 0 -13 -8 -21 -17z"/>
<path d="M8861 5031 l-33 -18 46 -38 c57 -46 72 -39 62 29 -8 52 -20 56 -75
27z"/>
<path d="M2760 4741 c-93 -76 -174 -134 -227 -161 -45 -22 -87 -48 -94 -56 -6
-8 -32 -28 -58 -45 -42 -29 -47 -30 -71 -16 -14 8 -29 24 -35 34 -22 40 -41
60 -73 73 -19 7 -40 20 -48 28 -8 8 -18 12 -21 8 -4 -3 28 -39 70 -79 51 -47
77 -80 77 -94 0 -12 5 -25 10 -28 6 -3 10 -15 10 -25 0 -36 20 -30 97 32 88
71 161 120 248 168 77 42 167 102 228 152 43 37 47 44 47 84 0 24 -3 44 -7 44
-5 0 -73 -54 -153 -119z"/>
<path d="M186 4819 c-15 -15 -16 -19 -5 -19 16 0 39 19 39 32 0 13 -14 8 -34
-13z"/>
<path d="M579 4762 c-22 -24 -31 -52 -16 -52 22 0 57 31 57 51 0 23 -19 24
-41 1z"/>
<path d="M8250 4686 c0 -3 9 -20 20 -38 17 -28 20 -30 26 -14 9 22 -7 50 -30
54 -9 2 -16 1 -16 -2z"/>
<path d="M450 4614 c0 -14 3 -14 15 -4 8 7 15 14 15 16 0 2 -7 4 -15 4 -8 0
-15 -7 -15 -16z"/>
<path d="M0 4582 c0 -26 4 -41 10 -37 13 8 13 45 0 65 -7 11 -10 3 -10 -28z"/>
<path d="M8534 4503 c2 -31 6 -39 24 -41 28 -4 42 40 19 63 -28 27 -44 18 -43
-22z"/>
<path d="M8290 4486 c0 -8 26 -38 58 -66 49 -46 169 -171 305 -319 39 -43 127
-165 127 -177 0 -3 13 -23 29 -43 36 -47 93 -148 136 -246 27 -63 30 -68 40
-69 6 0 11 34 13 77 2 42 -1 77 -5 76 -24 -4 -33 4 -33 26 0 18 5 25 20 25 17
0 20 7 20 46 0 38 -3 45 -17 42 -10 -2 -23 -17 -28 -35 -10 -31 -11 -31 -39
-15 -17 11 -39 41 -57 82 -17 36 -36 68 -44 73 -20 11 -19 66 0 73 18 7 19 24
3 59 -14 31 -39 32 -79 3 -35 -26 -45 -18 -55 45 -4 20 -10 37 -15 37 -4 0
-11 9 -14 20 -4 12 -15 20 -28 20 -34 0 -50 15 -42 39 3 11 13 21 21 21 8 0
14 5 14 10 0 6 -11 10 -24 10 -14 0 -28 5 -31 10 -3 6 -15 10 -25 10 -28 0
-60 39 -60 72 0 23 -4 28 -23 28 -27 0 -47 15 -70 53 -14 22 -25 27 -57 27
-28 0 -40 -4 -40 -14z"/>
<path d="M258 4421 c-21 -8 -178 -175 -178 -190 0 -25 26 -7 106 71 92 91 121
137 72 119z"/>
<path d="M8970 4420 c0 -5 7 -10 15 -10 8 0 15 5 15 10 0 6 -7 10 -15 10 -8 0
-15 -4 -15 -10z"/>
<path d="M2105 4330 c-100 -136 -299 -230 -506 -238 -134 -5 -225 23 -284 88
-21 24 -35 26 -35 5 0 -28 70 -95 100 -95 15 0 40 -6 56 -13 16 -8 48 -22 71
-33 24 -11 43 -26 43 -35 0 -13 12 -15 83 -12 147 8 330 75 440 161 76 60 98
103 90 171 -3 28 -9 51 -14 51 -4 0 -24 -23 -44 -50z"/>
<path d="M1545 4329 c-27 -4 -63 -10 -80 -14 -16 -3 -40 -8 -52 -11 -32 -6
-29 -36 7 -62 49 -36 144 -24 133 17 -5 18 -1 21 28 22 19 0 66 8 104 18 39
11 73 17 78 14 4 -2 13 -1 20 4 30 19 -138 28 -238 12z"/>
<path d="M2223 4208 c-65 -86 -113 -133 -197 -192 -52 -37 -71 -56 -58 -56 12
0 24 5 27 10 3 6 16 10 27 10 11 0 26 7 33 17 15 20 39 7 32 -18 -4 -15 0 -19
24 -19 31 0 49 23 49 63 0 13 11 34 24 46 13 12 32 38 42 57 10 18 22 34 26
34 4 0 12 17 17 38 23 79 9 82 -46 10z"/>
<path d="M297 4213 c-13 -12 -7 -32 7 -27 19 7 29 34 12 34 -7 0 -16 -3 -19
-7z"/>
<path d="M1555 4150 c-3 -5 0 -13 8 -16 23 -9 112 0 110 11 -4 14 -110 19
-118 5z"/>
<path d="M2270 4089 c0 -50 -6 -84 -21 -117 -21 -48 -118 -156 -154 -173 -11
-5 -35 -19 -54 -30 -57 -34 -130 -56 -246 -75 -108 -17 -111 -17 -183 4 -94
27 -161 75 -193 141 -16 33 -30 50 -43 51 -30 0 -15 -69 30 -135 56 -82 68
-103 160 -283 45 -89 93 -172 106 -182 25 -22 79 -53 82 -48 1 2 12 26 25 53
39 87 50 90 305 90 l219 0 28 38 c16 21 31 57 34 80 6 42 -14 204 -35 287 -6
25 -13 106 -15 180 -3 131 -14 190 -35 190 -6 0 -10 -29 -10 -71z m8 -386 c-2
-15 -8 -28 -15 -30 -17 -6 -25 30 -17 73 l7 37 14 -27 c8 -15 13 -39 11 -53z
m-88 -26 c17 -35 19 -49 10 -71 -5 -15 -10 -38 -10 -52 0 -35 -58 -57 -130
-50 -34 4 -81 0 -125 -9 -118 -27 -135 -33 -135 -50 0 -18 -37 -38 -56 -31 -8
3 -14 14 -14 25 0 11 -4 22 -9 25 -5 3 -12 31 -16 63 -8 67 5 83 66 83 20 0
50 7 65 15 35 18 87 19 114 3 16 -11 23 -9 47 14 15 14 47 31 71 38 23 6 42
15 42 20 0 7 9 11 52 19 5 0 17 -19 28 -42z"/>
<path d="M8981 3976 c-1 -30 3 -46 8 -40 5 5 6 27 1 49 l-8 40 -1 -49z"/>
<path d="M1260 4003 c0 -12 70 -57 76 -50 8 8 -47 56 -63 57 -7 0 -13 -3 -13
-7z"/>
<path d="M1875 3940 c-18 -8 -17 -9 8 -9 16 -1 26 3 22 9 -3 6 -7 10 -8 9 -1
0 -11 -4 -22 -9z"/>
<path d="M2000 3930 c0 -23 0 -23 34 -10 35 13 33 30 -4 30 -23 0 -30 -4 -30
-20z"/>
<path d="M1765 3911 c-3 -5 -1 -12 5 -16 13 -8 50 3 50 16 0 12 -47 12 -55 0z"/>
<path d="M1936 3905 c-8 -8 -31 -15 -50 -15 -25 0 -36 -4 -36 -15 0 -10 10
-15 29 -15 16 0 36 7 45 15 8 8 24 15 35 15 25 0 36 16 15 24 -21 8 -20 8 -38
-9z"/>
<path d="M2365 3319 c-4 -5 -4 -22 0 -36 l6 -26 25 24 c23 22 24 24 8 36 -22
16 -31 16 -39 2z"/>
<path d="M2577 3271 c-4 -16 -18 -20 -98 -25 -52 -3 -224 -3 -384 2 -159 4
-295 6 -300 5 -12 -4 -35 -115 -35 -170 0 -21 -7 -65 -15 -98 -8 -33 -15 -96
-15 -140 -1 -44 -7 -97 -14 -117 -16 -46 -9 -54 54 -64 25 -4 52 -12 60 -19 8
-6 22 -15 30 -19 33 -15 63 -35 101 -66 36 -31 38 -35 23 -51 -14 -15 -13 -19
11 -37 27 -21 97 -38 115 -27 17 10 12 52 -7 59 -70 26 -126 78 -126 117 0 23
-5 28 -34 34 -38 7 -42 26 -13 55 14 14 28 18 45 14 34 -8 50 4 33 24 -8 10
-25 41 -38 69 -21 47 -22 56 -10 80 7 16 18 64 24 108 11 77 12 80 36 77 43
-4 50 -10 50 -48 0 -20 8 -58 17 -84 16 -45 16 -49 -4 -96 -32 -74 -33 -98 -5
-102 38 -6 62 24 62 77 0 26 -7 56 -16 69 -8 12 -14 35 -13 50 1 15 -3 47 -10
71 -17 59 -7 66 85 66 61 0 77 -4 85 -18 13 -22 32 -22 54 3 10 11 22 17 26
14 5 -3 9 -56 9 -118 0 -116 -13 -167 -45 -180 -28 -10 -15 -26 20 -26 19 0
35 -4 35 -10 0 -5 16 -16 36 -25 31 -13 34 -17 24 -35 -9 -17 -17 -20 -39 -15
-21 4 -30 2 -35 -10 -4 -11 -12 -14 -26 -10 -24 8 -90 -4 -90 -16 0 -5 10 -9
23 -9 12 0 29 -5 37 -10 11 -7 3 -10 -30 -11 -63 -2 -84 1 -92 14 -5 8 -9 6
-13 -5 -4 -10 -16 -20 -27 -24 -37 -11 -10 -15 124 -19 164 -4 172 -6 164 -54
-4 -20 -9 -62 -12 -94 -6 -54 -9 -60 -36 -69 -28 -10 -29 -11 -11 -30 19 -22
22 -76 9 -182 -6 -47 -11 -56 -35 -66 -16 -6 -37 -10 -46 -8 -10 2 -20 -2 -22
-9 -2 -6 18 -18 46 -28 28 -9 51 -18 51 -19 0 -2 -5 -17 -11 -34 -8 -24 -20
-33 -55 -43 -31 -9 -44 -19 -44 -31 0 -11 7 -18 19 -18 26 0 36 -17 21 -35
-17 -20 -270 -16 -294 4 -20 17 -21 51 -1 77 8 10 15 29 15 41 0 12 5 25 10
28 6 4 8 15 5 25 -3 11 0 20 10 24 8 3 15 12 15 19 0 16 -66 26 -135 22 -46
-3 -204 -7 -222 -6 -7 1 -13 10 -13 21 0 16 7 20 30 20 19 0 30 5 30 14 0 7 9
25 20 39 11 14 20 32 20 40 0 18 -38 29 -60 17 -13 -7 -19 -2 -29 26 -19 53
-37 37 -33 -29 2 -36 -2 -67 -12 -86 -11 -21 -16 -58 -16 -121 0 -58 -5 -101
-14 -118 -19 -37 -31 -168 -17 -177 6 -3 118 -6 249 -6 148 1 290 -4 377 -14
77 -8 143 -15 148 -15 19 0 3 -32 -29 -56 -33 -26 -46 -29 -158 -35 -66 -4
-125 -9 -131 -10 -11 -3 -106 9 -143 18 -13 3 -28 17 -33 30 -9 24 -12 25 -72
20 -150 -14 -200 -29 -247 -73 -14 -12 -56 -43 -95 -68 -38 -24 -82 -54 -97
-65 -32 -26 -54 -27 -62 -3 -4 9 -14 31 -24 48 -57 103 -99 116 -52 16 17 -35
30 -74 29 -85 -1 -31 -52 -111 -72 -115 -30 -6 -81 -66 -104 -122 -24 -58 -29
-90 -14 -90 12 0 89 88 107 122 19 36 36 28 70 -30 15 -26 30 -49 33 -52 14
-11 41 -60 41 -73 0 -8 -9 -22 -20 -32 -20 -18 -28 -65 -10 -65 5 0 19 13 31
29 20 28 23 29 44 15 41 -27 135 -147 135 -173 0 -23 -1 -23 -19 -7 -17 16
-20 16 -35 1 -9 -9 -16 -20 -16 -24 0 -14 25 -39 47 -46 18 -5 24 -1 29 19 8
32 24 34 24 3 0 -12 7 -33 16 -45 12 -17 14 -38 11 -80 -5 -66 -25 -153 -38
-166 -5 -6 -9 -16 -9 -24 0 -13 -9 -37 -50 -127 -10 -22 -21 -50 -24 -62 -4
-11 -13 -27 -21 -33 -22 -18 -18 -30 9 -30 19 0 29 12 56 68 56 117 70 149 70
156 0 4 7 14 15 22 8 9 15 32 15 53 0 21 7 53 16 71 13 25 15 48 11 99 -8 80
-23 124 -60 172 -15 20 -27 41 -27 47 0 6 -25 36 -55 66 -63 64 -74 92 -51
140 9 19 16 40 16 48 0 36 42 49 71 22 24 -22 41 -9 32 24 -9 37 -58 127 -83
152 -27 27 -25 46 8 67 95 59 172 112 205 142 36 33 39 33 75 22 20 -7 81 -13
134 -14 54 -2 100 -6 104 -9 3 -4 2 -29 -4 -55 -6 -26 -13 -74 -16 -105 -5
-51 -4 -59 14 -70 24 -15 26 -50 4 -69 -13 -11 -24 -10 -63 5 -40 15 -209 45
-281 50 -25 1 -25 0 -28 -91 -3 -92 -3 -92 -30 -95 -40 -4 -41 -40 -3 -67 16
-12 35 -37 41 -55 6 -19 18 -37 27 -40 10 -4 14 -15 11 -31 -7 -37 24 -65 72
-65 38 0 47 -7 198 -158 201 -199 267 -286 292 -382 16 -61 25 -147 21 -187 0
-6 -11 -15 -23 -19 -21 -6 -21 -7 5 -20 34 -18 47 -43 47 -88 0 -35 1 -36 40
-36 46 0 45 -2 26 82 -8 35 -17 81 -21 102 l-6 39 33 -35 c18 -20 51 -70 73
-112 35 -67 43 -76 67 -76 15 0 28 2 28 5 0 3 -12 24 -27 48 -15 23 -36 59
-48 79 -11 20 -30 48 -42 62 -12 14 -34 48 -47 75 -14 27 -30 52 -35 55 -12 8
-35 76 -28 82 9 9 49 -17 92 -57 73 -69 382 -283 434 -299 14 -5 39 -16 96
-42 11 -5 79 -7 150 -6 87 2 120 6 100 11 -76 20 -137 43 -225 86 -100 48
-351 195 -458 268 -35 24 -66 43 -68 43 -6 0 -88 62 -211 159 -128 101 -140
136 -155 472 -8 196 -8 230 6 262 8 20 21 37 29 37 9 0 19 30 30 98 10 53 17
107 17 120 0 22 1 23 113 20 l113 -3 38 40 c33 36 36 44 30 75 -14 67 8 391
46 675 5 39 12 112 16 164 3 51 12 114 20 140 8 25 14 88 14 141 0 73 4 101
17 119 13 19 16 49 17 138 1 96 4 117 18 127 10 7 20 31 24 54 7 42 1 58 -9
23z m-697 -116 c0 -8 -6 -15 -14 -15 -17 0 -28 14 -19 24 12 12 33 6 33 -9z
m539 -7 c10 -26 -3 -50 -22 -42 -18 6 -39 43 -32 54 11 18 46 10 54 -12z
m-473 -72 c3 -8 -4 -28 -17 -45 -20 -27 -21 -37 -15 -109 6 -62 4 -81 -6 -85
-14 -5 -117 8 -125 16 -2 3 1 33 7 68 5 35 10 85 10 111 0 47 0 47 38 51 81 8
103 7 108 -7z m561 -52 c2 -27 0 -56 -3 -64 -10 -27 -24 11 -24 68 0 70 24 67
27 -4z m-89 -198 c5 -25 -7 -66 -18 -66 -20 0 -33 46 -20 69 13 25 33 23 38
-3z m-541 -61 c3 -9 3 -18 0 -21 -7 -8 -47 15 -47 26 0 16 40 11 47 -5z m43
-716 c68 -2 76 -3 40 -8 -35 -5 -44 -10 -42 -23 1 -10 3 -26 5 -35 4 -31 -53
-38 -104 -14 -39 19 -45 20 -55 6 -21 -28 -44 -18 -44 20 0 19 -4 35 -10 35
-5 0 -10 -13 -10 -30 0 -20 -5 -30 -15 -30 -17 0 -22 69 -5 86 6 6 38 7 82 3
40 -4 111 -9 158 -10z m-90 -109 c10 -5 21 -23 25 -40 4 -16 11 -30 16 -30 5
0 9 -6 9 -14 0 -23 -70 -35 -105 -17 -16 8 -37 17 -45 21 -8 4 -16 19 -18 34
-3 20 1 26 15 26 11 0 24 -5 31 -12 9 -9 12 -9 12 3 0 16 19 39 33 39 4 0 17
-4 27 -10z m235 -145 c0 -26 -4 -30 -29 -33 -40 -5 -73 5 -80 24 -11 29 13 45
63 42 44 -3 46 -4 46 -33z m-630 -437 c15 -64 5 -120 -33 -177 l-35 -54 -26
31 c-35 41 -91 119 -96 134 -3 8 21 26 63 47 37 18 74 37 82 42 27 14 37 9 45
-23z m446 -175 c7 -7 11 -14 8 -17 -2 -2 -43 -6 -91 -8 -70 -3 -88 -2 -88 9 0
8 9 17 21 21 32 12 137 8 150 -5z m-101 -96 c14 -1 30 -5 35 -8 6 -3 41 -6 79
-7 38 0 73 -5 78 -10 6 -6 14 -68 19 -138 5 -70 14 -143 21 -161 24 -65 -17
-50 -72 28 -36 51 -130 131 -165 143 -11 3 -49 35 -84 70 -81 81 -79 102 7 92
31 -4 68 -8 82 -9z"/>
<path d="M1400 3259 c0 -11 5 -17 10 -14 6 3 10 13 10 21 0 8 -4 14 -10 14 -5
0 -10 -9 -10 -21z"/>
<path d="M1370 3199 c0 -11 5 -17 10 -14 6 3 10 13 10 21 0 8 -4 14 -10 14 -5
0 -10 -9 -10 -21z"/>
<path d="M1316 3045 c-39 -105 -121 -223 -321 -464 -66 -79 -152 -184 -192
-232 -39 -49 -116 -141 -170 -206 -54 -65 -115 -140 -136 -166 -48 -60 -187
-268 -187 -279 0 -15 -15 -7 -34 19 -17 23 -18 31 -6 92 12 63 11 70 -9 109
-12 24 -30 46 -39 49 -9 3 -40 28 -69 55 -28 26 -58 48 -66 48 -36 0 -66 82
-68 182 -1 29 -5 64 -9 78 -5 14 -8 -70 -9 -195 0 -169 2 -215 11 -200 6 11
16 23 22 27 21 15 74 8 100 -13 23 -18 25 -25 19 -61 -4 -31 -3 -39 6 -34 7 5
23 5 37 2 28 -7 31 -31 12 -84 -11 -30 -11 -35 6 -47 20 -15 15 -47 -12 -78
-14 -16 -14 -19 4 -40 25 -29 44 -64 44 -80 0 -27 21 -36 41 -16 10 10 19 21
19 24 0 10 44 70 57 78 16 10 17 37 3 37 -6 0 -14 -8 -17 -17 -8 -20 -40 -53
-52 -53 -5 0 -14 -7 -21 -15 -23 -28 -21 -8 5 40 14 26 25 54 25 61 0 8 4 14
8 14 4 0 34 35 67 78 57 74 336 411 366 442 8 8 32 38 54 65 22 28 45 55 51
60 6 6 26 30 44 55 19 25 41 52 49 61 9 9 25 27 36 40 87 101 162 186 175 196
31 25 30 11 -2 -47 -18 -33 -36 -60 -40 -60 -5 0 -8 -7 -8 -15 0 -8 5 -15 10
-15 6 0 10 4 10 8 0 5 12 14 26 21 l26 11 -7 -40 c-5 -33 -4 -40 9 -40 24 0
52 66 65 150 16 112 31 181 45 210 19 36 38 140 34 175 -4 26 -5 27 -12 10z"/>
<path d="M2180 2940 c0 -40 38 -130 56 -130 7 0 17 8 22 18 13 24 24 120 15
125 -5 3 -27 8 -50 12 -43 7 -43 7 -43 -25z"/>
<path d="M3221 2951 c-7 -5 -11 -15 -9 -22 3 -10 8 -7 17 9 13 24 12 26 -8 13z"/>
<path d="M2000 2920 c0 -5 7 -10 15 -10 8 0 15 5 15 10 0 6 -7 10 -15 10 -8 0
-15 -4 -15 -10z"/>
<path d="M3276 2911 c-10 -11 -16 -28 -15 -38 1 -10 -18 -39 -45 -67 -57 -60
-57 -82 -1 -102 61 -21 89 -18 111 12 10 14 25 32 32 39 6 8 12 23 12 34 0 18
-6 21 -46 21 -32 0 -44 4 -42 13 6 16 62 21 88 7 14 -8 26 -8 41 0 16 9 25 8
37 -2 59 -47 146 -64 172 -33 18 22 28 18 32 -12 2 -23 9 -29 33 -31 17 -2 44
-10 62 -18 40 -18 83 -2 83 31 0 31 -19 45 -61 45 -21 0 -41 5 -45 11 -3 6
-19 9 -34 6 -17 -4 -44 3 -75 19 -57 28 -139 33 -149 9 -9 -24 -24 -17 -28 12
-3 24 -9 29 -41 34 -21 3 -43 11 -50 18 -17 17 -52 13 -71 -8z"/>
<path d="M7454 2750 c-53 -49 -101 -90 -108 -90 -6 0 -30 -8 -53 -17 -34 -14
-43 -23 -43 -42 0 -13 7 -29 16 -35 14 -10 14 -18 2 -71 -18 -78 -3 -136 50
-192 33 -36 44 -41 98 -48 65 -7 128 5 176 33 42 25 57 4 29 -42 -12 -19 -25
-36 -29 -38 -8 -3 -60 -71 -79 -103 -43 -71 -59 -122 -55 -172 2 -29 8 -53 13
-53 5 0 9 -15 9 -34 0 -19 7 -41 15 -50 8 -8 15 -21 15 -30 0 -8 6 -21 13 -28
6 -7 21 -30 31 -51 11 -21 40 -56 64 -77 38 -35 50 -40 91 -40 31 0 65 10 105
30 72 37 90 38 80 8 -3 -13 -13 -31 -22 -41 -33 -37 -64 -103 -60 -126 2 -9
15 -17 31 -19 39 -5 127 84 127 128 0 18 -6 33 -15 36 -16 6 -21 34 -7 34 5 0
17 -9 27 -20 10 -11 27 -20 39 -20 36 0 106 34 106 52 0 29 -12 48 -30 48 -22
0 -37 37 -21 53 6 6 11 17 11 25 0 12 -3 12 -16 1 -13 -10 -17 -10 -25 2 -12
19 -11 26 3 48 9 15 6 35 -15 103 -15 46 -27 98 -27 115 0 18 -7 38 -15 47 -8
8 -15 24 -15 36 0 12 -6 34 -13 48 -8 15 -21 43 -29 62 -30 70 -99 207 -153
305 -31 55 -69 127 -85 161 -19 38 -40 66 -57 75 -61 30 -74 41 -63 54 10 12
4 25 -11 25 -4 0 -51 -40 -105 -90z m141 -40 c0 -19 -4 -43 -9 -53 -14 -22 3
-51 33 -55 22 -4 44 -43 75 -135 17 -51 39 -89 69 -122 11 -11 23 -29 28 -40
5 -11 13 -27 18 -35 5 -8 12 -22 15 -30 3 -8 11 -23 18 -32 7 -9 9 -21 4 -25
-4 -4 -13 0 -20 10 -19 24 -36 21 -36 -7 0 -14 10 -30 25 -40 23 -15 25 -15
35 4 12 22 30 18 30 -7 0 -8 -9 -17 -20 -20 -13 -3 -20 -14 -20 -29 0 -28 2
-28 -43 -9 -20 8 -38 24 -42 35 -7 23 -25 27 -25 6 0 -15 12 -39 50 -101 14
-22 34 -57 45 -79 10 -21 28 -42 40 -46 12 -5 25 -25 33 -51 7 -23 22 -53 33
-67 23 -30 26 -82 4 -82 -8 0 -29 -6 -47 -14 -18 -8 -51 -22 -73 -31 -22 -9
-48 -20 -57 -25 -10 -6 -35 -10 -57 -10 -35 0 -44 6 -74 43 -45 55 -95 149
-103 195 -4 21 -11 40 -17 44 -21 13 -11 68 18 98 16 17 34 30 41 30 18 0 106
90 101 104 -2 6 -15 11 -28 11 -34 0 -38 32 -5 44 13 6 30 19 36 30 6 12 22
24 36 27 23 6 24 8 9 24 -15 17 -15 19 0 27 25 14 16 57 -13 61 -13 2 -26 10
-29 18 -6 17 -33 19 -33 3 0 -7 8 -18 18 -25 15 -12 15 -13 0 -14 -9 0 -18 5
-20 10 -3 10 -110 -10 -163 -31 -111 -42 -165 1 -165 130 0 69 2 74 43 128 47
63 158 160 191 166 41 8 49 3 51 -33z m317 -754 c6 -14 8 -32 5 -40 -8 -20
-37 -21 -37 -1 0 7 -7 18 -17 23 -21 13 -10 42 17 42 12 0 25 -10 32 -24z"/>
<path d="M7425 2587 c-45 -39 -43 -67 4 -67 18 0 34 -7 41 -17 10 -17 10 -16
8 2 -2 13 6 24 25 33 33 16 35 45 5 66 -31 22 -40 20 -83 -17z"/>
<path d="M7524 2496 c-8 -22 3 -33 18 -18 9 9 9 15 0 24 -9 9 -13 7 -18 -6z"/>
<path d="M7612 2443 c2 -10 13 -19 26 -21 17 -3 22 2 22 17 0 16 -6 21 -26 21
-19 0 -25 -5 -22 -17z"/>
<path d="M3410 2762 c-61 -71 -64 -100 -11 -98 24 0 47 -6 58 -16 17 -15 20
-15 41 2 12 10 22 23 22 28 0 5 7 15 15 22 24 20 19 50 -9 50 -13 0 -37 7 -52
15 -37 19 -46 19 -64 -3z"/>
<path d="M3851 2753 c-18 -39 8 -59 85 -66 55 -6 63 -4 82 16 27 29 19 39 -49
60 -79 24 -103 22 -118 -10z"/>
<path d="M2168 2742 c-24 -5 -23 -19 2 -27 11 -3 20 -15 20 -26 0 -17 3 -18
20 -7 16 11 18 15 7 23 -7 6 -18 17 -23 25 -5 9 -17 14 -26 12z"/>
<path d="M3574 2684 c-34 -58 -23 -72 61 -79 l60 -6 23 37 c19 31 22 42 13 61
-12 27 -24 29 -45 8 -20 -20 -33 -19 -46 5 -17 32 -37 24 -66 -26z"/>
<path d="M4058 2716 c-27 -20 -22 -46 12 -57 17 -6 30 -15 30 -20 0 -5 25 -9
55 -9 43 0 56 4 65 19 5 11 7 26 4 35 -11 29 -138 54 -166 32z"/>
<path d="M3113 2673 c-3 -10 -12 -25 -19 -33 -7 -8 -16 -27 -19 -42 -7 -27 -5
-28 28 -28 19 0 48 -7 63 -15 17 -9 41 -13 59 -9 23 4 35 0 49 -15 l19 -21 23
25 c12 13 25 34 29 45 3 11 11 20 16 20 5 0 9 6 9 13 0 17 -56 37 -102 37 -22
0 -41 7 -53 20 -24 26 -93 28 -102 3z m37 -63 c0 -5 -7 -10 -15 -10 -8 0 -15
5 -15 10 0 6 7 10 15 10 8 0 15 -4 15 -10z"/>
<path d="M3803 2683 c-12 -2 -25 -14 -29 -26 -4 -11 -13 -27 -21 -35 -22 -22
-11 -47 22 -50 17 -2 34 -10 38 -18 20 -35 68 -10 110 58 24 39 21 48 -14 48
-32 0 -69 -29 -83 -66 -7 -18 -8 -18 -18 0 -8 15 -7 22 3 30 30 24 44 70 20
65 -3 -1 -16 -4 -28 -6z"/>
<path d="M1617 2673 c-15 -14 -6 -24 16 -18 35 11 44 25 16 25 -14 0 -29 -3
-32 -7z"/>
<path d="M4257 2674 c-4 -4 -7 -22 -7 -41 0 -31 2 -33 34 -33 19 0 37 -4 40
-9 20 -32 106 -8 106 29 0 24 -18 36 -62 44 -21 3 -53 9 -71 12 -17 3 -35 2
-40 -2z"/>
<path d="M3978 2616 c-10 -7 -18 -18 -18 -23 0 -6 -7 -16 -15 -23 -32 -27 -18
-47 37 -53 28 -4 55 -12 58 -18 5 -8 13 -7 29 2 11 8 21 17 21 20 0 3 9 16 20
29 11 13 20 26 20 30 0 32 -119 60 -152 36z m62 -50 c0 -21 -20 -30 -33 -17
-9 9 -8 14 3 21 21 14 30 12 30 -4z"/>
<path d="M4455 2600 c-9 -42 8 -60 59 -60 22 0 49 -7 59 -14 16 -12 21 -11 43
11 14 14 24 32 22 40 -4 17 -99 52 -145 53 -27 0 -32 -4 -38 -30z"/>
<path d="M3400 2580 c-14 -22 -28 -40 -32 -40 -21 0 -4 -30 26 -44 63 -30 136
-14 136 30 0 8 5 14 10 14 6 0 10 11 10 24 0 21 -6 24 -47 29 -26 3 -49 10
-51 16 -7 22 -28 10 -52 -29z m77 -16 c7 -18 -14 -35 -34 -27 -16 6 -17 30 0
36 21 9 27 7 34 -9z"/>
<path d="M4155 2544 c-27 -45 -27 -47 -8 -65 22 -23 109 -35 130 -18 21 18 46
77 39 94 -8 22 -53 19 -66 -5 -16 -29 -30 -24 -30 10 0 47 -33 39 -65 -16z
m65 -38 c0 -8 -4 -17 -9 -21 -12 -7 -24 12 -16 25 9 15 25 12 25 -4z"/>
<path d="M2526 2562 c-11 -41 -16 -131 -8 -136 12 -7 72 24 113 58 33 28 43
71 18 86 -7 5 -37 9 -65 9 -41 0 -54 -4 -58 -17z"/>
<path d="M4666 2562 c-20 -23 -21 -52 -2 -52 7 0 19 -7 26 -15 19 -23 122 -20
143 3 24 27 22 31 -25 51 -68 30 -122 34 -142 13z"/>
<path d="M1495 2553 c-92 -28 -103 -35 -114 -61 -6 -15 -25 -35 -41 -44 -30
-17 -47 -56 -36 -84 6 -16 8 -16 24 0 23 20 46 20 63 0 10 -12 24 -15 52 -11
33 5 43 1 62 -19 l22 -24 31 30 c18 17 40 30 51 30 10 0 24 7 31 15 8 10 17
12 28 6 10 -6 29 -4 53 6 28 11 42 12 58 4 24 -13 138 -15 145 -2 4 5 -8 12
-26 16 -18 4 -40 13 -48 19 -8 7 -37 13 -65 14 -27 2 -51 5 -53 7 -2 2 6 17
18 33 12 17 19 35 16 41 -10 16 -57 13 -80 -4 -11 -8 -30 -15 -43 -15 -22 0
-48 -31 -36 -44 3 -3 17 -3 29 0 38 10 32 -31 -7 -50 -29 -15 -32 -14 -72 15
-42 31 -76 32 -119 6 -9 -6 -20 -8 -24 -4 -11 11 61 75 93 82 59 14 78 22 78
36 0 19 -31 20 -90 2z"/>
<path d="M3620 2563 c-8 -2 -30 -26 -47 -53 l-33 -49 38 -7 c20 -4 39 -11 42
-15 4 -5 20 -11 37 -15 26 -5 33 -1 51 24 12 16 26 41 31 55 9 24 7 26 -22 33
-18 3 -41 13 -52 20 -11 8 -22 13 -25 13 -3 -1 -12 -3 -20 -6z m54 -49 c8 -21
-1 -34 -24 -34 -10 0 -21 4 -24 9 -10 16 5 41 24 41 10 0 21 -7 24 -16z"/>
<path d="M3002 2507 c-18 -25 -32 -55 -32 -66 0 -12 -4 -21 -10 -21 -13 0 -60
-52 -60 -68 0 -7 -7 -15 -16 -19 -9 -3 -14 -15 -12 -30 2 -17 -4 -27 -21 -36
-13 -7 -29 -21 -35 -32 -6 -11 -17 -24 -23 -28 -7 -4 -13 -15 -13 -23 0 -8 -7
-17 -15 -20 -18 -7 -20 -45 -3 -62 7 -7 27 -12 46 -12 18 0 43 -5 54 -11 26
-14 68 6 68 33 0 10 4 18 10 18 5 0 12 11 16 24 3 14 12 27 19 30 8 3 11 13 8
25 -4 15 -13 21 -33 21 -39 0 -60 9 -60 26 0 10 14 14 50 14 28 0 50 -4 50
-10 0 -5 21 -10 46 -10 31 0 54 -7 71 -20 14 -11 39 -20 55 -20 16 0 40 -7 54
-16 24 -16 26 -16 49 6 14 13 25 29 25 37 0 7 4 13 9 13 18 0 21 33 5 51 -13
14 -31 19 -69 19 -35 0 -57 5 -65 15 -8 9 -30 15 -57 15 -30 0 -45 5 -49 15
-4 8 -18 15 -33 15 -33 0 -56 14 -47 29 11 17 85 13 103 -5 12 -12 27 -14 57
-10 34 5 44 3 58 -14 30 -34 52 -26 92 33 28 41 31 53 16 62 -11 7 -51 -12
-48 -23 1 -4 -2 -15 -6 -24 -10 -22 -35 -23 -51 -2 -9 13 -16 14 -33 5 -28
-15 -68 -14 -84 3 -8 8 -23 15 -33 17 -10 2 -20 10 -23 17 -5 15 41 16 69 2
25 -14 151 -1 146 14 -2 6 -27 12 -55 14 -36 2 -52 7 -52 17 0 14 -13 20 -70
30 -33 6 -38 4 -68 -38z m-12 -192 c0 -16 -17 -19 -44 -9 -22 9 -10 24 20 24
15 0 24 -6 24 -15z m138 -12 c-3 -14 -13 -18 -41 -17 -21 1 -41 4 -45 8 -11
11 20 26 56 26 27 0 33 -4 30 -17z"/>
<path d="M4369 2521 c-19 -23 -49 -80 -49 -92 0 -5 14 -9 30 -9 17 0 41 -7 54
-15 26 -18 76 -11 76 10 0 6 9 23 20 35 28 32 22 54 -15 58 -16 2 -32 7 -35
11 -3 4 -19 11 -36 14 -22 4 -34 1 -45 -12z m56 -71 c-5 -8 -11 -8 -17 -2 -6
6 -7 16 -3 22 5 8 11 8 17 2 6 -6 7 -16 3 -22z"/>
<path d="M4867 2505 c-23 -32 -17 -51 20 -58 15 -3 49 -11 74 -18 41 -10 49
-10 72 7 15 10 27 24 27 29 0 16 -41 38 -85 46 -22 4 -51 10 -65 14 -19 4 -29
-1 -43 -20z"/>
<path d="M3787 2495 c-10 -9 -17 -23 -17 -31 0 -8 -4 -14 -10 -14 -16 0 -11
-47 6 -54 9 -3 31 -6 49 -6 21 0 35 -6 39 -16 6 -15 9 -15 29 4 12 11 31 37
41 57 25 46 12 61 -65 70 -45 6 -59 4 -72 -10z m73 -29 c0 -8 -5 -18 -11 -22
-14 -8 -33 11 -25 25 10 16 36 13 36 -3z"/>
<path d="M4563 2468 c-46 -72 -44 -94 8 -101 22 -3 48 -12 58 -21 16 -15 19
-15 37 1 10 10 28 35 38 55 l19 37 -24 21 c-32 26 -53 21 -59 -14 -5 -30 -33
-56 -47 -43 -4 5 -2 11 4 15 11 7 16 26 14 50 0 6 -10 12 -20 12 -11 0 -23 -6
-28 -12z"/>
<path d="M5078 2456 c-10 -13 -14 -32 -11 -45 4 -17 13 -21 44 -21 21 0 40 -4
44 -9 3 -5 19 -12 35 -16 24 -5 36 -2 55 17 14 12 25 26 25 30 0 17 -34 38
-63 38 -18 0 -41 7 -51 15 -28 21 -58 18 -78 -9z"/>
<path d="M3975 2433 c-11 -20 -26 -42 -32 -49 -19 -18 22 -41 88 -49 53 -6 54
-6 77 28 12 18 22 43 22 55 0 19 -6 22 -39 22 -22 0 -44 6 -51 15 -21 25 -44
17 -65 -22z m80 -34 c-9 -14 -45 -11 -45 4 0 8 3 17 6 20 10 9 46 -12 39 -24z"/>
<path d="M3343 2417 c-37 -53 -31 -74 22 -81 24 -4 47 -11 50 -17 9 -14 45
-11 45 4 0 12 9 25 49 74 15 17 -26 39 -89 47 -54 6 -55 6 -77 -27z m95 -14
c2 -8 -6 -13 -22 -13 -17 0 -26 5 -26 16 0 19 41 16 48 -3z"/>
<path d="M4767 2423 c-6 -16 -15 -30 -19 -33 -11 -9 -19 -54 -11 -66 5 -5 35
-15 67 -21 56 -10 61 -9 78 11 25 30 41 73 34 91 -7 19 -55 20 -62 0 -8 -21
-34 -19 -34 3 0 19 -18 42 -32 42 -5 0 -14 -12 -21 -27z m56 -67 c7 -16 -1
-26 -20 -26 -7 0 -13 9 -13 20 0 23 25 27 33 6z"/>
<path d="M2210 2433 c0 -4 12 -16 26 -27 26 -18 26 -18 22 5 -2 16 -11 25 -25
27 -13 2 -23 0 -23 -5z"/>
<path d="M3549 2383 c-13 -21 -27 -39 -31 -41 -12 -6 -9 -38 5 -50 19 -16 76
-24 113 -18 25 5 34 12 34 27 0 11 7 22 15 25 8 4 15 16 15 29 0 19 -7 23 -42
28 -23 3 -45 13 -50 21 -15 26 -35 18 -59 -21z m71 -33 c0 -11 -6 -20 -13 -20
-19 0 -27 10 -20 26 8 21 33 17 33 -6z"/>
<path d="M4183 2396 c-57 -74 -60 -89 -23 -94 14 -2 30 -8 35 -12 10 -8 46
-13 80 -11 13 1 26 15 38 40 24 52 22 71 -7 71 -13 0 -37 7 -52 15 -39 20 -50
19 -71 -9z m65 -33 c-5 -25 -28 -28 -28 -4 0 12 6 21 16 21 9 0 14 -7 12 -17z"/>
<path d="M5291 2396 c-7 -13 -10 -33 -6 -45 5 -18 14 -21 54 -21 57 0 78 -17
61 -49 -6 -12 -15 -21 -20 -21 -6 0 -10 -8 -10 -19 0 -10 -7 -24 -15 -31 -8
-7 -15 -22 -15 -35 0 -19 5 -22 47 -23 32 0 51 -6 59 -17 20 -27 44 -14 71 36
20 40 22 50 12 73 -11 23 -16 25 -50 20 -25 -4 -44 -2 -54 6 -14 11 -11 17 21
45 48 43 42 62 -26 85 -77 27 -114 26 -129 -4z"/>
<path d="M4968 2368 c-8 -13 -18 -33 -22 -45 -4 -13 -12 -23 -17 -23 -5 0 -9
-7 -9 -15 0 -8 8 -15 19 -15 10 0 32 -7 47 -15 64 -33 106 -14 132 62 10 31 9
33 -15 39 -15 4 -34 2 -45 -5 -17 -11 -19 -10 -14 7 5 15 1 21 -16 26 -37 9
-45 7 -60 -16z m62 -63 c0 -16 -6 -25 -15 -25 -9 0 -15 9 -15 25 0 16 6 25 15
25 9 0 15 -9 15 -25z"/>
<path d="M2155 2369 c-49 -4 -102 -6 -117 -3 -16 3 -36 -1 -49 -9 -19 -14 -19
-16 -3 -25 9 -5 34 -7 53 -5 20 3 75 -2 123 -11 81 -15 88 -15 117 1 17 10 31
23 31 30 0 14 -32 34 -52 32 -7 -1 -53 -6 -103 -10z"/>
<path d="M5506 2346 c-21 -32 -20 -34 7 -57 14 -12 38 -18 70 -19 26 0 47 -4
47 -9 0 -6 -11 -22 -25 -37 -14 -15 -25 -33 -25 -40 0 -7 -7 -20 -16 -28 -29
-30 -13 -50 46 -59 30 -4 57 -12 58 -17 6 -17 39 -11 46 8 3 9 13 28 21 42 8
14 14 36 13 50 -2 20 -8 25 -28 24 -14 -1 -33 -4 -42 -8 -11 -5 -20 -1 -28 14
-14 27 -5 56 20 63 13 3 20 14 20 30 0 21 -7 28 -47 40 -94 30 -119 30 -137 3z
m154 -211 c0 -8 -7 -15 -15 -15 -8 0 -15 7 -15 15 0 8 7 15 15 15 8 0 15 -7
15 -15z"/>
<path d="M1877 2353 c-11 -11 -8 -30 6 -36 6 -2 23 0 37 5 24 9 24 10 6 24
-21 15 -39 18 -49 7z"/>
<path d="M3745 2334 c-14 -15 -25 -32 -25 -39 0 -7 -7 -18 -15 -25 -19 -16
-10 -30 19 -30 12 0 27 -5 32 -10 6 -6 26 -12 46 -15 28 -4 39 0 55 19 12 13
24 33 28 45 3 12 11 21 16 21 17 0 9 20 -8 20 -10 1 -36 9 -58 20 -53 25 -61
25 -90 -6z m75 -23 c0 -20 -13 -41 -25 -41 -18 0 -26 15 -19 34 6 17 44 23 44
7z"/>
<path d="M4374 2334 c-11 -16 -25 -41 -32 -56 -11 -27 -10 -28 16 -28 15 -1
45 -9 66 -19 48 -23 60 -19 80 24 9 19 21 37 26 40 33 20 -13 50 -91 61 -43 6
-47 4 -65 -22z m84 -22 c2 -7 -6 -12 -17 -12 -21 0 -27 11 -14 24 9 9 26 2 31
-12z"/>
<path d="M5178 2316 c-10 -7 -18 -20 -18 -28 0 -9 -7 -21 -15 -28 -8 -7 -15
-21 -15 -31 0 -14 7 -19 30 -19 17 0 42 -7 55 -16 30 -20 65 -15 79 11 6 11
14 22 18 25 3 3 9 17 13 31 6 23 2 29 -24 42 -46 23 -103 29 -123 13z m62 -66
c0 -11 -6 -20 -14 -20 -18 0 -29 16 -21 30 11 18 35 11 35 -10z"/>
<path d="M1270 2305 c-15 -18 -5 -35 20 -35 23 0 32 13 24 34 -8 20 -28 21
-44 1z"/>
<path d="M1337 2314 c-10 -11 3 -24 24 -24 10 0 19 7 19 15 0 15 -31 21 -43 9z"/>
<path d="M4590 2311 c0 -6 -14 -30 -31 -55 -17 -25 -27 -50 -24 -56 3 -5 23
-10 43 -10 20 0 50 -7 66 -15 36 -19 42 -19 50 3 3 9 14 31 24 47 26 41 18 65
-22 65 -17 0 -44 7 -60 15 -33 17 -46 19 -46 6z m70 -55 c0 -16 -27 -29 -41
-20 -19 11 -9 34 16 34 15 0 25 -6 25 -14z"/>
<path d="M5733 2308 c-40 -52 -8 -85 90 -95 60 -5 64 -4 80 20 17 26 16 27 -6
42 -13 8 -45 19 -73 24 -27 5 -56 12 -65 16 -9 3 -20 0 -26 -7z"/>
<path d="M1945 2282 c5 -26 2 -36 -24 -61 -42 -41 -39 -60 3 -27 55 41 70 37
133 -38 21 -26 22 -26 33 -7 10 20 4 118 -9 140 -4 6 -38 14 -75 18 l-68 6 7
-31z"/>
<path d="M1430 2290 c0 -5 16 -10 36 -10 21 0 33 4 29 10 -3 6 -19 10 -36 10
-16 0 -29 -4 -29 -10z"/>
<path d="M1832 2288 c-14 -14 -16 -48 -2 -48 10 0 30 32 30 49 0 14 -13 14
-28 -1z"/>
<path d="M3949 2288 c-24 -19 -57 -81 -52 -95 3 -7 20 -13 39 -13 19 0 45 -7
59 -16 18 -12 28 -13 44 -4 12 6 21 17 21 24 0 7 9 23 20 36 11 13 20 26 20
30 0 32 -121 62 -151 38z m64 -25 c9 -9 -13 -34 -24 -27 -14 8 -11 34 4 34 8
0 17 -3 20 -7z"/>
<path d="M3373 2283 c-7 -2 -13 -9 -13 -14 0 -6 -9 -23 -21 -38 -11 -16 -19
-39 -17 -52 3 -21 9 -24 48 -27 25 -2 49 -7 55 -13 15 -15 21 -11 51 34 16 23
33 45 38 48 5 4 6 14 3 23 -5 12 -20 16 -57 16 -38 0 -50 4 -50 15 0 15 -14
18 -37 8z m71 -55 c23 -32 20 -38 -16 -31 -43 8 -54 18 -38 38 18 21 36 19 54
-7z"/>
<path d="M1201 2261 c-11 -7 -9 -11 8 -20 24 -13 41 -7 41 15 0 16 -27 19 -49
5z"/>
<path d="M1617 2263 c-4 -3 -7 -17 -7 -30 0 -33 24 -24 28 10 3 26 -7 35 -21
20z"/>
<path d="M2159 2250 c-18 -15 -20 -19 -8 -20 25 0 79 21 79 31 0 16 -47 9 -71
-11z"/>
<path d="M4796 2258 c-3 -7 -15 -26 -26 -43 -32 -49 -34 -57 -16 -70 23 -17
139 -30 144 -16 2 6 11 18 19 27 8 8 16 29 17 47 1 31 -1 32 -41 35 -23 2 -47
10 -53 18 -15 17 -36 18 -44 2z m54 -63 c0 -8 -7 -15 -15 -15 -8 0 -15 7 -15
15 0 8 7 15 15 15 8 0 15 -7 15 -15z"/>
<path d="M2484 2188 c-11 -95 -11 -91 4 -96 18 -6 112 93 112 118 0 21 -7 26
-50 34 -14 2 -32 7 -41 11 -14 5 -18 -5 -25 -67z"/>
<path d="M4130 2218 c-16 -22 -30 -52 -30 -65 0 -19 5 -23 31 -23 17 0 46 -7
65 -16 33 -16 36 -16 53 3 10 11 22 29 25 41 4 12 12 22 17 22 6 0 9 10 7 23
-2 18 -11 23 -50 27 -27 3 -53 11 -60 18 -19 19 -26 15 -58 -30z m88 -25 c-2
-10 -12 -18 -23 -18 -11 0 -21 8 -23 18 -3 13 3 17 23 17 20 0 26 -4 23 -17z"/>
<path d="M5946 2241 c-25 -27 -17 -55 16 -59 15 -2 32 -10 38 -18 7 -8 21 -14
32 -14 11 0 28 -5 39 -10 14 -8 25 -7 43 5 52 34 35 80 -32 90 -20 3 -51 10
-68 15 -42 14 -48 13 -68 -9z"/>
<path d="M3555 2214 c-14 -14 -25 -31 -25 -39 0 -8 -4 -15 -10 -15 -5 0 -10
-8 -10 -18 0 -26 51 -52 104 -52 41 0 48 3 59 28 6 15 17 33 24 40 22 23 15
42 -15 42 -15 0 -36 6 -47 13 -39 27 -54 27 -80 1z m65 -43 c0 -11 -4 -22 -8
-25 -14 -9 -35 12 -29 28 9 23 37 20 37 -3z"/>
<path d="M1164 2206 c-17 -13 -17 -15 -2 -21 27 -11 63 -1 66 18 4 22 -35 24
-64 3z"/>
<path d="M1582 2201 c-8 -5 -10 -18 -6 -39 8 -41 20 -41 29 -1 8 34 -3 53 -23
40z"/>
<path d="M4326 2158 c-31 -49 -33 -54 -18 -70 8 -10 27 -18 41 -18 14 0 40 -4
58 -9 34 -10 50 3 85 67 19 35 15 42 -21 42 -15 0 -43 9 -64 20 -20 11 -39 20
-42 20 -3 0 -20 -24 -39 -52z m95 -8 c5 0 9 -7 9 -15 0 -10 -10 -15 -30 -15
-18 0 -30 5 -30 13 0 19 12 29 28 22 7 -3 18 -5 23 -5z"/>
<path d="M5000 2197 c-21 -18 -60 -93 -53 -101 4 -3 16 -6 29 -6 12 0 24 -4
26 -9 2 -4 24 -11 50 -15 42 -6 48 -5 59 16 7 13 16 26 21 29 5 3 10 18 11 33
2 23 -4 30 -38 43 -58 22 -88 25 -105 10z m68 -55 c3 -16 -2 -22 -16 -22 -25
0 -31 7 -25 31 7 27 37 20 41 -9z"/>
<path d="M2673 2156 c-33 -42 -41 -66 -25 -66 13 0 42 34 42 49 0 6 7 23 16
36 27 42 1 27 -33 -19z"/>
<path d="M3018 2175 c-21 -28 -23 -62 -5 -68 6 -2 1 -2 -12 0 -21 4 -61 -20
-61 -36 0 -13 66 -40 110 -46 42 -5 47 -3 68 24 12 17 22 34 22 39 0 5 7 15
15 22 8 7 15 23 15 36 0 21 -5 24 -34 24 -19 0 -41 7 -50 15 -21 22 -48 18
-68 -10z m62 -95 c0 -5 -6 -10 -14 -10 -8 0 -18 5 -21 10 -3 6 3 10 14 10 12
0 21 -4 21 -10z"/>
<path d="M3763 2174 c-6 -3 -23 -27 -37 -54 l-26 -50 28 -6 c15 -4 32 -10 37
-15 6 -4 27 -9 47 -11 38 -2 61 13 72 50 4 12 12 22 17 22 5 0 9 8 9 18 0 13
-16 22 -58 35 -60 18 -69 19 -89 11z m57 -42 c0 -13 -36 -43 -43 -36 -10 10
12 44 28 44 8 0 15 -4 15 -8z"/>
<path d="M5809 2162 c-9 -10 -19 -31 -23 -45 -3 -15 -11 -27 -16 -27 -6 0 -10
-6 -10 -13 0 -19 38 -36 90 -39 42 -3 45 -1 48 25 3 25 32 41 32 17 0 -5 6
-10 14 -10 8 0 27 -5 43 -11 22 -8 24 -12 13 -19 -8 -6 -32 -10 -53 -10 -51 0
-45 -23 8 -30 47 -6 60 -30 17 -30 -16 0 -35 -7 -42 -15 -16 -19 -30 -19 -30
-1 0 8 -7 22 -16 31 -16 15 -18 15 -38 -7 -23 -25 -53 -104 -43 -114 3 -4 27
-9 52 -12 55 -6 59 -31 7 -46 -27 -8 -38 -5 -62 12 -17 13 -44 22 -65 22 -19
0 -52 9 -72 20 l-38 20 -20 -23 c-24 -26 -49 -93 -40 -107 3 -5 25 -10 48 -10
24 0 51 -6 62 -14 11 -7 39 -16 62 -19 23 -3 50 -12 58 -21 9 -9 24 -16 33
-16 9 0 26 -3 38 -6 17 -4 26 2 43 32 27 45 38 94 22 94 -24 0 -9 28 19 33 22
5 31 14 36 34 4 15 13 37 20 47 8 11 11 30 8 43 -4 15 -1 25 9 29 26 10 57 72
57 115 l0 39 -38 -6 c-28 -4 -41 -2 -51 10 -9 10 -29 16 -56 16 -26 0 -48 6
-55 15 -17 21 -52 19 -71 -3z m91 -268 c0 -8 -7 -14 -15 -14 -15 0 -21 21 -9
33 10 9 24 -2 24 -19z m-90 -145 c0 -5 12 -14 28 -20 25 -10 26 -12 7 -19 -12
-4 -34 -2 -54 7 -43 17 -45 19 -38 36 6 16 57 12 57 -4z"/>
<path d="M1795 2150 c-7 -12 2 -30 16 -30 5 0 9 9 9 20 0 21 -15 27 -25 10z"/>
<path d="M4550 2132 c-20 -24 -54 -91 -49 -96 11 -10 103 -36 128 -36 23 0 32
8 54 53 l26 52 -32 10 c-18 6 -36 13 -42 16 -5 4 -24 10 -40 13 -22 5 -34 2
-45 -12z m60 -57 c0 -8 -7 -15 -15 -15 -8 0 -15 7 -15 15 0 8 7 15 15 15 8 0
15 -7 15 -15z"/>
<path d="M5208 2143 c-10 -2 -18 -11 -18 -19 0 -8 -10 -28 -21 -43 -25 -34
-18 -51 21 -51 16 0 32 -4 35 -10 3 -5 25 -10 49 -10 40 0 44 2 64 44 12 24
22 46 22 48 0 24 -110 53 -152 41z m66 -32 c9 -14 -4 -41 -20 -41 -8 0 -14 10
-14 25 0 25 23 35 34 16z"/>
<path d="M3233 2133 c-13 -2 -23 -11 -23 -19 0 -8 -7 -17 -15 -20 -24 -10 -18
-34 9 -34 13 0 29 -7 36 -15 10 -12 6 -13 -27 -8 -62 10 -68 9 -71 -14 -2 -17
3 -23 27 -28 17 -4 33 -11 36 -16 10 -16 105 -11 110 6 9 27 15 39 34 70 11
17 20 38 20 49 1 15 -4 17 -24 12 -18 -5 -27 -2 -31 9 -6 15 -33 17 -81 8z"/>
<path d="M6690 2115 c0 -15 4 -24 10 -20 6 3 10 12 10 20 0 8 -4 17 -10 20 -6
4 -10 -5 -10 -20z"/>
<path d="M3932 2079 c-36 -54 -36 -85 -2 -74 13 4 31 0 45 -9 13 -9 37 -16 52
-16 23 0 33 9 55 49 26 45 27 49 10 63 -9 9 -35 18 -57 21 -22 3 -47 8 -55 11
-11 4 -25 -9 -48 -45z m82 5 c12 -5 13 -9 3 -25 -15 -24 -37 -25 -37 -1 0 28
9 36 34 26z"/>
<path d="M1051 2106 c-14 -17 -7 -36 15 -36 15 0 18 18 5 38 -6 10 -10 10 -20
-2z"/>
<path d="M5418 2089 c-10 -5 -18 -16 -18 -24 0 -7 -6 -20 -13 -27 -38 -38 -27
-68 26 -68 15 0 39 -7 52 -16 34 -22 58 -11 84 41 30 61 18 85 -44 85 -24 0
-47 5 -50 10 -8 12 -15 12 -37 -1z m62 -75 c0 -8 -7 -14 -15 -14 -15 0 -21 21
-9 33 10 9 24 -2 24 -19z"/>
<path d="M3408 2069 c-10 -10 -18 -21 -18 -24 0 -2 -13 -24 -29 -47 -31 -46
-31 -58 0 -58 11 0 32 -6 47 -14 15 -7 53 -17 84 -20 55 -7 58 -6 67 17 6 14
15 28 20 32 6 3 11 13 11 22 0 9 7 21 16 28 21 14 10 57 -12 48 -7 -3 -14 -11
-14 -19 0 -8 -10 -14 -25 -14 -20 0 -27 6 -31 30 -6 26 -11 30 -39 30 -19 0
-39 2 -47 4 -7 2 -21 -4 -30 -15z m30 -86 c-10 -2 -26 -2 -35 0 -10 3 -2 5 17
5 19 0 27 -2 18 -5z m92 -23 c0 -5 -13 -10 -30 -10 -16 0 -30 5 -30 10 0 6 14
10 30 10 17 0 30 -4 30 -10z"/>
<path d="M4758 2079 c-10 -5 -18 -14 -18 -20 0 -5 -10 -23 -21 -38 -23 -31
-19 -51 10 -51 10 0 35 -7 56 -16 21 -8 47 -13 59 -10 20 5 66 72 66 96 0 14
-78 50 -110 49 -14 0 -33 -4 -42 -10z m66 -27 c9 -15 -6 -52 -20 -52 -9 0 -14
11 -14 30 0 29 21 42 34 22z"/>
<path d="M4151 2054 c-12 -15 -21 -33 -21 -40 0 -8 -4 -14 -10 -14 -5 0 -10
-11 -10 -24 0 -20 6 -24 46 -29 26 -2 50 -10 54 -17 10 -16 60 -5 60 14 0 7 9
23 20 36 22 25 23 30 14 54 -4 10 -18 16 -38 16 -17 0 -44 7 -60 15 -35 19
-31 20 -55 -11z m79 -39 c0 -7 -7 -18 -16 -26 -13 -10 -17 -10 -25 2 -12 20
-11 37 4 42 18 6 37 -3 37 -18z"/>
<path d="M1120 2046 c0 -7 10 -16 22 -19 27 -7 32 -3 25 18 -8 19 -47 20 -47
1z"/>
<path d="M1227 2053 c-13 -12 -7 -23 13 -23 11 0 20 7 20 15 0 15 -21 21 -33
8z"/>
<path d="M1590 1998 c0 -32 4 -58 10 -58 13 0 13 80 0 100 -7 11 -10 -2 -10
-42z"/>
<path d="M4967 2030 c-9 -9 -17 -22 -17 -28 0 -6 -7 -17 -15 -26 -8 -8 -16
-25 -17 -38 -3 -19 2 -23 31 -26 19 -2 44 -10 56 -18 26 -17 75 -9 75 11 0 8
6 20 14 27 21 22 29 57 16 73 -7 8 -27 15 -44 15 -17 0 -42 6 -56 13 -22 11
-28 11 -43 -3z m63 -60 c0 -10 -5 -22 -10 -25 -13 -8 -24 20 -16 41 8 20 26 9
26 -16z"/>
<path d="M5630 2035 c-17 -21 -50 -87 -50 -102 0 -7 6 -13 13 -14 60 -5 76 -9
101 -22 36 -20 41 -17 66 38 22 48 24 63 11 84 -7 11 -14 11 -39 -2 -29 -14
-32 -14 -53 9 -26 28 -32 29 -49 9z m60 -75 c0 -11 -7 -20 -15 -20 -8 0 -15 9
-15 20 0 11 7 20 15 20 8 0 15 -9 15 -20z"/>
<path d="M6651 1997 c-12 -24 -21 -50 -21 -59 0 -9 -7 -21 -15 -28 -8 -7 -15
-23 -15 -35 0 -12 -7 -28 -15 -35 -8 -7 -15 -21 -15 -31 0 -9 -7 -24 -15 -33
-8 -8 -15 -20 -15 -26 0 -13 -21 -66 -46 -113 -18 -37 -18 -68 0 -61 7 3 26
37 41 77 15 40 38 95 50 122 12 28 30 70 40 95 10 25 29 67 42 94 12 28 23 56
23 63 0 26 -19 12 -39 -30z"/>
<path d="M828 1988 c-18 -24 -40 -50 -48 -59 -22 -23 -52 -60 -79 -100 -14
-19 -30 -38 -37 -42 -7 -4 -34 -36 -60 -70 -26 -34 -60 -74 -76 -89 -15 -15
-28 -32 -28 -37 0 -6 -4 -11 -10 -11 -5 0 -10 -7 -10 -16 0 -23 92 72 169 174
34 45 65 82 70 82 4 0 29 29 55 65 26 36 55 73 64 82 22 22 43 63 32 63 -4 0
-23 -19 -42 -42z"/>
<path d="M4373 2020 c-13 -5 -23 -16 -23 -24 0 -8 -7 -22 -16 -30 -8 -9 -14
-28 -12 -43 3 -25 8 -29 45 -34 23 -3 48 -11 56 -18 12 -10 20 -10 36 1 12 7
21 18 21 25 0 6 7 19 16 27 8 9 14 28 12 42 -3 23 -8 27 -40 29 -20 1 -44 9
-53 18 -9 10 -17 17 -18 16 -1 0 -12 -4 -24 -9z m64 -56 c8 -22 -11 -37 -36
-29 -23 7 -28 30 -8 38 23 10 38 7 44 -9z"/>
<path d="M740 2002 c-8 -9 -22 -28 -31 -42 -9 -14 -44 -54 -78 -90 -33 -36
-61 -68 -61 -72 0 -4 -16 -24 -35 -45 -34 -37 -42 -53 -28 -53 10 0 86 82 123
133 18 26 37 47 42 47 4 0 8 5 8 11 0 6 6 16 13 23 6 8 19 24 27 36 8 12 23
31 33 42 19 23 21 28 9 28 -4 0 -14 -8 -22 -18z"/>
<path d="M1004 2005 c-6 -14 3 -52 10 -44 2 2 6 16 10 32 7 29 -10 39 -20 12z"/>
<path d="M3660 2011 c0 -5 -16 -30 -35 -55 -19 -26 -35 -52 -35 -59 0 -17 63
-47 99 -47 16 0 42 -7 57 -15 16 -8 41 -15 55 -15 15 0 40 -7 55 -15 16 -8 40
-15 54 -15 14 -1 36 -7 50 -15 14 -8 39 -15 55 -15 17 0 41 -7 55 -15 14 -8
39 -15 55 -15 17 0 41 -7 55 -15 14 -8 39 -15 55 -15 17 0 41 -7 55 -15 14 -8
37 -14 51 -15 15 0 40 -7 55 -15 16 -8 40 -15 54 -15 14 -1 36 -7 50 -15 51
-29 84 -12 105 55 4 14 11 27 15 30 9 6 13 26 11 53 -1 13 -10 17 -44 17 -24
0 -52 7 -63 15 -10 8 -38 15 -61 15 -23 0 -48 7 -57 15 -8 8 -32 15 -56 15
-27 0 -43 5 -46 15 -4 10 -21 15 -54 15 -30 0 -52 6 -60 15 -7 9 -29 15 -55
15 -26 0 -48 6 -55 15 -8 9 -30 15 -60 15 -30 0 -52 6 -60 15 -7 8 -29 15 -50
15 -21 0 -43 7 -50 15 -8 10 -30 15 -62 15 -34 0 -50 4 -54 15 -7 17 -84 22
-84 6z m799 -250 c33 -17 34 -19 13 -25 -26 -9 -85 9 -102 30 -11 12 -7 14 21
14 19 -1 49 -9 68 -19z"/>
<path d="M5171 1964 c-12 -15 -21 -33 -21 -40 0 -8 -4 -14 -10 -14 -5 0 -10
-13 -10 -30 0 -28 2 -30 39 -30 22 0 43 -4 46 -10 3 -5 21 -10 39 -10 28 0 35
5 55 45 31 63 22 85 -34 85 -25 0 -50 6 -59 15 -19 20 -21 19 -45 -11z"/>
<path d="M4578 1963 c-10 -2 -18 -11 -18 -18 0 -7 -6 -20 -13 -27 -44 -44 -26
-83 42 -92 27 -4 51 -11 53 -18 7 -19 47 14 53 44 4 15 11 28 16 28 6 0 9 12
7 28 -2 22 -9 28 -33 30 -16 2 -38 10 -49 18 -21 14 -28 15 -58 7z m67 -68 c0
-22 -22 -30 -44 -16 -21 14 -5 43 21 39 15 -2 23 -10 23 -23z"/>
<path d="M567 1911 c-20 -22 -37 -42 -37 -45 0 -3 -11 -17 -25 -32 -24 -26
-35 -61 -15 -49 6 3 10 11 10 16 0 6 13 22 28 37 34 33 85 102 80 107 -2 3
-21 -13 -41 -34z"/>
<path d="M1442 1937 c-21 -10 -23 -15 -17 -59 6 -41 4 -52 -10 -62 -12 -9 -14
-15 -7 -20 14 -9 61 72 69 118 6 38 2 41 -35 23z"/>
<path d="M5388 1918 c-8 -13 -18 -33 -22 -45 -4 -13 -12 -23 -17 -23 -5 0 -9
-11 -9 -25 0 -22 5 -25 50 -31 28 -4 53 -11 56 -15 3 -5 16 -9 29 -9 20 0 29
11 50 55 14 31 25 58 25 61 0 2 -12 9 -26 15 -21 7 -31 6 -46 -8 -17 -15 -21
-15 -28 -3 -6 8 -10 20 -10 26 0 10 -21 24 -35 24 -1 0 -9 -10 -17 -22z"/>
<path d="M935 1894 c-8 -20 -15 -40 -15 -45 0 -5 -13 -15 -30 -24 -16 -9 -30
-21 -30 -28 0 -19 21 -37 42 -37 14 0 18 7 16 33 -3 28 0 32 24 35 17 2 34 -4
47 -17 20 -20 61 -29 61 -15 0 4 -16 22 -35 41 -24 24 -35 43 -35 63 0 42 -26
38 -45 -6z"/>
<path d="M4800 1903 c-25 -4 -70 -65 -70 -96 0 -21 39 -36 105 -39 56 -3 60
-1 63 20 2 13 10 26 18 29 8 3 14 18 14 34 0 22 -5 29 -19 29 -10 0 -34 6 -52
13 -19 7 -45 11 -59 10z m55 -33 c3 -6 -1 -13 -10 -16 -19 -8 -30 0 -20 15 8
14 22 14 30 1z"/>
<path d="M4987 1842 c-2 -4 -16 -28 -31 -54 l-27 -47 33 -15 c18 -8 57 -18 85
-21 51 -7 53 -6 64 21 5 16 14 31 18 34 5 3 11 15 15 27 6 19 2 25 -26 36 -40
17 -126 29 -131 19z m73 -37 c0 -8 -4 -15 -9 -15 -13 0 -22 16 -14 24 11 11
23 6 23 -9z"/>
<path d="M8964 1793 c-10 -46 -25 -97 -34 -118 -5 -11 -14 -31 -20 -45 -6 -14
-19 -38 -29 -55 -29 -45 -26 -64 13 -80 19 -8 36 -24 40 -37 6 -22 7 -22 18
-4 8 14 8 24 -1 37 -6 11 -11 36 -11 58 0 32 4 41 23 47 12 5 25 7 30 6 4 -1
7 48 7 108 0 90 -3 110 -15 110 -8 0 -17 -12 -21 -27z"/>
<path d="M1167 1783 c-21 -20 -4 -40 51 -56 66 -19 95 -21 120 -8 9 6 29 12
45 16 15 3 27 9 27 14 0 16 -29 20 -59 10 -21 -7 -36 -7 -50 0 -11 6 -38 11
-60 11 -22 0 -43 5 -46 10 -7 12 -19 13 -28 3z"/>
<path d="M5176 1746 c-14 -25 -26 -51 -26 -60 0 -18 31 -37 80 -47 19 -4 45
-11 57 -14 19 -6 25 -1 42 36 42 94 33 110 -71 122 l-56 7 -26 -44z"/>
<path d="M4679 1720 c-6 -16 -15 -30 -20 -30 -5 0 -9 -8 -9 -19 0 -10 -9 -25
-20 -32 -30 -21 -16 -59 22 -59 16 0 41 -6 56 -14 15 -7 50 -16 79 -20 50 -6
52 -6 67 25 9 18 16 38 16 44 0 7 7 18 15 25 8 7 15 23 15 36 0 19 -5 24 -24
24 -14 0 -28 5 -31 10 -3 6 -28 10 -56 10 -27 0 -49 -4 -49 -10 0 -5 -9 -10
-20 -10 -25 0 -26 25 -2 39 15 9 14 10 -6 11 -17 0 -26 -8 -33 -30z m87 -95
c4 -8 17 -15 30 -15 13 0 24 -4 24 -10 0 -13 -25 -13 -48 -1 -9 6 -34 13 -54
16 -50 8 -48 25 2 25 27 0 43 -5 46 -15z"/>
<path d="M5413 1723 c-7 -2 -13 -13 -13 -22 0 -10 -9 -26 -20 -36 -31 -28 -25
-49 20 -63 22 -6 53 -12 70 -12 16 0 47 -9 67 -20 21 -11 45 -20 53 -20 9 0
20 -4 26 -9 5 -6 27 -14 49 -20 22 -5 60 -17 84 -26 24 -9 50 -14 57 -11 20 8
66 113 59 135 -4 14 -18 21 -53 25 -108 12 -163 23 -174 34 -7 7 -26 12 -43
12 -17 0 -39 6 -50 14 -21 14 -112 28 -132 19z m362 -153 c3 -6 -1 -13 -9 -16
-21 -8 -66 3 -66 16 0 13 67 13 75 0z"/>
<path d="M140 1688 c0 -7 5 -20 10 -28 8 -12 10 -11 10 7 0 12 -4 25 -10 28
-5 3 -10 0 -10 -7z"/>
<path d="M1125 1691 c-5 -9 24 -31 39 -31 13 0 5 28 -10 34 -20 8 -22 8 -29
-3z"/>
<path d="M3439 1648 c-22 -49 -41 -78 -50 -78 -5 0 -9 -9 -9 -20 0 -11 -7 -23
-15 -26 -8 -4 -15 -16 -15 -29 0 -13 -7 -25 -15 -29 -8 -3 -15 -12 -15 -20 0
-7 -7 -16 -15 -20 -8 -3 -15 -15 -15 -26 0 -11 -7 -23 -15 -26 -8 -4 -15 -14
-15 -24 0 -10 -7 -20 -15 -24 -8 -3 -15 -14 -15 -25 0 -10 -7 -21 -15 -25 -8
-3 -15 -15 -15 -26 0 -11 -7 -23 -15 -26 -8 -4 -15 -14 -15 -24 0 -10 -7 -20
-15 -24 -8 -3 -15 -14 -15 -25 0 -10 -7 -21 -15 -25 -8 -3 -15 -14 -15 -25 0
-10 -7 -21 -15 -25 -8 -3 -15 -11 -15 -17 0 -7 -7 -17 -17 -24 -9 -7 -14 -19
-10 -29 8 -21 23 -21 31 2 3 9 15 31 26 47 11 17 24 40 30 53 5 12 14 22 20
22 5 0 10 11 10 24 0 13 7 26 15 30 8 3 15 12 15 20 0 7 7 16 15 20 8 3 15 15
15 26 0 11 7 23 15 26 8 4 15 15 15 25 0 11 7 22 15 25 8 4 15 13 15 20 0 8 7
17 15 20 8 4 15 15 15 25 0 10 8 28 18 38 34 38 42 50 42 63 0 8 9 21 20 31
11 9 20 24 20 32 0 8 5 15 10 15 6 0 10 6 10 13 0 8 10 23 23 35 18 17 36 22
80 22 58 0 76 13 35 24 -13 3 -47 6 -76 6 -45 0 -54 -3 -63 -22z"/>
<path d="M4931 1623 c-14 -26 -30 -52 -38 -56 -7 -4 -13 -16 -13 -26 0 -34
155 -77 177 -49 24 29 63 108 63 126 0 26 -27 36 -39 14 -5 -9 -13 -14 -17
-10 -4 4 -1 14 6 23 11 13 8 15 -16 15 -16 0 -45 3 -64 6 -34 6 -36 4 -59 -43z
m54 -54 c4 -5 19 -15 33 -21 17 -7 22 -12 14 -15 -8 -3 -24 -1 -35 5 -12 6
-30 13 -40 16 -10 3 -15 10 -12 16 8 13 32 13 40 -1z"/>
<path d="M446 1634 c-4 -10 -1 -14 6 -12 15 5 23 28 10 28 -5 0 -13 -7 -16
-16z"/>
<path d="M3627 1634 c-16 -17 -4 -24 39 -24 32 0 44 4 42 13 -5 13 -69 22 -81
11z"/>
<path d="M390 1564 c-18 -25 -48 -60 -66 -77 -30 -27 -46 -68 -26 -67 9 1 112
136 112 148 0 5 7 12 15 16 8 3 15 10 15 16 0 21 -18 8 -50 -36z"/>
<path d="M3727 1604 c-20 -20 42 -34 71 -15 10 6 4 10 -18 15 -40 8 -45 8 -53
0z"/>
<path d="M3837 1574 c-13 -13 5 -24 38 -24 19 0 37 5 40 10 3 6 -5 10 -19 10
-13 0 -31 2 -38 5 -8 3 -17 3 -21 -1z"/>
<path d="M5393 1553 c-7 -2 -28 -36 -47 -74 l-34 -69 36 -19 c20 -10 63 -22
95 -25 50 -7 58 -5 63 11 3 10 17 40 30 66 28 56 30 77 9 77 -8 0 -24 6 -35
13 -17 10 -22 9 -29 -2 -8 -12 -14 -10 -36 8 -29 22 -32 23 -52 14z"/>
<path d="M6457 1553 c-4 -3 -7 -19 -7 -33 0 -15 -7 -33 -15 -40 -8 -7 -15 -20
-15 -30 0 -10 -7 -23 -15 -30 -8 -7 -15 -25 -15 -40 0 -15 -7 -33 -15 -40 -8
-7 -15 -20 -15 -30 0 -10 -7 -23 -15 -30 -8 -7 -15 -19 -15 -26 0 -12 -22 -61
-51 -116 -5 -10 -9 -26 -9 -37 0 -10 -7 -24 -15 -31 -8 -7 -15 -25 -15 -41 0
-18 -7 -32 -20 -39 -11 -6 -20 -18 -20 -28 0 -20 -27 -95 -58 -162 -11 -25
-44 -101 -73 -170 -29 -69 -56 -129 -61 -135 -4 -5 -8 -15 -8 -22 0 -8 -16
-48 -35 -89 -19 -41 -35 -79 -35 -84 0 -6 -4 -18 -10 -28 -16 -29 -50 -110
-50 -120 0 -13 -31 -72 -49 -95 -9 -10 -34 -27 -56 -37 l-40 -19 58 0 57 -1
59 123 c32 67 73 160 90 207 18 47 38 99 46 115 7 17 19 46 26 65 7 19 21 44
31 56 10 11 18 26 18 33 0 7 9 36 21 64 12 29 25 61 29 72 4 11 23 58 43 105
19 47 39 99 42 115 11 46 106 256 132 293 15 19 25 49 27 75 2 36 34 126 67
189 17 33 7 62 -14 41z"/>
<path d="M3950 1540 c-11 -7 -8 -10 13 -15 24 -6 66 0 56 9 -12 10 -56 14 -69
6z"/>
<path d="M5120 1526 c-5 -13 -14 -27 -19 -31 -6 -3 -11 -10 -11 -16 0 -12 72
-44 127 -56 36 -9 45 -7 63 9 38 36 20 88 -31 88 -15 0 -43 7 -62 15 -49 20
-56 19 -67 -9z"/>
<path d="M4067 1513 c-26 -7 -10 -23 23 -23 33 0 48 15 24 24 -17 6 -19 6 -47
-1z"/>
<path d="M4165 1480 c-17 -6 -17 -7 -1 -13 25 -10 66 -9 66 2 0 12 -42 19 -65
11z"/>
<path d="M4262 1453 c-22 -9 -2 -23 33 -23 40 0 54 15 22 24 -25 7 -37 7 -55
-1z"/>
<path d="M8830 1449 c0 -6 -8 -8 -18 -5 -15 5 -17 1 -14 -28 4 -39 -12 -76
-33 -76 -8 0 -15 5 -15 10 0 6 -5 10 -10 10 -6 0 -8 -11 -4 -27 5 -23 4 -26
-7 -15 -7 6 -17 12 -21 12 -4 0 -8 -6 -8 -12 0 -7 -16 -31 -35 -53 -19 -22
-38 -45 -43 -50 -109 -148 -351 -392 -497 -501 -27 -21 -69 -54 -93 -75 -75
-66 -476 -319 -504 -319 -5 0 -27 -13 -47 -28 -39 -30 -194 -108 -282 -142
-67 -26 -119 -48 -141 -60 -10 -6 -23 -10 -29 -10 -6 0 -25 -6 -42 -14 -53
-24 -129 -46 -156 -46 -14 0 -33 -5 -41 -10 -10 -7 30 -10 123 -10 131 0 139
1 164 24 14 13 80 52 147 86 66 34 141 73 166 86 25 13 83 42 130 64 211 99
325 173 610 396 64 50 316 301 370 367 42 53 70 71 70 46 0 -6 -13 -24 -30
-41 -16 -16 -30 -36 -30 -44 0 -8 -5 -14 -12 -14 -8 0 -6 -6 4 -16 15 -15 20
-15 61 5 l45 22 -5 53 -6 54 37 12 c23 7 41 21 46 36 8 20 16 24 51 24 39 0
41 -1 35 -25 -13 -50 -26 -75 -40 -75 -22 0 -46 -40 -46 -77 0 -17 -5 -35 -10
-38 -17 -11 -1 -24 21 -18 11 3 26 18 32 32 6 14 24 40 40 58 24 26 34 30 49
22 25 -14 36 15 15 39 -9 10 -19 44 -23 75 -6 49 -9 57 -25 52 -12 -4 -22 1
-29 15 -14 26 -48 23 -64 -5 -11 -20 -39 -46 -44 -40 -6 6 24 61 46 85 22 22
25 23 33 7 9 -16 12 -16 34 -1 14 9 31 28 38 43 9 20 20 26 44 26 37 1 73 29
73 58 0 11 -11 30 -26 43 -26 25 -54 32 -54 13z"/>
<path d="M990 1422 c0 -5 7 -13 16 -16 10 -4 14 -1 12 6 -5 15 -28 23 -28 10z"/>
<path d="M4372 1423 c-22 -9 -2 -23 33 -23 40 0 54 15 22 24 -25 7 -37 7 -55
-1z"/>
<path d="M5562 1400 c-12 -16 -22 -36 -22 -44 0 -18 49 -46 79 -46 11 0 36 -8
56 -17 34 -16 36 -16 54 3 49 50 24 104 -47 104 -21 0 -42 4 -47 9 -26 24 -51
21 -73 -9z"/>
<path d="M350 1411 c0 -5 -9 -11 -20 -14 -27 -7 -25 -30 9 -105 17 -39 41 -72
63 -90 50 -38 88 -86 88 -111 0 -29 36 -28 44 2 18 66 -17 143 -78 174 -56 28
-101 92 -92 129 4 14 2 24 -4 24 -5 0 -10 -4 -10 -9z"/>
<path d="M3913 1380 c-13 -10 -23 -27 -23 -38 0 -25 -18 -32 -85 -32 -42 0
-60 -5 -83 -25 -17 -14 -34 -25 -39 -25 -18 0 -53 -46 -53 -69 0 -12 11 -39
25 -59 14 -20 25 -42 25 -48 0 -6 13 -29 30 -52 16 -22 32 -53 36 -67 4 -16
10 -23 16 -17 17 17 11 76 -13 139 l-24 62 22 23 c11 13 24 33 28 46 7 24 25
28 55 12 13 -7 21 -7 25 0 13 21 33 9 38 -23 6 -37 27 -87 56 -132 11 -16 30
-49 42 -73 21 -40 65 -80 76 -69 2 3 -1 15 -7 27 -11 21 -18 255 -8 266 11 11
76 -25 83 -45 3 -12 12 -21 18 -21 24 -1 64 -46 75 -85 6 -22 14 -74 18 -115
6 -75 34 -160 53 -160 5 0 22 -25 37 -55 l27 -56 -22 -23 c-22 -23 -28 -61
-11 -71 6 -3 10 -24 10 -46 0 -48 7 -62 54 -113 58 -64 63 -50 59 176 -7 440
-5 418 -37 450 -47 48 -127 89 -160 82 -36 -8 -47 9 -39 59 5 35 3 41 -43 83
-59 54 -105 77 -219 108 -12 3 -29 -3 -42 -14z m142 -70 c15 -16 15 -19 -1
-35 -26 -25 -94 -3 -94 31 0 34 65 37 95 4z m-56 -106 c12 -15 21 -41 21 -60
0 -63 -32 -110 -46 -66 -3 9 -9 24 -14 33 -13 25 -23 87 -16 104 8 23 32 18
55 -11z m366 -219 c27 -26 35 -88 14 -101 -6 -3 -17 -22 -25 -40 -14 -34 -34
-46 -34 -21 -1 6 -3 37 -5 67 -4 64 3 120 17 120 5 0 20 -11 33 -25z m55 -355
c0 -15 -37 -12 -43 4 -3 8 -3 17 0 20 8 7 43 -12 43 -24z"/>
<path d="M4467 1394 c-13 -14 6 -24 44 -24 40 0 52 13 23 24 -21 8 -59 8 -67
0z"/>
<path d="M4560 1360 c0 -15 38 -32 45 -20 3 5 3 15 0 20 -8 13 -45 13 -45 0z"/>
<path d="M8977 1313 c-13 -12 -7 -33 8 -33 8 0 15 9 15 20 0 20 -11 26 -23 13z"/>
<path d="M8907 1243 c-11 -10 -8 -51 3 -58 6 -3 7 -17 4 -30 -6 -24 12 -43 26
-29 5 5 12 27 15 50 5 31 3 45 -10 57 -18 18 -28 21 -38 10z"/>
<path d="M3480 1143 c-56 -37 -70 -56 -70 -92 1 -20 7 -47 15 -61 8 -14 14
-47 15 -73 0 -27 6 -61 14 -75 8 -15 20 -54 26 -86 12 -57 11 -60 -11 -77
l-24 -17 28 -7 c18 -5 27 -14 27 -27 0 -17 -4 -19 -27 -13 -16 3 -35 12 -43
19 -8 8 -28 16 -44 20 -23 6 -27 9 -15 17 7 5 26 9 42 9 15 0 27 4 27 10 0 5
-12 12 -27 15 -16 4 -40 13 -55 21 -15 8 -54 14 -91 14 -38 0 -77 6 -93 15
-16 8 -46 15 -66 15 -21 0 -38 4 -38 9 0 5 -16 12 -35 15 -19 4 -47 13 -62 21
-15 8 -34 15 -42 15 -15 0 -101 27 -148 47 -17 7 -36 13 -43 13 -15 0 -102 28
-147 47 -17 7 -38 13 -46 13 -8 0 -28 7 -43 15 -16 8 -37 15 -46 15 -10 0 -32
6 -50 14 -51 21 -99 37 -138 46 -19 4 -48 13 -65 18 -93 32 -145 41 -145 26 0
-4 8 -12 17 -19 13 -10 15 -16 6 -27 -16 -19 -5 -34 47 -57 25 -11 56 -26 70
-34 14 -8 48 -21 75 -30 28 -8 91 -27 140 -41 147 -44 248 -78 287 -98 21 -10
51 -18 67 -18 16 0 50 -9 76 -20 25 -11 78 -27 118 -36 40 -9 77 -18 84 -19 6
-2 31 -37 54 -77 23 -40 59 -96 79 -123 45 -61 80 -128 80 -152 0 -10 6 -27
14 -38 7 -11 17 -45 21 -75 7 -52 41 -137 69 -170 7 -8 16 -23 19 -32 5 -14
18 -18 53 -18 35 0 44 3 37 13 -58 79 -93 160 -93 218 0 14 -11 40 -25 59 -14
19 -25 45 -25 59 0 14 -14 69 -30 122 -25 77 -36 98 -55 107 -14 7 -25 16 -25
22 0 6 -16 27 -35 47 -19 20 -35 42 -35 50 0 18 48 17 84 -2 15 -8 36 -15 45
-15 16 0 24 -7 106 -90 46 -46 70 -55 108 -41 26 10 27 9 27 -24 0 -18 -4 -44
-9 -58 -5 -13 -5 -30 -1 -37 7 -12 12 -11 29 4 16 15 21 31 21 71 0 70 31 135
66 135 15 0 27 7 30 18 3 9 12 29 20 44 24 45 -18 92 -52 59 -5 -5 -27 -11
-49 -13 l-40 -3 3 42 c2 22 -2 44 -7 48 -6 3 -11 23 -11 44 0 21 -7 58 -15 81
-8 23 -15 53 -15 66 0 22 41 64 63 64 15 0 87 -78 99 -109 9 -22 12 -23 15 -8
3 10 -2 33 -11 52 -9 18 -16 39 -16 47 0 7 -14 30 -31 51 -25 31 -37 37 -67
36 -20 0 -48 -7 -62 -16z"/>
<path d="M499 1035 c-13 -12 5 -82 23 -94 25 -16 33 -9 19 17 -6 12 -11 29
-11 40 0 19 -23 46 -31 37z"/>
<path d="M4126 1032 c-3 -6 -1 -14 5 -17 15 -10 25 3 12 16 -7 7 -13 7 -17 1z"/>
<path d="M8904 976 c-12 -31 0 -51 30 -51 37 0 42 15 16 43 -24 26 -38 28 -46
8z"/>
<path d="M950 949 c-31 -34 -55 -78 -46 -86 7 -7 55 48 75 86 20 36 5 36 -29
0z"/>
<path d="M1042 916 c-32 -44 -41 -76 -23 -76 6 0 13 5 16 10 3 6 16 10 29 10
29 0 91 63 83 84 -4 10 -19 16 -40 16 -28 0 -39 -7 -65 -44z"/>
<path d="M1600 912 c0 -5 6 -16 13 -27 16 -20 33 -5 23 20 -6 16 -36 21 -36 7z"/>
<path d="M8467 914 c-13 -13 -7 -24 14 -24 11 0 19 5 17 12 -5 14 -22 21 -31
12z"/>
<path d="M480 876 c-18 -48 31 -136 77 -136 28 0 29 11 3 35 -14 13 -20 31
-20 60 0 62 -41 90 -60 41z"/>
<path d="M4110 876 c0 -15 18 -31 26 -23 7 7 -7 37 -17 37 -5 0 -9 -6 -9 -14z"/>
<path d="M1163 850 c-35 -37 -64 -90 -56 -103 5 -9 31 16 79 79 43 56 25 75
-23 24z"/>
<path d="M8637 873 c-4 -3 -7 -21 -7 -40 0 -37 17 -43 43 -15 21 23 21 32 0
48 -21 15 -27 17 -36 7z"/>
<path d="M8394 848 c-41 -32 -84 -76 -84 -88 0 -16 66 -12 80 5 14 17 66 20
75 5 9 -15 45 -12 45 4 0 7 -7 19 -15 26 -8 7 -15 21 -15 31 0 17 -27 39 -48
39 -5 0 -22 -10 -38 -22z"/>
<path d="M3883 798 c-6 -7 -13 -28 -16 -46 -6 -28 -2 -38 31 -72 20 -22 43
-40 50 -40 6 0 17 20 24 45 7 25 16 45 20 45 15 0 8 18 -19 49 -29 33 -72 42
-90 19z"/>
<path d="M8916 791 c-3 -4 1 -16 8 -26 12 -16 16 -17 44 -4 38 16 40 25 10 33
-32 8 -56 7 -62 -3z"/>
<path d="M1252 778 c-18 -18 -15 -41 4 -34 9 3 18 6 20 6 2 0 4 9 4 20 0 23
-10 26 -28 8z"/>
<path d="M8742 779 c-38 -15 -25 -48 26 -66 53 -18 72 -12 72 22 0 20 -8 29
-35 41 -19 7 -36 14 -37 13 -2 0 -13 -4 -26 -10z"/>
<path d="M8627 733 c-14 -13 -7 -42 12 -48 10 -3 21 -14 24 -25 6 -24 34 -37
49 -22 15 15 1 62 -19 62 -9 0 -26 9 -38 20 -12 11 -25 17 -28 13z"/>
<path d="M8245 699 c-10 -15 3 -25 16 -12 7 7 7 13 1 17 -6 3 -14 1 -17 -5z"/>
<path d="M8575 680 c-10 -31 8 -45 29 -24 19 19 17 38 -6 42 -10 2 -19 -6 -23
-18z"/>
<path d="M1417 683 c-4 -3 -7 -16 -7 -28 0 -12 -9 -30 -19 -39 -12 -11 -19
-29 -18 -49 2 -29 5 -32 32 -32 27 0 30 3 33 37 2 26 10 41 28 52 27 19 32 51
8 60 -21 8 -49 8 -57 -1z"/>
<path d="M4180 657 c0 -31 18 -47 52 -47 l29 0 -28 35 c-32 40 -53 45 -53 12z"/>
<path d="M8290 638 c-11 -18 -20 -36 -20 -40 0 -5 -11 -8 -25 -8 -14 0 -37 -7
-51 -16 -23 -15 -26 -15 -43 0 -25 23 -33 21 -80 -20 -54 -48 -53 -58 6 -50
36 5 51 2 65 -11 18 -16 21 -16 64 7 30 17 48 35 56 57 12 34 64 63 112 63 32
0 56 10 56 22 0 5 -13 7 -30 3 -20 -4 -37 -1 -52 9 -31 22 -35 21 -58 -16z"/>
<path d="M8780 645 c-22 -27 12 -49 38 -23 8 8 9 15 1 25 -15 17 -24 16 -39
-2z"/>
<path d="M8487 634 c-10 -11 -8 -72 3 -79 16 -10 45 45 34 63 -12 19 -28 25
-37 16z"/>
<path d="M1796 614 c-4 -10 -1 -14 6 -12 15 5 23 28 10 28 -5 0 -13 -7 -16
-16z"/>
<path d="M1237 583 c-10 -9 -8 -43 2 -43 5 0 14 7 21 15 17 21 -4 48 -23 28z"/>
<path d="M8571 576 c-7 -8 -11 -23 -9 -33 3 -15 14 -18 70 -18 37 -1 70 -4 74
-8 4 -4 18 -7 31 -7 35 0 27 35 -8 35 -15 1 -37 8 -50 16 -37 25 -94 32 -108
15z"/>
<path d="M2776 564 c-9 -22 -8 -24 9 -18 8 4 15 12 15 20 0 19 -16 18 -24 -2z"/>
<path d="M8867 573 c-6 -11 0 -100 8 -113 10 -16 65 -41 75 -35 20 12 10 45
-15 51 -29 7 -31 16 -9 48 14 23 14 25 -8 40 -24 17 -44 21 -51 9z"/>
<path d="M8596 484 c-33 -33 -8 -66 33 -44 28 14 29 60 2 60 -11 0 -27 -7 -35
-16z"/>
<path d="M1333 476 c-8 -14 -14 -15 -38 -6 -18 7 -32 7 -38 1 -12 -12 0 -31
19 -31 8 0 23 -6 34 -12 15 -9 25 -10 37 -2 23 14 26 27 10 49 -13 17 -15 17
-24 1z"/>
<path d="M8382 474 c-21 -14 -21 -17 -6 -45 18 -35 35 -33 48 4 8 21 6 31 -5
42 -13 13 -17 13 -37 -1z"/>
<path d="M8018 434 c-7 -9 -23 -27 -36 -41 -18 -20 -20 -28 -11 -39 16 -20 29
-17 29 6 0 12 7 20 18 20 31 0 45 16 38 44 -7 30 -20 33 -38 10z"/>
<path d="M7891 414 c-18 -18 -22 -27 -13 -36 8 -8 18 -5 36 13 27 26 34 50 14
48 -7 -1 -24 -12 -37 -25z"/>
<path d="M8733 424 c-26 -11 -11 -74 17 -74 23 0 53 34 48 57 -3 18 -40 27
-65 17z"/>
<path d="M8260 380 c0 -29 4 -40 15 -40 22 0 30 27 17 56 -17 36 -32 29 -32
-16z"/>
<path d="M3945 400 c-4 -7 -3 -16 3 -22 13 -13 74 0 69 15 -5 16 -63 21 -72 7z"/>
<path d="M3482 377 c-15 -35 -15 -57 -2 -57 12 0 23 42 17 67 -3 15 -6 13 -15
-10z"/>
<path d="M8610 380 c6 -11 18 -20 27 -20 14 0 14 2 -2 20 -10 11 -22 20 -27
20 -5 0 -4 -9 2 -20z"/>
<path d="M8472 368 c-20 -20 -14 -40 11 -36 14 2 22 10 22 22 0 24 -16 31 -33
14z"/>
<path d="M1672 358 c-18 -18 -15 -27 15 -39 33 -12 49 1 34 30 -13 24 -31 27
-49 9z"/>
<path d="M7761 328 c-12 -32 2 -44 34 -30 32 15 30 46 -3 50 -16 2 -25 -3 -31
-20z"/>
<path d="M8107 338 c-25 -19 -36 -59 -24 -85 13 -28 27 -29 60 -3 22 17 26 18
37 5 7 -8 17 -15 22 -15 15 0 57 53 58 73 0 19 -9 20 -64 8 -34 -8 -39 -7 -43
10 -6 22 -22 24 -46 7z"/>
<path d="M4487 333 c-4 -3 -7 -34 -7 -69 l0 -62 48 -5 c26 -2 115 -28 197 -56
175 -59 304 -98 395 -119 78 -18 484 -29 460 -12 -8 5 -29 10 -46 10 -17 0
-55 7 -85 15 -122 35 -166 48 -204 60 -22 7 -87 28 -145 46 -58 17 -119 38
-137 46 -17 7 -38 13 -47 13 -9 0 -24 4 -34 9 -9 5 -73 28 -142 50 -166 53
-192 62 -212 72 -21 11 -32 11 -41 2z"/>
<path d="M8803 295 c-24 -24 -43 -46 -43 -48 0 -13 62 -28 92 -22 38 9 48 20
48 57 0 23 -31 59 -50 57 -3 0 -24 -20 -47 -44z"/>
<path d="M8627 312 c-18 -19 -23 -52 -9 -52 16 0 54 48 47 59 -9 16 -20 14
-38 -7z"/>
<path d="M8477 293 c-16 -4 -18 -11 -12 -40 7 -39 25 -73 38 -73 11 0 67 56
67 67 0 31 -53 57 -93 46z"/>
<path d="M7922 278 c-18 -18 -15 -36 7 -48 26 -14 29 -13 41 9 20 39 -18 69
-48 39z"/>
<path d="M4037 253 c-9 -14 21 -73 36 -73 8 0 28 -7 43 -15 44 -23 76 -20 72
7 -4 30 -138 102 -151 81z"/>
<path d="M7757 253 c-3 -5 -4 -36 -2 -70 4 -94 49 -158 78 -111 9 13 7 22 -8
37 -15 18 -16 25 -7 47 18 37 15 58 -11 82 -24 23 -42 28 -50 15z"/>
<path d="M8720 250 c0 -5 7 -10 15 -10 8 0 15 5 15 10 0 6 -7 10 -15 10 -8 0
-15 -4 -15 -10z"/>
<path d="M1585 241 c-6 -5 -21 -11 -34 -13 -42 -5 -34 -25 21 -47 85 -35 138
-93 138 -151 l0 -30 78 1 c42 1 69 3 60 6 -10 2 -18 10 -18 17 0 6 -15 27 -32
46 -18 19 -45 55 -59 80 -32 57 -130 114 -154 91z"/>
<path d="M1766 223 c-3 -3 -6 -15 -6 -25 0 -13 8 -18 29 -18 26 0 36 8 40 35
2 11 -53 18 -63 8z"/>
<path d="M8220 208 c0 -16 5 -28 10 -28 13 0 13 20 0 40 -8 12 -10 9 -10 -12z"/>
<path d="M8964 215 c-9 -21 3 -45 21 -45 10 0 15 10 15 30 0 32 -26 43 -36 15z"/>
<path d="M8058 195 c-14 -30 3 -55 38 -55 34 0 43 39 14 62 -29 24 -38 23 -52
-7z"/>
<path d="M1994 184 c-21 -31 -8 -48 29 -39 37 10 53 31 37 50 -19 23 -48 18
-66 -11z"/>
<path d="M8298 199 c-31 -18 -20 -30 24 -27 31 2 44 8 46 21 3 13 -3 17 -25
17 -15 0 -36 -5 -45 -11z"/>
<path d="M7519 193 c-5 -10 -54 -43 -102 -68 -21 -11 -43 -28 -48 -37 -5 -10
-16 -18 -24 -18 -8 0 -15 -9 -15 -19 0 -11 -3 -26 -6 -35 -5 -13 3 -16 49 -16
l56 0 44 58 c25 31 57 70 71 86 15 15 25 33 23 40 -4 13 -43 21 -48 9z"/>
<path d="M8618 178 c-24 -12 -38 -27 -38 -39 0 -23 4 -23 34 -4 21 14 27 14
71 -5 47 -20 83 -20 70 0 -3 5 -15 10 -25 10 -11 0 -25 12 -32 27 -16 34 -32
36 -80 11z"/>
<path d="M4469 160 c-13 -33 -28 -87 -35 -123 -5 -30 -3 -37 10 -37 11 0 16 9
16 33 0 18 5 38 11 44 5 5 9 30 7 54 -2 24 -6 37 -9 29z"/>
<path d="M7640 162 c0 -19 12 -42 22 -42 14 0 5 43 -9 48 -7 2 -13 -1 -13 -6z"/>
<path d="M7983 151 c-18 -9 -33 -25 -35 -36 -2 -12 -13 -22 -28 -25 -39 -8
-77 -38 -83 -65 -8 -44 19 -33 92 36 20 20 31 25 44 18 35 -20 76 27 62 71 -7
23 -9 23 -52 1z"/>
<path d="M8846 161 c-4 -5 -4 -16 -1 -23 4 -9 -4 -19 -20 -26 -18 -9 -25 -19
-25 -41 0 -36 13 -46 40 -31 13 7 20 21 20 40 0 16 7 33 16 38 13 7 14 13 5
31 -12 22 -26 27 -35 12z"/>
<path d="M8931 136 c-17 -20 2 -29 40 -21 l31 7 -27 14 c-33 17 -30 17 -44 0z"/>
<path d="M8439 124 c-22 -27 1 -49 54 -50 25 -1 51 2 57 6 20 12 2 30 -30 30
-15 0 -30 7 -34 15 -7 20 -30 19 -47 -1z"/>
<path d="M8296 114 c-9 -8 -16 -22 -16 -30 0 -20 54 -18 71 2 11 14 10 18 -6
30 -24 18 -30 18 -49 -2z"/>
<path d="M8067 104 c-9 -10 2 -24 19 -24 8 0 14 7 14 15 0 15 -21 21 -33 9z"/>
<path d="M8212 71 c-19 -11 -11 -45 11 -49 9 -2 20 4 23 13 9 21 -16 47 -34
36z"/>
<path d="M8532 28 c2 -18 9 -23 33 -23 23 0 30 4 30 20 0 15 -8 21 -33 23 -30
3 -33 1 -30 -20z"/>
<path d="M7188 27 c-55 -15 -47 -27 18 -27 47 0 55 3 52 17 -4 22 -21 24 -70
10z"/>
<path d="M7650 10 c0 -5 10 -10 23 -10 18 0 19 2 7 10 -19 13 -30 13 -30 0z"/>
<path d="M8335 10 c-3 -5 3 -10 14 -10 12 0 21 5 21 10 0 6 -6 10 -14 10 -8 0
-18 -4 -21 -10z"/>
</g>
</svg>
