<?xml version="1.0" standalone="no"?>
<!DOCTYPE svg PUBLIC "-//W3C//DTD SVG 20010904//EN"
 "http://www.w3.org/TR/2001/REC-SVG-20010904/DTD/svg10.dtd">
<svg version="1.0" xmlns="http://www.w3.org/2000/svg"
 width="900.000000pt" height="600.000000pt" viewBox="0 0 900.000000 600.000000"
 preserveAspectRatio="xMidYMid meet">
<metadata>
Created by potrace 1.10, written by Peter Selinger 2001-2011
</metadata>
<g transform="translate(0.000000,600.000000) scale(0.100000,-0.100000)"
fill="#00008b" stroke="none">
<path d="M2690 5610 c0 -5 7 -10 15 -10 8 0 15 5 15 10 0 6 -7 10 -15 10 -8 0
-15 -4 -15 -10z"/>
<path d="M4690 5561 c0 -6 4 -19 9 -29 5 -9 26 -55 47 -102 41 -92 52 -110 65
-110 14 0 11 17 -12 68 -12 26 -34 76 -48 112 -16 40 -33 66 -44 68 -9 2 -17
-1 -17 -7z"/>
<path d="M4820 5298 c0 -18 18 -34 28 -24 3 4 -2 14 -11 23 -16 16 -17 16 -17
1z"/>
<path d="M3400 5206 c0 -9 7 -16 16 -16 17 0 14 22 -4 28 -7 2 -12 -3 -12 -12z"/>
<path d="M4890 5197 c0 -8 7 -21 16 -28 14 -11 15 -10 12 11 -3 26 -28 41 -28
17z"/>
<path d="M3555 5160 c-8 -13 3 -30 20 -30 11 0 25 20 25 36 0 9 -39 4 -45 -6z"/>
<path d="M3715 5150 c-8 -13 3 -30 21 -30 18 0 18 14 0 29 -10 8 -16 9 -21 1z"/>
<path d="M3460 5076 c0 -8 5 -18 10 -21 6 -3 10 -15 10 -25 0 -15 10 -20 48
-26 26 -4 61 -7 77 -6 73 4 215 3 270 -3 59 -6 60 -7 78 -48 9 -23 17 -45 17
-49 0 -12 34 -48 45 -48 5 0 24 11 40 25 27 23 28 26 13 35 -10 6 -18 18 -18
26 0 8 -13 23 -30 32 -16 9 -30 21 -30 25 0 5 -14 22 -30 39 -24 24 -33 28
-44 19 -11 -9 -23 -8 -52 4 -22 9 -50 13 -65 10 -20 -5 -30 -1 -37 12 -10 16
-12 16 -29 1 -23 -21 -117 -38 -153 -28 -14 4 -40 15 -58 24 -38 20 -62 21
-62 2z"/>
<path d="M3267 5004 c-14 -14 -7 -35 11 -32 9 2 17 10 17 17 0 16 -18 25 -28
15z"/>
<path d="M3960 4832 c0 -12 34 -42 48 -42 6 0 20 -19 30 -42 26 -56 98 -124
140 -132 82 -15 158 -67 258 -177 37 -41 72 -77 78 -81 6 -4 6 -11 -2 -20 -8
-10 -7 -20 3 -38 14 -24 31 -62 40 -87 2 -7 14 -13 26 -13 22 0 23 10 6 93 -1
6 8 13 20 15 26 4 103 -62 103 -88 0 -24 20 -40 51 -40 22 0 34 -10 58 -46 30
-44 31 -46 14 -69 -10 -14 -26 -27 -36 -31 -35 -11 -47 -45 -35 -99 5 -27 16
-57 24 -66 8 -8 14 -25 14 -36 0 -11 6 -26 14 -32 8 -7 18 -26 21 -42 4 -16
11 -31 16 -34 5 -4 9 -17 9 -31 0 -13 4 -32 9 -42 6 -9 13 -34 16 -54 5 -34
20 -56 31 -46 2 3 1 26 -2 51 -5 32 -12 47 -21 47 -12 0 -14 10 -11 43 3 23 8
49 12 58 5 11 0 24 -14 37 -15 14 -20 27 -16 40 4 11 -1 39 -10 62 -16 40 -16
44 0 55 25 19 43 141 23 163 -7 9 -17 24 -21 32 -4 8 -13 26 -21 40 -8 14 -18
42 -21 63 -4 20 -12 37 -19 37 -7 0 -23 9 -37 20 -14 10 -48 28 -77 40 -54 21
-92 56 -112 103 -6 15 -18 27 -27 27 -8 0 -46 31 -84 69 -38 38 -87 81 -109
95 -27 18 -42 36 -46 56 -4 23 -11 30 -30 30 -13 0 -26 -7 -29 -15 -9 -22 -41
-19 -47 4 -3 13 -17 22 -41 26 -32 6 -35 10 -30 31 5 18 2 24 -9 24 -9 0 -19
-5 -22 -10 -11 -17 -35 9 -35 36 0 27 -15 32 -24 8 -6 -15 -8 -15 -31 0 -27
18 -45 21 -45 8z"/>
<path d="M3895 4413 c-16 -2 -46 -11 -66 -19 -28 -12 -41 -13 -57 -5 -11 6
-33 11 -49 11 -29 -1 -112 -27 -150 -48 -12 -7 -27 -12 -34 -12 -7 0 -20 -6
-28 -13 -9 -7 -36 -22 -61 -32 -25 -10 -56 -29 -70 -41 -17 -15 -45 -25 -82
-29 -52 -7 -58 -10 -58 -31 0 -19 5 -24 24 -24 14 0 28 -4 31 -10 10 -17 48
-11 90 15 22 14 50 25 62 25 12 0 56 17 97 39 91 47 141 64 271 90 62 13 119
19 152 15 55 -5 74 6 52 32 -22 26 -77 43 -124 37z"/>
<path d="M3777 4243 c-50 -13 23 -48 81 -38 27 5 32 3 32 -14 0 -11 -6 -24
-13 -28 -7 -4 -21 -19 -29 -32 -9 -13 -38 -39 -64 -57 -41 -29 -56 -34 -107
-34 -53 0 -62 3 -87 30 -16 17 -30 43 -32 58 -4 38 -37 40 -70 5 -38 -41 -43
-67 -18 -91 12 -11 29 -35 38 -53 15 -29 26 -36 82 -51 88 -24 179 -16 211 18
13 14 34 24 51 24 15 0 28 5 28 11 0 5 12 15 28 20 38 14 86 91 75 121 -4 13
-8 43 -8 68 l0 45 -90 2 c-49 0 -98 -1 -108 -4z"/>
<path d="M2866 4183 c-7 -7 6 -37 18 -45 6 -4 22 -8 37 -8 14 0 30 -5 36 -11
6 -6 30 -15 53 -20 50 -11 117 -61 131 -96 14 -37 -5 -63 -44 -63 -18 0 -37
-4 -43 -9 -5 -5 -20 -11 -34 -13 -34 -4 -28 -21 9 -31 17 -4 31 -12 31 -17 0
-6 13 -10 28 -10 16 0 37 -9 47 -20 10 -11 26 -20 35 -20 10 0 22 -6 28 -12
11 -14 22 -125 25 -251 1 -65 4 -78 20 -83 24 -8 34 3 21 23 -7 12 -5 27 9 54
20 40 20 43 0 281 -5 54 -14 103 -21 110 -7 7 -12 20 -12 30 0 10 -16 34 -35
54 -19 19 -35 39 -35 45 0 15 -35 43 -95 78 -40 23 -66 30 -127 33 -43 3 -80
3 -82 1z"/>
<path d="M1850 4072 c0 -19 58 -49 102 -54 54 -6 57 6 3 15 -19 3 -48 15 -64
26 -31 23 -41 26 -41 13z"/>
<path d="M2882 4029 c2 -7 10 -15 17 -17 8 -3 12 1 9 9 -2 7 -10 15 -17 17 -8
3 -12 -1 -9 -9z"/>
<path d="M5654 3924 c3 -9 6 -17 6 -20 0 -7 82 -45 87 -40 11 11 -11 47 -37
61 -39 20 -64 20 -56 -1z"/>
<path d="M4670 3906 c0 -8 5 -18 10 -21 6 -3 10 3 10 14 0 12 -4 21 -10 21 -5
0 -10 -6 -10 -14z"/>
<path d="M4706 3775 c-4 -22 -11 -49 -16 -60 -18 -43 -31 -95 -26 -104 4 -5 2
-12 -3 -16 -6 -3 -22 -32 -37 -65 -14 -32 -37 -69 -50 -81 -13 -12 -24 -27
-24 -33 0 -19 -41 -94 -64 -117 -13 -13 -55 -55 -94 -93 -44 -42 -73 -79 -77
-97 -4 -19 -23 -42 -48 -61 -23 -18 -58 -51 -77 -74 -71 -84 -210 -144 -337
-144 -91 0 -154 31 -228 113 -46 52 -66 67 -87 67 -36 0 -37 -26 -3 -42 17 -8
25 -19 25 -36 0 -29 73 -103 130 -132 90 -46 155 -64 235 -64 l79 -1 7 -35 c4
-19 15 -49 23 -65 9 -17 16 -37 16 -46 0 -8 6 -35 14 -60 8 -24 17 -70 19
-102 5 -54 3 -60 -25 -92 -43 -49 -48 -100 -14 -149 14 -22 26 -51 27 -65 0
-14 3 -46 5 -71 5 -56 -3 -90 -19 -90 -17 0 -47 56 -47 87 0 28 -36 93 -51 93
-5 0 -9 -20 -9 -44 0 -42 16 -90 43 -129 10 -15 9 -20 -5 -31 -10 -7 -18 -19
-18 -26 0 -19 -87 -197 -100 -205 -5 -3 -10 -20 -10 -36 0 -17 -7 -44 -16 -61
-16 -32 -13 -117 5 -147 10 -15 -6 -61 -21 -61 -4 0 -16 -16 -25 -35 -9 -19
-22 -35 -29 -35 -7 0 -19 -12 -26 -27 -9 -19 -22 -29 -40 -31 -19 -2 -28 -10
-30 -25 -2 -17 -9 -21 -31 -19 -19 2 -29 -3 -34 -15 -8 -24 -44 -63 -58 -63
-18 0 -75 -64 -75 -84 0 -15 -5 -17 -31 -12 -28 5 -30 4 -18 -10 11 -14 10
-18 -6 -30 -17 -13 -21 -12 -37 8 -14 20 -20 21 -37 11 -15 -10 -22 -9 -31 2
-21 25 -67 17 -123 -21 -82 -57 -119 -96 -114 -121 3 -15 -3 -24 -19 -32 -23
-10 -64 -88 -64 -122 0 -10 -8 -24 -18 -31 -9 -7 -23 -24 -30 -38 -28 -56 -66
-110 -104 -151 -10 -10 -31 -45 -47 -77 -17 -33 -37 -62 -46 -65 -8 -4 -15
-13 -15 -22 0 -8 -20 -42 -44 -76 -24 -33 -49 -81 -56 -107 -7 -26 -21 -56
-31 -68 -11 -11 -19 -33 -19 -47 0 -15 -7 -30 -15 -33 -25 -10 -17 -24 13 -24
29 1 67 44 130 150 18 30 37 62 42 70 36 56 97 157 109 179 7 14 21 35 31 46
9 11 50 76 91 143 41 68 84 140 97 160 12 21 31 53 41 72 11 19 28 45 39 56
11 12 32 44 46 73 18 35 32 51 46 51 21 0 163 -114 168 -135 3 -15 -32 -55
-48 -55 -5 0 -15 -10 -21 -22 -6 -13 -31 -46 -55 -75 -24 -28 -44 -56 -44 -62
0 -6 -16 -34 -35 -61 -19 -27 -35 -56 -35 -63 0 -8 -11 -24 -24 -37 -14 -12
-28 -34 -31 -49 -8 -33 -39 -71 -58 -71 -8 0 -17 -13 -21 -30 -4 -20 -15 -34
-33 -42 -32 -13 -73 -47 -73 -60 0 -4 17 -6 38 -3 20 3 42 2 47 -2 6 -4 25
-37 43 -72 18 -34 50 -85 70 -112 29 -39 42 -49 65 -49 22 0 28 4 23 15 -8 21
-125 174 -140 182 -8 5 -16 18 -20 30 -6 17 -1 25 20 36 17 9 50 57 101 148
41 74 84 150 97 169 51 79 121 187 138 212 9 15 32 55 49 90 59 116 271 333
403 412 56 33 73 49 88 83 10 23 27 48 37 55 9 7 22 21 27 30 13 24 232 248
242 248 5 0 17 9 27 20 10 11 22 20 28 20 5 0 26 13 46 28 20 16 50 36 66 44
109 57 134 72 168 99 20 16 37 34 37 39 0 13 -37 13 -45 1 -3 -6 -26 -13 -51
-17 -25 -3 -51 -13 -57 -21 -22 -28 -71 -73 -79 -73 -20 0 -196 -108 -227
-140 -20 -20 -71 -72 -113 -116 -42 -44 -88 -86 -102 -93 -32 -18 -56 -8 -56
22 0 33 35 132 59 165 11 16 34 58 51 95 18 37 44 78 58 93 22 22 27 37 30 95
3 49 0 79 -12 103 -20 42 -20 47 1 107 15 40 15 53 5 69 -24 39 -8 80 30 80
11 0 20 -10 24 -27 11 -53 14 -48 9 19 -5 62 -15 105 -35 153 -5 11 -11 33
-15 49 -3 16 -16 43 -29 60 -12 17 -33 54 -45 82 -20 45 -22 56 -12 87 9 27
16 34 29 30 35 -13 63 -37 78 -64 16 -32 40 -37 70 -15 19 15 19 15 -4 58 -12
24 -25 67 -28 95 l-7 51 47 4 c26 2 54 -1 62 -5 26 -15 42 10 18 27 -18 14
-18 16 -2 59 9 25 14 55 11 66 -3 12 -1 21 6 21 6 0 17 13 25 29 10 18 26 30
45 34 34 7 161 105 161 124 0 7 4 13 10 13 14 0 29 33 46 98 8 31 21 63 28 72
43 51 104 282 89 333 l-10 32 -7 -40z"/>
<path d="M5765 3731 c-8 -15 35 -35 47 -23 6 6 7 15 4 21 -9 14 -43 14 -51 2z"/>
<path d="M5848 3684 c-10 -16 -8 -134 2 -134 11 0 35 36 44 67 5 14 -1 30 -17
49 -13 15 -26 23 -29 18z"/>
<path d="M3020 3631 c0 -16 5 -33 10 -36 6 -4 10 6 10 24 0 16 -4 33 -10 36
-6 4 -10 -6 -10 -24z"/>
<path d="M4943 3629 c3 -19 9 -49 13 -66 5 -27 3 -33 -10 -33 -22 0 -20 -6 14
-43 16 -18 30 -38 30 -44 0 -16 12 -31 81 -103 l53 -55 2 -350 c2 -192 5 -370
8 -395 3 -25 8 -103 12 -175 l7 -130 -52 -88 c-29 -49 -82 -120 -118 -158 -59
-63 -65 -72 -51 -85 10 -10 42 -17 94 -20 43 -3 108 -12 144 -20 108 -25 102
-21 86 -57 -9 -23 -10 -39 -3 -57 19 -45 75 -124 115 -161 95 -88 302 -198
416 -221 72 -14 76 -29 42 -148 -14 -50 -26 -108 -26 -129 0 -20 -7 -46 -15
-57 -14 -18 -17 -16 -83 52 -63 66 -184 164 -202 164 -5 0 -32 16 -61 35 -62
41 -71 42 -124 15 -45 -23 -66 -20 -144 21 -74 40 -118 38 -158 -3 -37 -39
-73 -104 -73 -133 0 -11 -7 -29 -15 -39 -8 -11 -15 -27 -15 -37 0 -9 -6 -22
-14 -28 -18 -15 -26 -57 -13 -70 6 -6 27 -11 48 -11 22 0 50 -10 73 -25 22
-15 51 -25 72 -25 53 0 128 -28 171 -64 l38 -32 100 12 c55 7 120 17 145 23
25 5 79 6 120 3 68 -6 75 -9 78 -30 5 -34 29 -38 60 -10 33 30 151 112 195
135 20 10 62 18 110 20 43 1 83 5 88 9 16 9 -11 34 -36 34 -13 0 -25 7 -29 15
-3 8 -15 15 -27 15 -12 0 -27 7 -33 15 -10 13 -16 13 -51 0 -52 -18 -60 -18
-79 1 -20 19 -20 53 -1 90 8 16 15 41 15 56 0 16 9 34 23 45 13 10 26 27 30
37 9 22 23 12 29 -19 4 -24 80 -64 121 -65 19 0 30 -6 33 -18 3 -9 18 -24 33
-33 34 -20 50 -78 25 -92 -13 -7 -9 -14 23 -42 21 -18 56 -50 78 -70 51 -46
177 -105 226 -105 12 0 23 -8 26 -19 3 -13 17 -20 46 -24 60 -8 99 -56 92
-112 -12 -101 -16 -305 -5 -324 8 -15 8 -27 0 -41 -11 -21 -50 -28 -50 -9 0
17 -64 70 -79 64 -8 -3 -22 2 -32 11 -18 16 -20 16 -38 0 -15 -13 -29 -16 -68
-10 -33 4 -75 1 -121 -10 -39 -9 -89 -16 -110 -16 -23 0 -45 -6 -52 -15 -18
-21 -60 -19 -61 3 -4 58 6 132 22 164 10 21 19 53 19 72 0 26 6 38 21 47 19
10 21 17 16 60 -5 42 -3 53 20 79 23 28 24 34 13 56 -11 19 -11 27 -2 36 19
19 14 50 -12 83 -20 25 -26 28 -40 16 -9 -7 -16 -20 -16 -28 0 -8 -7 -28 -16
-45 -9 -17 -20 -54 -24 -82 -5 -28 -23 -96 -40 -151 -18 -55 -38 -122 -46
-150 -22 -85 -64 -209 -79 -238 -23 -44 -19 -67 11 -67 14 0 34 5 45 11 11 6
60 14 109 19 109 12 339 56 402 77 35 12 55 14 80 7 34 -10 38 -23 24 -89 -2
-11 -5 -35 -5 -53 -1 -51 -21 -27 -21 26 0 90 -18 27 -23 -78 -2 -58 -8 -115
-12 -127 -7 -23 -7 -23 103 -23 79 0 111 4 114 13 3 6 3 41 2 76 -2 35 0 69 4
75 4 6 7 25 8 41 3 95 16 292 24 365 10 89 22 251 24 310 1 32 -2 35 -29 38
-73 7 -276 68 -347 104 -96 50 -138 94 -138 147 0 44 34 83 72 83 13 0 118 -5
233 -11 116 -5 283 -10 372 -10 217 -1 350 -17 436 -52 37 -15 67 -24 67 -20
0 25 -49 63 -115 90 -90 38 -176 50 -350 51 -161 1 -828 29 -873 36 -49 9 -98
74 -193 260 -46 91 -90 175 -96 187 -20 35 -16 94 8 118 23 23 15 22 193 2
l49 -5 -7 88 c-4 48 -10 92 -13 97 -12 20 -178 -22 -178 -44 0 -8 12 -15 28
-17 46 -5 30 -33 -27 -47 -28 -7 -55 -11 -62 -8 -16 6 -17 103 -2 188 9 56 20
89 54 158 8 16 14 34 14 41 0 11 45 103 109 221 51 94 140 200 226 271 46 37
168 114 182 114 3 0 31 12 62 26 31 15 83 33 115 41 57 13 86 27 86 43 0 7
-41 34 -158 105 -35 21 -69 47 -76 56 -6 10 -34 27 -61 38 -28 10 -72 31 -98
45 -28 15 -72 28 -105 31 -31 4 -73 10 -92 15 -19 5 -73 16 -120 26 -101 20
-157 40 -187 67 -40 36 -37 9 3 -34 45 -47 104 -78 152 -79 20 0 35 -6 38 -15
4 -10 21 -15 54 -15 32 0 50 -5 53 -14 3 -8 20 -14 40 -14 19 0 48 -7 65 -16
17 -9 45 -16 62 -16 18 0 33 -6 36 -15 4 -8 17 -15 31 -15 20 0 23 -4 18 -20
-5 -16 -2 -20 17 -20 13 -1 38 -14 56 -29 l33 -29 -27 -27 c-15 -15 -42 -34
-61 -41 -18 -8 -33 -19 -33 -24 0 -6 -11 -10 -25 -10 -16 0 -45 -20 -86 -57
-34 -32 -67 -60 -74 -63 -7 -3 -29 -25 -49 -50 -20 -25 -45 -54 -56 -65 -11
-12 -20 -26 -20 -34 0 -8 -7 -10 -21 -6 -19 6 -21 4 -15 -19 5 -19 3 -26 -8
-26 -8 0 -17 -14 -21 -30 -4 -17 -15 -35 -25 -40 -10 -6 -22 -20 -26 -32 -3
-13 -12 -30 -19 -38 -7 -8 -27 -53 -45 -100 -17 -47 -43 -107 -56 -135 -21
-45 -23 -60 -19 -148 3 -79 1 -99 -11 -104 -8 -3 -14 -12 -14 -20 0 -9 6 -13
15 -9 19 7 19 -5 0 -50 -11 -27 -13 -55 -9 -105 6 -59 5 -69 -9 -69 -9 0 -19
5 -22 10 -3 6 -20 10 -37 10 -22 0 -39 10 -64 37 -30 33 -37 36 -54 25 -11 -6
-35 -12 -55 -12 -34 0 -145 -39 -145 -51 0 -18 125 -68 208 -83 45 -8 130 -51
167 -85 17 -15 55 -44 86 -64 32 -21 59 -46 61 -55 2 -9 2 -43 0 -74 -4 -66
-22 -79 -75 -55 -18 8 -79 36 -137 63 -58 26 -114 55 -125 65 -11 9 -33 24
-50 32 -76 40 -172 157 -179 219 -2 19 -10 34 -20 38 -9 3 -36 31 -60 63 l-43
57 3 93 c1 50 10 117 19 147 14 46 15 78 9 190 -10 186 -12 207 -19 275 -4 33
-8 164 -9 292 -2 145 -7 237 -13 245 -6 7 -11 25 -11 41 1 30 -35 87 -82 132
-17 16 -30 35 -30 42 0 27 -29 69 -54 81 -19 9 -26 19 -26 41 0 16 -6 34 -14
41 -8 6 -16 25 -18 42 -2 18 -9 34 -17 36 -11 4 -13 -3 -8 -29z m245 -2430
c12 0 30 0 40 -1 9 0 44 0 77 1 40 0 65 -5 76 -15 11 -10 26 -13 38 -9 15 4
21 2 21 -9 0 -8 10 -21 23 -27 36 -19 77 -61 77 -81 0 -10 5 -18 10 -18 6 0
10 7 10 15 0 23 22 18 49 -10 13 -14 22 -27 20 -28 -65 -37 -85 -41 -199 -43
-92 -2 -122 1 -131 12 -6 8 -19 14 -28 14 -9 0 -22 5 -29 12 -14 14 -95 37
-133 38 -15 0 -37 8 -50 19 -21 17 -22 21 -9 50 7 17 21 36 32 42 13 7 17 16
12 31 -6 19 -3 20 32 14 22 -4 49 -7 62 -7z m689 -146 c-21 -21 -25 -23 -31
-8 -4 10 4 25 22 42 23 22 27 23 30 8 2 -10 -7 -29 -21 -42z"/>
<path d="M4770 3604 c0 -21 4 -33 10 -29 6 3 10 19 10 36 0 16 -4 29 -10 29
-5 0 -10 -16 -10 -36z"/>
<path d="M3687 3599 c-7 -25 20 -61 76 -101 25 -18 28 -18 43 -3 14 13 14 18
2 32 -32 40 -60 63 -73 61 -8 -2 -20 6 -28 16 -13 18 -14 18 -20 -5z"/>
<path d="M4580 3581 c0 -32 24 -61 33 -38 8 22 -4 67 -19 67 -9 0 -14 -11 -14
-29z"/>
<path d="M3050 3561 c0 -10 7 -24 15 -31 8 -7 15 -23 15 -35 0 -14 12 -33 28
-45 15 -12 29 -31 32 -43 3 -12 15 -23 27 -25 13 -2 24 -13 27 -27 8 -30 52
-79 60 -67 3 5 -1 18 -9 28 -8 10 -15 25 -15 32 0 8 -21 34 -47 58 -47 45 -83
95 -104 147 -13 31 -29 36 -29 8z"/>
<path d="M3622 3459 c-28 -11 -24 -33 7 -37 25 -4 51 14 51 34 0 16 -24 17
-58 3z"/>
<path d="M3472 3447 c-6 -7 -34 -19 -62 -27 -60 -16 -65 -22 -48 -52 35 -63
63 -75 74 -32 7 28 76 104 94 104 6 0 10 5 10 10 0 15 -56 12 -68 -3z"/>
<path d="M2330 3411 c0 -12 6 -21 16 -21 9 0 14 7 12 17 -5 25 -28 28 -28 4z"/>
<path d="M12 3268 c-19 -19 -14 -25 21 -31 31 -5 67 14 67 35 0 13 -74 10 -88
-4z"/>
<path d="M3827 3250 c-42 -22 -156 -28 -217 -10 -28 8 -41 7 -67 -7 -29 -15
-33 -15 -57 0 -34 23 -46 21 -46 -5 0 -24 44 -68 67 -68 8 0 23 5 34 11 15 8
24 7 36 -3 11 -9 51 -13 132 -13 107 0 117 2 139 23 25 26 43 26 150 1 29 -6
56 -8 60 -4 4 4 2 9 -3 12 -6 2 -38 21 -70 43 -68 45 -103 49 -158 20z"/>
<path d="M7786 3238 c-32 -18 -241 -35 -526 -42 -74 -2 -155 -8 -180 -14 -25
-6 -94 -16 -155 -23 -109 -11 -199 -41 -192 -64 5 -15 92 -18 165 -5 240 42
835 64 1555 57 l547 -5 0 40 0 40 -77 -6 c-43 -3 -87 -5 -98 -5 -55 3 -257 9
-305 9 -30 0 -61 4 -69 9 -8 5 -23 3 -40 -5 -22 -11 -40 -12 -85 -3 -65 12
-194 7 -304 -11 -73 -12 -93 -9 -202 34 -8 3 -24 0 -34 -6z"/>
<path d="M170 3220 c0 -5 6 -10 14 -10 8 0 16 -7 20 -15 9 -24 26 -17 26 10 0
21 -5 25 -30 25 -16 0 -30 -4 -30 -10z"/>
<path d="M259 3153 c-12 -31 0 -43 46 -43 49 0 76 11 73 29 -3 11 -12 15 -34
13 -19 -2 -36 3 -44 13 -18 22 -29 19 -41 -12z"/>
<path d="M3736 3120 c-15 -31 -8 -32 26 -2 10 8 15 19 12 23 -10 16 -22 9 -38
-21z"/>
<path d="M2520 3080 c0 -11 5 -20 10 -20 6 0 10 9 10 20 0 11 -4 20 -10 20 -5
0 -10 -9 -10 -20z"/>
<path d="M2413 2868 c-12 -18 -20 -34 -17 -37 9 -9 46 36 42 52 -2 12 -9 8
-25 -15z"/>
<path d="M2334 2795 c-3 -13 -4 -29 -2 -34 5 -17 26 2 33 32 6 21 4 27 -9 27
-8 0 -18 -11 -22 -25z"/>
<path d="M4500 2675 c0 -16 16 -20 24 -6 3 5 -1 11 -9 15 -9 3 -15 0 -15 -9z"/>
<path d="M2055 2639 c-4 -6 -5 -13 -2 -15 7 -8 57 7 57 17 0 13 -47 11 -55 -2z"/>
<path d="M4540 2532 c-10 -52 -10 -74 -1 -90 18 -33 28 -27 33 21 15 128 -11
186 -32 69z"/>
<path d="M2217 2550 c-3 -11 -13 -20 -22 -20 -23 0 -112 -96 -140 -150 -13
-25 -34 -56 -46 -70 -13 -14 -36 -44 -50 -65 -15 -22 -53 -68 -85 -102 -86
-90 -147 -162 -177 -210 -15 -23 -33 -45 -40 -50 -7 -4 -24 -24 -38 -43 -13
-19 -36 -50 -51 -68 -16 -18 -37 -49 -47 -70 -11 -20 -33 -51 -49 -68 -16 -17
-37 -44 -46 -61 -8 -17 -29 -41 -46 -53 -16 -12 -30 -28 -30 -35 0 -8 -13 -36
-30 -62 -16 -26 -30 -54 -30 -64 0 -9 -9 -28 -20 -42 -11 -14 -20 -31 -20 -38
0 -7 -6 -20 -14 -28 -11 -13 -46 -139 -46 -165 0 -16 17 -2 28 23 7 16 22 31
32 34 12 3 20 14 20 26 0 11 15 36 34 55 23 22 37 48 41 73 10 58 13 63 31 56
21 -8 44 21 44 57 0 15 11 39 25 54 14 15 25 31 25 37 0 5 11 14 25 19 19 7
25 17 25 39 0 30 21 54 28 33 2 -7 8 -12 13 -12 13 0 11 28 -2 32 -19 6 2 38
24 35 16 -2 23 6 31 35 6 21 27 54 47 75 20 21 40 45 45 54 5 9 24 34 42 55
17 22 53 65 78 97 25 31 52 57 60 57 8 0 19 11 24 25 5 13 19 34 30 45 11 11
18 25 15 30 -4 6 9 10 28 10 31 0 35 4 45 39 7 21 12 46 12 55 0 9 4 16 8 16
5 0 15 12 22 28 12 27 12 27 21 5 13 -35 22 -27 15 13 -6 30 -4 36 12 41 22 5
54 76 45 99 -3 8 8 26 26 43 17 16 31 38 31 49 0 12 5 24 10 27 12 8 13 25 1
25 -5 0 -11 -9 -14 -20z"/>
<path d="M4192 2212 c9 -22 9 -64 1 -159 -11 -128 -8 -149 22 -140 15 5 28
156 14 173 -6 7 -13 40 -16 74 -3 33 -12 65 -19 71 -10 8 -11 5 -2 -19z"/>
<path d="M5348 2099 c-24 -13 -23 -26 3 -34 14 -5 27 1 44 19 l24 26 -27 0
c-15 0 -35 -5 -44 -11z"/>
<path d="M4285 1929 c-4 -6 -5 -13 -2 -16 7 -7 27 6 27 18 0 12 -17 12 -25 -2z"/>
<path d="M4405 1930 c-3 -5 3 -10 15 -10 12 0 18 5 15 10 -3 6 -10 10 -15 10
-5 0 -12 -4 -15 -10z"/>
<path d="M4425 1550 c-106 -53 -115 -64 -122 -138 -5 -48 -2 -64 11 -77 9 -9
16 -24 16 -34 0 -21 30 -51 51 -51 20 0 51 73 47 110 -2 21 5 38 28 62 33 36
95 115 108 137 10 16 -9 31 -39 31 -11 0 -56 -18 -100 -40z"/>
<path d="M4820 1461 c0 -25 -4 -30 -37 -36 -40 -7 -62 -28 -63 -61 0 -17 5
-20 33 -16 40 6 67 28 67 57 0 13 7 25 15 29 8 3 15 17 15 31 0 16 -6 25 -15
25 -10 0 -15 -10 -15 -29z"/>
<path d="M4688 1322 c-15 -6 -108 -135 -108 -149 0 -3 -9 -16 -20 -30 -12 -15
-18 -34 -15 -44 4 -12 -1 -22 -14 -29 -11 -6 -33 -35 -47 -65 -24 -49 -26 -58
-15 -99 6 -25 11 -68 11 -97 0 -34 7 -63 20 -84 15 -25 21 -56 25 -146 12
-258 37 -363 86 -371 39 -5 63 -119 39 -182 -9 -25 -8 -26 28 -26 35 0 39 4
69 58 56 102 291 341 390 398 35 20 65 40 68 45 3 4 -11 31 -32 59 -33 44 -42
51 -66 47 -35 -5 -44 9 -22 33 27 30 15 103 -28 174 -44 71 -66 96 -84 96 -19
0 -17 -6 27 -85 l39 -73 -6 -88 c-3 -49 -11 -96 -17 -104 -7 -8 -20 -35 -30
-60 -10 -25 -24 -57 -32 -72 -8 -14 -14 -34 -14 -43 0 -9 -34 -50 -75 -92 -41
-41 -77 -84 -80 -94 -9 -28 -44 -24 -55 6 -5 14 -17 26 -27 26 -10 1 -31 2
-46 3 -26 1 -31 8 -52 62 -32 86 -48 222 -47 414 1 140 6 295 11 349 1 11 15
13 71 8 80 -7 90 1 90 70 0 21 10 66 22 100 15 41 19 66 13 72 -14 14 -57 21
-77 13z"/>
<path d="M4275 1268 c-10 -24 -19 -72 -22 -108 -2 -36 -10 -92 -17 -125 -11
-50 -13 -117 -7 -182 2 -25 17 -13 35 27 9 22 15 49 11 59 -3 11 5 48 18 83
33 83 43 201 22 251 -8 20 -17 37 -19 37 -2 0 -12 -19 -21 -42z"/>
<path d="M3867 1248 c-9 -7 -23 -30 -32 -51 -8 -20 -39 -65 -68 -100 -121
-143 -305 -408 -413 -595 -30 -51 -54 -96 -54 -101 0 -4 -14 -29 -31 -55 l-32
-47 35 -52 c20 -29 50 -78 69 -110 89 -152 73 -137 140 -137 32 0 59 2 59 4 0
2 -24 53 -54 112 -30 60 -68 140 -86 178 -32 69 -32 69 -13 95 11 14 23 33 27
41 4 8 17 31 29 50 12 20 31 51 42 69 11 18 56 87 100 154 44 66 84 127 90
136 5 9 19 32 31 51 11 19 51 80 87 136 37 55 67 104 67 110 1 16 35 51 58 58
28 9 40 -17 18 -39 -9 -9 -16 -24 -16 -32 0 -9 -12 -31 -26 -50 -14 -18 -24
-41 -22 -51 2 -11 16 3 41 44 20 34 37 65 37 69 0 4 10 15 22 24 25 21 19 51
-11 51 -10 0 -26 11 -35 25 -18 28 -34 31 -59 13z"/>
<path d="M77 1243 c-4 -3 -7 -9 -7 -13 0 -10 77 -50 84 -43 13 13 5 29 -23 46
-31 18 -44 21 -54 10z"/>
<path d="M964 1125 c-23 -18 -140 -20 -195 -4 -32 10 -42 9 -64 -5 -14 -9 -25
-26 -25 -37 0 -24 47 -89 64 -89 7 0 25 -13 41 -30 24 -25 36 -30 77 -30 34 0
50 5 54 15 4 8 11 15 18 15 23 0 83 39 140 93 52 48 58 57 47 71 -18 21 -129
22 -157 1z"/>
<path d="M7640 970 c-19 -71 -31 -74 -367 -72 -216 1 -294 -1 -299 -10 -4 -7
-8 -48 -9 -93 -2 -131 -15 -326 -26 -380 -5 -27 -14 -120 -19 -205 -5 -85 -10
-166 -12 -180 -3 -22 1 -25 30 -28 33 -3 38 5 35 73 -1 11 3 36 7 55 5 19 11
65 14 103 2 37 9 74 15 81 7 8 16 82 22 167 6 84 15 161 20 171 5 10 8 22 5
27 -7 10 15 73 29 83 6 4 24 8 40 8 17 0 40 6 51 14 17 12 40 13 132 5 76 -7
118 -6 131 1 11 5 31 10 45 10 14 0 51 7 83 15 31 8 63 15 69 15 7 0 47 -34
89 -75 82 -81 115 -95 115 -46 0 15 -11 43 -24 62 -13 19 -43 72 -67 119 -44
84 -70 120 -89 120 -5 0 -14 -18 -20 -40z"/>
<path d="M1134 963 c-41 -62 -54 -96 -69 -179 -18 -104 -19 -184 -3 -219 10
-21 9 -31 -5 -54 -16 -28 -16 -29 3 -34 14 -3 20 -14 20 -32 0 -15 4 -24 10
-20 6 3 10 20 10 36 0 17 6 42 14 57 14 27 35 280 31 372 -1 28 4 52 13 63 11
12 12 21 5 28 -7 7 -16 1 -29 -18z"/>
<path d="M3825 945 c-10 -19 -15 -38 -12 -41 3 -3 13 11 22 31 10 19 15 38 12
41 -3 3 -13 -11 -22 -31z"/>
<path d="M8690 930 c-41 -4 -150 -9 -243 -10 -251 -4 -347 -11 -347 -25 0 -7
12 -17 28 -23 79 -31 106 -33 297 -19 112 8 202 10 220 5 16 -4 51 -8 77 -8
37 0 50 -4 58 -20 10 -19 40 -28 40 -12 0 5 16 27 35 49 36 43 35 53 -9 59
-12 1 -34 5 -51 7 -16 3 -64 1 -105 -3z"/>
<path d="M7943 913 c-15 -5 -18 -49 -4 -57 4 -3 11 -20 15 -38 4 -18 18 -50
32 -71 14 -22 28 -55 31 -75 3 -21 16 -48 29 -62 17 -18 26 -46 34 -100 6 -41
10 -86 9 -100 -1 -14 -2 -50 -3 -80 l-1 -55 45 0 c40 0 46 3 54 28 7 18 6 52
-3 105 -7 42 -16 106 -21 141 -5 35 -14 68 -18 75 -5 6 -12 29 -16 51 -7 42
-15 62 -62 158 -37 77 -72 100 -121 80z"/>
<path d="M4744 765 c-22 -22 -25 -31 -19 -63 4 -20 7 -41 7 -47 0 -5 -5 -77
-10 -160 -5 -82 -7 -156 -4 -163 2 -7 12 -12 20 -10 11 2 20 23 28 63 7 33 17
78 22 100 44 181 45 190 29 226 -9 19 -17 43 -19 53 -5 30 -25 30 -54 1z"/>
<path d="M5620 780 c-8 -5 -38 -10 -67 -10 -41 0 -55 -4 -70 -22 -28 -35 -67
-52 -107 -45 l-34 5 -7 -59 c-4 -33 -4 -63 -1 -67 9 -8 72 26 111 59 32 28 87
59 104 59 10 0 121 79 121 86 0 8 -36 3 -50 -6z"/>
<path d="M5692 622 c-68 -72 -212 -270 -212 -293 0 -17 -59 -127 -70 -131 -6
-2 -14 -23 -17 -46 -5 -34 -13 -49 -40 -69 -19 -15 -41 -39 -49 -55 -14 -26
-13 -28 7 -28 29 0 87 57 95 94 4 17 19 49 35 71 15 22 31 53 35 69 4 17 27
56 51 87 23 31 43 60 43 65 0 4 17 32 38 62 20 30 42 62 47 71 6 9 26 35 45
58 56 67 80 100 80 112 0 21 -16 9 -88 -67z"/>
<path d="M2 638 c3 -7 27 -16 54 -19 27 -3 76 -13 109 -22 32 -10 75 -17 95
-17 19 0 51 -5 70 -11 19 -6 73 -15 120 -19 238 -25 260 -31 239 -56 -10 -12
-3 -14 44 -14 36 0 61 -5 71 -15 8 -8 23 -15 33 -15 17 1 17 1 -1 15 -17 13
-17 15 -3 21 27 10 52 0 52 -21 0 -28 33 -32 43 -4 5 13 11 18 15 12 12 -18
62 1 62 23 0 21 18 17 -300 65 -77 11 -174 25 -215 29 -41 5 -93 14 -115 19
-22 6 -63 11 -90 11 -28 0 -77 7 -108 15 -73 19 -180 20 -175 3z"/>
<path d="M165 540 c8 -13 45 -13 65 0 11 7 3 10 -28 10 -26 0 -41 -4 -37 -10z"/>
<path d="M327 509 c8 -8 16 -8 30 0 16 9 14 10 -11 11 -22 0 -27 -3 -19 -11z"/>
<path d="M8933 463 c-27 -10 -11 -23 27 -23 29 0 40 4 40 15 0 15 -39 20 -67
8z"/>
<path d="M8872 433 c-29 -11 -113 -73 -135 -99 -23 -26 -25 -27 -68 -14 -24 7
-57 12 -74 12 -16 0 -91 -1 -166 -1 -110 -1 -139 -4 -150 -17 -10 -12 -9 -18
5 -32 15 -15 48 -17 265 -20 248 -4 249 -4 270 19 11 13 21 34 21 47 0 15 7
26 19 29 14 4 51 59 51 78 0 6 -21 5 -38 -2z"/>
<path d="M3589 323 c-2 -32 2 -43 27 -80 28 -42 30 -32 8 43 -15 53 -33 71
-35 37z"/>
<path d="M8005 260 c-3 -11 -4 -24 0 -30 3 -5 1 -19 -5 -30 -16 -29 10 -82 65
-132 25 -22 45 -46 45 -53 0 -16 645 -21 655 -5 8 13 72 13 80 0 7 -12 75 -14
75 -2 0 8 49 32 67 32 9 0 13 19 13 71 l0 72 -52 -6 c-40 -5 -57 -12 -68 -29
-39 -60 -76 -85 -141 -91 -122 -13 -396 -8 -472 9 -133 29 -197 76 -197 145 0
20 -5 25 -22 25 -18 -1 -22 4 -21 22 3 27 -13 29 -22 2z"/>
<path d="M2924 197 c-9 -24 6 -44 18 -22 7 11 6 21 -1 28 -7 7 -12 6 -17 -6z"/>
<path d="M3658 165 c-8 -8 4 -65 13 -65 12 0 12 57 0 64 -4 3 -10 3 -13 1z"/>
<path d="M2923 134 c-3 -8 4 -28 16 -44 11 -16 21 -43 21 -60 l0 -30 60 0 c33
0 60 2 60 5 0 11 -132 145 -142 145 -5 0 -11 -7 -15 -16z"/>
<path d="M3710 21 c-10 -19 -8 -21 16 -21 24 0 25 2 13 18 -7 9 -14 19 -15 20
-1 2 -7 -6 -14 -17z"/>
<path d="M5086 15 c-19 -15 -19 -15 2 -15 13 0 22 6 22 15 0 18 0 18 -24 0z"/>
</g>
</svg>
